STARTFONT 2.1
FONT -FontForge-Abyssinica SIL-Book-R-Normal--10-100-75-75-P-64-ISO10646-1
SIZE 10 75 75
FONTBOUNDINGBOX 23 13 -9 -3
COMMENT "Generated by fontforge, http://fontforge.sourceforge.net"
COMMENT "Copyright (c) 2000-2013 by SIL International. All rights reserved."
STARTPROPERTIES 39
FOUNDRY "FontForge"
FAMILY_NAME "Abyssinica SIL"
WEIGHT_NAME "Book"
SLANT "R"
SETWIDTH_NAME "Normal"
ADD_STYLE_NAME ""
PIXEL_SIZE 10
POINT_SIZE 100
RESOLUTION_X 75
RESOLUTION_Y 75
SPACING "P"
AVERAGE_WIDTH 64
CHARSET_REGISTRY "ISO10646"
CHARSET_ENCODING "1"
FONTNAME_REGISTRY ""
CHARSET_COLLECTIONS "ISO10646-1"
FONT_NAME "AbyssinicaSIL"
FACE_NAME "Abyssinica SIL"
COPYRIGHT "Copyright (c) 2000-2013 by SIL International. All rights reserved."
FONT_VERSION "1.500"
FONT_ASCENT 8
FONT_DESCENT 2
UNDERLINE_POSITION -1
UNDERLINE_THICKNESS 1
X_HEIGHT 4
CAP_HEIGHT 6
RAW_ASCENT 844
RAW_DESCENT 155
NORM_SPACE 5
RELATIVE_WEIGHT 40
RELATIVE_SETWIDTH 50
SUPERSCRIPT_X 0
SUPERSCRIPT_Y 4
SUPERSCRIPT_SIZE 6
SUBSCRIPT_X 0
SUBSCRIPT_Y 1
SUBSCRIPT_SIZE 6
AVG_LOWERCASE_WIDTH 53
AVG_UPPERCASE_WIDTH 65
ENDPROPERTIES
CHARS 1027
STARTCHAR tab
ENCODING 9
SWIDTH 312 0
DWIDTH 3 0
BBX 1 1 0 0
BITMAP
00
ENDCHAR
STARTCHAR space
ENCODING 32
SWIDTH 450 0
DWIDTH 5 0
BBX 1 1 0 0
BITMAP
00
ENDCHAR
STARTCHAR exclam
ENCODING 33
SWIDTH 540 0
DWIDTH 5 0
BBX 1 7 2 0
BITMAP
80
80
80
80
80
80
80
ENDCHAR
STARTCHAR quotedbl
ENCODING 34
SWIDTH 454 0
DWIDTH 5 0
BBX 3 3 1 4
BITMAP
A0
A0
A0
ENDCHAR
STARTCHAR numbersign
ENCODING 35
SWIDTH 743 0
DWIDTH 7 0
BBX 6 7 1 0
BITMAP
28
28
FC
50
F8
A0
A0
ENDCHAR
STARTCHAR dollar
ENCODING 36
SWIDTH 540 0
DWIDTH 5 0
BBX 5 8 0 -1
BITMAP
30
78
B0
F0
38
B8
F8
30
ENDCHAR
STARTCHAR percent
ENCODING 37
SWIDTH 789 0
DWIDTH 8 0
BBX 8 6 0 0
BITMAP
E6
94
E8
17
39
67
ENDCHAR
STARTCHAR ampersand
ENCODING 38
SWIDTH 699 0
DWIDTH 7 0
BBX 7 7 0 0
BITMAP
70
88
90
F6
9C
9C
76
ENDCHAR
STARTCHAR quotesingle
ENCODING 39
SWIDTH 187 0
DWIDTH 2 0
BBX 1 3 0 4
BITMAP
80
80
80
ENDCHAR
STARTCHAR parenleft
ENCODING 40
SWIDTH 332 0
DWIDTH 3 0
BBX 2 7 1 0
BITMAP
40
80
80
80
80
80
40
ENDCHAR
STARTCHAR parenright
ENCODING 41
SWIDTH 332 0
DWIDTH 3 0
BBX 2 7 1 0
BITMAP
80
80
40
40
40
80
80
ENDCHAR
STARTCHAR asterisk
ENCODING 42
SWIDTH 486 0
DWIDTH 5 0
BBX 3 4 1 3
BITMAP
40
E0
40
A0
ENDCHAR
STARTCHAR plus
ENCODING 43
SWIDTH 586 0
DWIDTH 6 0
BBX 5 4 0 1
BITMAP
20
20
F8
20
ENDCHAR
STARTCHAR comma
ENCODING 44
SWIDTH 339 0
DWIDTH 3 0
BBX 1 4 1 -2
BITMAP
80
80
80
80
ENDCHAR
STARTCHAR hyphenminus
ENCODING 45
SWIDTH 367 0
DWIDTH 4 0
BBX 2 1 1 2
BITMAP
C0
ENDCHAR
STARTCHAR period
ENCODING 46
SWIDTH 318 0
DWIDTH 3 0
BBX 1 2 1 0
BITMAP
80
80
ENDCHAR
STARTCHAR slash
ENCODING 47
SWIDTH 407 0
DWIDTH 4 0
BBX 4 7 0 0
BITMAP
10
20
20
60
40
40
80
ENDCHAR
STARTCHAR zero
ENCODING 48
SWIDTH 540 0
DWIDTH 6 0
BBX 5 6 0 0
BITMAP
70
88
88
88
88
70
ENDCHAR
STARTCHAR one
ENCODING 49
SWIDTH 540 0
DWIDTH 5 0
BBX 2 6 1 0
BITMAP
40
C0
40
40
40
40
ENDCHAR
STARTCHAR two
ENCODING 50
SWIDTH 540 0
DWIDTH 6 0
BBX 4 6 1 0
BITMAP
70
90
10
20
40
F0
ENDCHAR
STARTCHAR three
ENCODING 51
SWIDTH 540 0
DWIDTH 6 0
BBX 4 6 1 0
BITMAP
70
90
20
10
90
60
ENDCHAR
STARTCHAR four
ENCODING 52
SWIDTH 540 0
DWIDTH 5 0
BBX 5 6 0 0
BITMAP
30
50
50
90
F8
10
ENDCHAR
STARTCHAR five
ENCODING 53
SWIDTH 540 0
DWIDTH 5 0
BBX 4 6 1 0
BITMAP
F0
80
F0
10
90
60
ENDCHAR
STARTCHAR six
ENCODING 54
SWIDTH 540 0
DWIDTH 5 0
BBX 5 6 0 0
BITMAP
78
80
F8
88
88
70
ENDCHAR
STARTCHAR seven
ENCODING 55
SWIDTH 540 0
DWIDTH 5 0
BBX 4 6 1 0
BITMAP
F0
20
20
60
40
C0
ENDCHAR
STARTCHAR eight
ENCODING 56
SWIDTH 540 0
DWIDTH 6 0
BBX 5 6 0 0
BITMAP
F8
98
70
C8
88
70
ENDCHAR
STARTCHAR nine
ENCODING 57
SWIDTH 540 0
DWIDTH 5 0
BBX 5 6 0 0
BITMAP
70
88
88
78
08
F0
ENDCHAR
STARTCHAR colon
ENCODING 58
SWIDTH 279 0
DWIDTH 3 0
BBX 1 5 1 0
BITMAP
80
00
00
00
80
ENDCHAR
STARTCHAR semicolon
ENCODING 59
SWIDTH 279 0
DWIDTH 3 0
BBX 3 7 0 -2
BITMAP
60
00
00
00
40
40
80
ENDCHAR
STARTCHAR less
ENCODING 60
SWIDTH 833 0
DWIDTH 8 0
BBX 6 6 1 0
BITMAP
04
18
60
C0
30
0C
ENDCHAR
STARTCHAR equal
ENCODING 61
SWIDTH 592 0
DWIDTH 6 0
BBX 4 3 1 1
BITMAP
F0
00
F0
ENDCHAR
STARTCHAR greater
ENCODING 62
SWIDTH 833 0
DWIDTH 8 0
BBX 6 6 1 0
BITMAP
80
60
1C
0C
30
C0
ENDCHAR
STARTCHAR question
ENCODING 63
SWIDTH 585 0
DWIDTH 6 0
BBX 3 7 1 0
BITMAP
E0
20
60
40
00
40
40
ENDCHAR
STARTCHAR at
ENCODING 64
SWIDTH 936 0
DWIDTH 9 0
BBX 8 9 1 -2
BITMAP
3E
62
9D
AD
A9
AA
BE
42
3C
ENDCHAR
STARTCHAR A
ENCODING 65
SWIDTH 673 0
DWIDTH 7 0
BBX 7 7 0 0
BITMAP
10
30
28
48
78
44
CE
ENDCHAR
STARTCHAR B
ENCODING 66
SWIDTH 604 0
DWIDTH 6 0
BBX 5 7 0 0
BITMAP
F8
48
48
78
48
48
F0
ENDCHAR
STARTCHAR C
ENCODING 67
SWIDTH 626 0
DWIDTH 6 0
BBX 5 7 0 0
BITMAP
78
C8
80
80
80
C8
78
ENDCHAR
STARTCHAR D
ENCODING 68
SWIDTH 695 0
DWIDTH 7 0
BBX 6 7 0 0
BITMAP
F8
4C
44
44
44
4C
F8
ENDCHAR
STARTCHAR E
ENCODING 69
SWIDTH 583 0
DWIDTH 6 0
BBX 5 7 0 0
BITMAP
F8
40
50
70
50
48
F8
ENDCHAR
STARTCHAR F
ENCODING 70
SWIDTH 541 0
DWIDTH 5 0
BBX 5 7 0 0
BITMAP
F8
48
50
70
50
40
E0
ENDCHAR
STARTCHAR G
ENCODING 71
SWIDTH 694 0
DWIDTH 7 0
BBX 7 7 0 0
BITMAP
3C
44
80
8E
84
44
3C
ENDCHAR
STARTCHAR H
ENCODING 72
SWIDTH 743 0
DWIDTH 7 0
BBX 7 7 0 0
BITMAP
EE
44
44
7C
44
44
EE
ENDCHAR
STARTCHAR I
ENCODING 73
SWIDTH 330 0
DWIDTH 3 0
BBX 3 7 0 0
BITMAP
E0
40
40
40
40
40
E0
ENDCHAR
STARTCHAR J
ENCODING 74
SWIDTH 484 0
DWIDTH 5 0
BBX 5 7 0 0
BITMAP
38
10
10
10
10
90
E0
ENDCHAR
STARTCHAR K
ENCODING 75
SWIDTH 638 0
DWIDTH 6 0
BBX 6 7 0 0
BITMAP
EC
48
50
70
50
48
E4
ENDCHAR
STARTCHAR L
ENCODING 76
SWIDTH 530 0
DWIDTH 5 0
BBX 5 7 0 0
BITMAP
E0
40
40
40
40
48
F8
ENDCHAR
STARTCHAR M
ENCODING 77
SWIDTH 875 0
DWIDTH 9 0
BBX 9 7 0 0
BITMAP
C380
A300
A500
7500
5900
5900
CB80
ENDCHAR
STARTCHAR N
ENCODING 78
SWIDTH 721 0
DWIDTH 8 0
BBX 8 7 0 0
BITMAP
C7
62
52
52
4A
46
E2
ENDCHAR
STARTCHAR O
ENCODING 79
SWIDTH 730 0
DWIDTH 8 0
BBX 7 7 0 0
BITMAP
3C
46
82
82
82
46
3C
ENDCHAR
STARTCHAR P
ENCODING 80
SWIDTH 579 0
DWIDTH 6 0
BBX 5 8 0 -1
BITMAP
F8
48
48
48
70
40
40
E0
ENDCHAR
STARTCHAR Q
ENCODING 81
SWIDTH 738 0
DWIDTH 7 0
BBX 7 9 0 -2
BITMAP
38
44
82
82
82
84
48
30
0C
ENDCHAR
STARTCHAR R
ENCODING 82
SWIDTH 648 0
DWIDTH 6 0
BBX 6 7 0 0
BITMAP
F8
48
48
70
48
48
E4
ENDCHAR
STARTCHAR S
ENCODING 83
SWIDTH 520 0
DWIDTH 6 0
BBX 4 7 1 0
BITMAP
70
90
80
60
10
90
F0
ENDCHAR
STARTCHAR T
ENCODING 84
SWIDTH 599 0
DWIDTH 6 0
BBX 5 7 0 0
BITMAP
F8
A8
20
20
20
20
70
ENDCHAR
STARTCHAR U
ENCODING 85
SWIDTH 711 0
DWIDTH 7 0
BBX 7 7 0 0
BITMAP
EE
44
44
44
44
44
38
ENDCHAR
STARTCHAR V
ENCODING 86
SWIDTH 666 0
DWIDTH 7 0
BBX 7 7 0 0
BITMAP
C6
44
48
28
28
30
10
ENDCHAR
STARTCHAR W
ENCODING 87
SWIDTH 931 0
DWIDTH 9 0
BBX 9 7 0 0
BITMAP
C980
4D00
5500
5500
3300
2200
2200
ENDCHAR
STARTCHAR X
ENCODING 88
SWIDTH 633 0
DWIDTH 6 0
BBX 6 7 0 0
BITMAP
EC
68
30
10
30
48
CC
ENDCHAR
STARTCHAR Y
ENCODING 89
SWIDTH 625 0
DWIDTH 6 0
BBX 6 7 1 0
BITMAP
CC
50
50
20
20
20
70
ENDCHAR
STARTCHAR Z
ENCODING 90
SWIDTH 575 0
DWIDTH 6 0
BBX 5 7 0 0
BITMAP
78
88
10
20
20
48
F8
ENDCHAR
STARTCHAR bracketleft
ENCODING 91
SWIDTH 332 0
DWIDTH 3 0
BBX 1 8 1 -1
BITMAP
80
80
80
80
80
80
80
80
ENDCHAR
STARTCHAR backslash
ENCODING 92
SWIDTH 405 0
DWIDTH 4 0
BBX 4 7 0 0
BITMAP
80
40
40
60
20
20
10
ENDCHAR
STARTCHAR bracketright
ENCODING 93
SWIDTH 332 0
DWIDTH 3 0
BBX 1 8 1 -1
BITMAP
80
80
80
80
80
80
80
80
ENDCHAR
STARTCHAR asciicircum
ENCODING 94
SWIDTH 958 0
DWIDTH 10 0
BBX 5 6 2 0
BITMAP
20
30
50
50
88
88
ENDCHAR
STARTCHAR underscore
ENCODING 95
SWIDTH 600 0
DWIDTH 6 0
BBX 6 1 0 -3
BITMAP
FC
ENDCHAR
STARTCHAR grave
ENCODING 96
SWIDTH 350 0
DWIDTH 4 0
BBX 2 1 0 6
BITMAP
C0
ENDCHAR
STARTCHAR a
ENCODING 97
SWIDTH 508 0
DWIDTH 5 0
BBX 5 5 0 0
BITMAP
F0
10
70
90
F8
ENDCHAR
STARTCHAR b
ENCODING 98
SWIDTH 555 0
DWIDTH 6 0
BBX 5 7 0 0
BITMAP
C0
40
78
48
48
48
70
ENDCHAR
STARTCHAR c
ENCODING 99
SWIDTH 465 0
DWIDTH 5 0
BBX 4 5 0 0
BITMAP
70
90
80
80
70
ENDCHAR
STARTCHAR d
ENCODING 100
SWIDTH 563 0
DWIDTH 6 0
BBX 6 7 0 0
BITMAP
18
08
78
88
88
88
7C
ENDCHAR
STARTCHAR e
ENCODING 101
SWIDTH 490 0
DWIDTH 6 0
BBX 5 5 0 0
BITMAP
70
88
F8
88
70
ENDCHAR
STARTCHAR f
ENCODING 102
SWIDTH 326 0
DWIDTH 3 0
BBX 4 7 0 0
BITMAP
70
40
60
C0
40
40
E0
ENDCHAR
STARTCHAR g
ENCODING 103
SWIDTH 524 0
DWIDTH 5 0
BBX 5 8 0 -3
BITMAP
78
90
90
60
40
B0
90
E0
ENDCHAR
STARTCHAR h
ENCODING 104
SWIDTH 574 0
DWIDTH 6 0
BBX 5 7 1 0
BITMAP
80
80
B0
D0
90
90
F8
ENDCHAR
STARTCHAR i
ENCODING 105
SWIDTH 303 0
DWIDTH 3 0
BBX 2 7 1 0
BITMAP
80
00
80
80
80
80
C0
ENDCHAR
STARTCHAR j
ENCODING 106
SWIDTH 291 0
DWIDTH 3 0
BBX 3 9 -1 -2
BITMAP
20
00
60
20
20
20
20
20
C0
ENDCHAR
STARTCHAR k
ENCODING 107
SWIDTH 534 0
DWIDTH 5 0
BBX 4 7 1 0
BITMAP
80
80
B0
C0
A0
B0
D0
ENDCHAR
STARTCHAR l
ENCODING 108
SWIDTH 296 0
DWIDTH 3 0
BBX 2 7 1 0
BITMAP
80
80
80
80
80
80
C0
ENDCHAR
STARTCHAR m
ENCODING 109
SWIDTH 850 0
DWIDTH 9 0
BBX 8 5 1 0
BITMAP
BE
D2
92
92
FF
ENDCHAR
STARTCHAR n
ENCODING 110
SWIDTH 566 0
DWIDTH 6 0
BBX 5 5 1 0
BITMAP
B0
D0
90
90
F8
ENDCHAR
STARTCHAR o
ENCODING 111
SWIDTH 543 0
DWIDTH 6 0
BBX 5 5 0 0
BITMAP
70
88
88
88
70
ENDCHAR
STARTCHAR p
ENCODING 112
SWIDTH 559 0
DWIDTH 6 0
BBX 4 7 1 -2
BITMAP
A0
D0
90
90
E0
80
C0
ENDCHAR
STARTCHAR q
ENCODING 113
SWIDTH 548 0
DWIDTH 6 0
BBX 6 7 0 -2
BITMAP
78
88
88
88
78
08
1C
ENDCHAR
STARTCHAR r
ENCODING 114
SWIDTH 391 0
DWIDTH 4 0
BBX 3 5 1 0
BITMAP
E0
80
80
80
C0
ENDCHAR
STARTCHAR s
ENCODING 115
SWIDTH 397 0
DWIDTH 5 0
BBX 4 5 0 0
BITMAP
E0
A0
60
90
F0
ENDCHAR
STARTCHAR t
ENCODING 116
SWIDTH 339 0
DWIDTH 3 0
BBX 3 6 0 0
BITMAP
40
60
C0
40
40
60
ENDCHAR
STARTCHAR u
ENCODING 117
SWIDTH 568 0
DWIDTH 6 0
BBX 6 5 0 0
BITMAP
D8
48
48
48
7C
ENDCHAR
STARTCHAR v
ENCODING 118
SWIDTH 528 0
DWIDTH 5 0
BBX 5 5 0 0
BITMAP
D8
50
50
50
20
ENDCHAR
STARTCHAR w
ENCODING 119
SWIDTH 783 0
DWIDTH 8 0
BBX 8 5 0 0
BITMAP
CB
5A
5A
6C
24
ENDCHAR
STARTCHAR x
ENCODING 120
SWIDTH 509 0
DWIDTH 5 0
BBX 5 5 0 0
BITMAP
D8
70
20
50
D8
ENDCHAR
STARTCHAR y
ENCODING 121
SWIDTH 529 0
DWIDTH 5 0
BBX 5 7 0 -2
BITMAP
D8
50
50
30
20
20
C0
ENDCHAR
STARTCHAR z
ENCODING 122
SWIDTH 461 0
DWIDTH 5 0
BBX 4 5 0 0
BITMAP
F0
A0
20
50
F0
ENDCHAR
STARTCHAR braceleft
ENCODING 123
SWIDTH 487 0
DWIDTH 5 0
BBX 3 8 1 -1
BITMAP
60
40
40
40
80
40
40
60
ENDCHAR
STARTCHAR bar
ENCODING 124
SWIDTH 500 0
DWIDTH 5 0
BBX 1 9 2 -2
BITMAP
80
80
80
80
80
80
80
80
80
ENDCHAR
STARTCHAR braceright
ENCODING 125
SWIDTH 487 0
DWIDTH 5 0
BBX 3 8 1 -1
BITMAP
C0
40
40
40
20
40
40
C0
ENDCHAR
STARTCHAR asciitilde
ENCODING 126
SWIDTH 833 0
DWIDTH 8 0
BBX 6 2 1 2
BITMAP
E4
9C
ENDCHAR
STARTCHAR NoBreakSpace
ENCODING 160
SWIDTH 292 0
DWIDTH 3 0
BBX 1 1 0 0
BITMAP
00
ENDCHAR
STARTCHAR exclamdown
ENCODING 161
SWIDTH 540 0
DWIDTH 5 0
BBX 1 7 2 -1
BITMAP
80
80
80
80
80
80
80
ENDCHAR
STARTCHAR cent
ENCODING 162
SWIDTH 562 0
DWIDTH 6 0
BBX 3 7 1 -1
BITMAP
20
60
A0
A0
A0
60
20
ENDCHAR
STARTCHAR sterling
ENCODING 163
SWIDTH 562 0
DWIDTH 6 0
BBX 5 7 0 0
BITMAP
38
48
40
F0
40
40
F8
ENDCHAR
STARTCHAR currency
ENCODING 164
SWIDTH 605 0
DWIDTH 7 0
BBX 7 5 0 2
BITMAP
82
7C
44
48
7C
ENDCHAR
STARTCHAR yen
ENCODING 165
SWIDTH 596 0
DWIDTH 6 0
BBX 5 7 0 0
BITMAP
C8
50
D8
20
F8
20
70
ENDCHAR
STARTCHAR brokenbar
ENCODING 166
SWIDTH 500 0
DWIDTH 5 0
BBX 1 9 2 -2
BITMAP
80
80
80
80
00
80
80
80
80
ENDCHAR
STARTCHAR section
ENCODING 167
SWIDTH 500 0
DWIDTH 5 0
BBX 4 8 0 -1
BITMAP
F0
90
40
B0
90
60
90
F0
ENDCHAR
STARTCHAR dieresis
ENCODING 168
SWIDTH 315 0
DWIDTH 4 0
BBX 3 1 0 6
BITMAP
A0
ENDCHAR
STARTCHAR copyright
ENCODING 169
SWIDTH 868 0
DWIDTH 9 0
BBX 8 7 0 0
BITMAP
3C
5A
A5
A1
A5
5A
3C
ENDCHAR
STARTCHAR ordfeminine
ENCODING 170
SWIDTH 340 0
DWIDTH 3 0
BBX 3 4 0 3
BITMAP
C0
40
C0
E0
ENDCHAR
STARTCHAR guillemotleft
ENCODING 171
SWIDTH 600 0
DWIDTH 6 0
BBX 5 5 1 1
BITMAP
78
50
A0
F0
50
ENDCHAR
STARTCHAR logicalnot
ENCODING 172
SWIDTH 833 0
DWIDTH 8 0
BBX 6 2 1 2
BITMAP
FC
04
ENDCHAR
STARTCHAR uni00AD
ENCODING 173
SWIDTH 319 0
DWIDTH 3 0
BBX 3 1 0 2
BITMAP
E0
ENDCHAR
STARTCHAR registered
ENCODING 174
SWIDTH 836 0
DWIDTH 8 0
BBX 8 8 0 -1
BITMAP
3C
7E
95
99
99
BF
42
3C
ENDCHAR
STARTCHAR macron
ENCODING 175
SWIDTH 334 0
DWIDTH 3 0
BBX 3 1 0 6
BITMAP
E0
ENDCHAR
STARTCHAR degree
ENCODING 176
SWIDTH 319 0
DWIDTH 4 0
BBX 3 2 0 5
BITMAP
E0
E0
ENDCHAR
STARTCHAR plusminus
ENCODING 177
SWIDTH 833 0
DWIDTH 8 0
BBX 7 6 1 0
BITMAP
10
10
FE
10
10
FC
ENDCHAR
STARTCHAR twosuperior
ENCODING 178
SWIDTH 404 0
DWIDTH 4 0
BBX 3 4 1 3
BITMAP
E0
20
40
E0
ENDCHAR
STARTCHAR threesuperior
ENCODING 179
SWIDTH 404 0
DWIDTH 5 0
BBX 4 4 0 3
BITMAP
F0
20
10
F0
ENDCHAR
STARTCHAR acute
ENCODING 180
SWIDTH 351 0
DWIDTH 4 0
BBX 3 1 1 6
BITMAP
E0
ENDCHAR
STARTCHAR mu
ENCODING 181
SWIDTH 546 0
DWIDTH 6 0
BBX 6 7 0 -2
BITMAP
88
88
88
8C
FC
80
80
ENDCHAR
STARTCHAR paragraph
ENCODING 182
SWIDTH 560 0
DWIDTH 6 0
BBX 5 8 1 0
BITMAP
78
D0
D0
D0
50
50
50
50
ENDCHAR
STARTCHAR periodcentered
ENCODING 183
SWIDTH 280 0
DWIDTH 3 0
BBX 1 1 1 3
BITMAP
80
ENDCHAR
STARTCHAR cedilla
ENCODING 184
SWIDTH 230 0
DWIDTH 2 0
BBX 2 3 0 -3
BITMAP
40
40
C0
ENDCHAR
STARTCHAR onesuperior
ENCODING 185
SWIDTH 404 0
DWIDTH 4 0
BBX 1 4 1 3
BITMAP
80
80
80
80
ENDCHAR
STARTCHAR ordmasculine
ENCODING 186
SWIDTH 357 0
DWIDTH 5 0
BBX 4 4 0 3
BITMAP
70
90
90
F0
ENDCHAR
STARTCHAR guillemotright
ENCODING 187
SWIDTH 600 0
DWIDTH 6 0
BBX 5 5 0 1
BITMAP
50
78
28
50
F0
ENDCHAR
STARTCHAR onequarter
ENCODING 188
SWIDTH 875 0
DWIDTH 9 0
BBX 9 7 0 0
BITMAP
C200
4400
4900
EB00
1500
2780
2100
ENDCHAR
STARTCHAR onehalf
ENCODING 189
SWIDTH 875 0
DWIDTH 9 0
BBX 8 7 0 0
BITMAP
C6
44
48
F7
11
23
47
ENDCHAR
STARTCHAR threequarters
ENCODING 190
SWIDTH 875 0
DWIDTH 9 0
BBX 10 7 -1 0
BITMAP
7100
3200
1280
E580
0A80
13C0
1080
ENDCHAR
STARTCHAR questiondown
ENCODING 191
SWIDTH 485 0
DWIDTH 5 0
BBX 3 7 1 -1
BITMAP
40
40
40
80
80
A0
60
ENDCHAR
STARTCHAR Agrave
ENCODING 192
SWIDTH 673 0
DWIDTH 7 0
BBX 7 9 0 0
BITMAP
60
10
10
30
28
48
78
44
CE
ENDCHAR
STARTCHAR Aacute
ENCODING 193
SWIDTH 673 0
DWIDTH 7 0
BBX 7 9 0 0
BITMAP
08
10
10
30
28
48
78
44
CE
ENDCHAR
STARTCHAR Acircumflex
ENCODING 194
SWIDTH 673 0
DWIDTH 7 0
BBX 7 9 0 0
BITMAP
30
48
10
30
28
48
78
44
CE
ENDCHAR
STARTCHAR Atilde
ENCODING 195
SWIDTH 673 0
DWIDTH 7 0
BBX 7 9 0 0
BITMAP
38
00
10
30
28
48
78
44
CE
ENDCHAR
STARTCHAR Adieresis
ENCODING 196
SWIDTH 673 0
DWIDTH 7 0
BBX 7 9 0 0
BITMAP
28
00
10
10
28
28
3C
44
C6
ENDCHAR
STARTCHAR Aring
ENCODING 197
SWIDTH 673 0
DWIDTH 7 0
BBX 7 10 0 0
BITMAP
38
28
38
10
30
28
48
78
4C
CE
ENDCHAR
STARTCHAR AE
ENCODING 198
SWIDTH 933 0
DWIDTH 9 0
BBX 8 7 0 0
BITMAP
1F
09
3A
4E
3A
49
CF
ENDCHAR
STARTCHAR Ccedilla
ENCODING 199
SWIDTH 626 0
DWIDTH 6 0
BBX 6 10 0 -3
BITMAP
78
C8
80
80
80
44
3C
08
08
18
ENDCHAR
STARTCHAR Egrave
ENCODING 200
SWIDTH 583 0
DWIDTH 6 0
BBX 5 9 0 0
BITMAP
60
20
F8
40
50
70
50
48
F8
ENDCHAR
STARTCHAR Eacute
ENCODING 201
SWIDTH 583 0
DWIDTH 6 0
BBX 5 9 0 0
BITMAP
08
30
F8
40
50
70
50
48
F8
ENDCHAR
STARTCHAR Ecircumflex
ENCODING 202
SWIDTH 583 0
DWIDTH 6 0
BBX 5 9 0 0
BITMAP
30
50
F8
40
50
70
50
48
F8
ENDCHAR
STARTCHAR Edieresis
ENCODING 203
SWIDTH 583 0
DWIDTH 6 0
BBX 6 9 0 0
BITMAP
48
00
FC
40
50
70
50
48
F8
ENDCHAR
STARTCHAR Igrave
ENCODING 204
SWIDTH 330 0
DWIDTH 3 0
BBX 3 9 0 0
BITMAP
80
40
E0
40
40
40
40
40
E0
ENDCHAR
STARTCHAR Iacute
ENCODING 205
SWIDTH 330 0
DWIDTH 3 0
BBX 3 9 0 0
BITMAP
20
40
E0
40
40
40
40
40
E0
ENDCHAR
STARTCHAR Icircumflex
ENCODING 206
SWIDTH 330 0
DWIDTH 3 0
BBX 3 9 0 0
BITMAP
40
A0
E0
40
40
40
40
40
E0
ENDCHAR
STARTCHAR Idieresis
ENCODING 207
SWIDTH 330 0
DWIDTH 3 0
BBX 3 9 0 0
BITMAP
A0
00
E0
40
40
40
40
40
E0
ENDCHAR
STARTCHAR Eth
ENCODING 208
SWIDTH 695 0
DWIDTH 7 0
BBX 6 7 0 0
BITMAP
F8
44
44
F4
44
4C
F8
ENDCHAR
STARTCHAR Ntilde
ENCODING 209
SWIDTH 721 0
DWIDTH 8 0
BBX 8 9 0 0
BITMAP
1C
00
C7
62
52
52
4A
46
E2
ENDCHAR
STARTCHAR Ograve
ENCODING 210
SWIDTH 730 0
DWIDTH 8 0
BBX 7 9 0 0
BITMAP
20
10
3C
46
82
82
82
46
3C
ENDCHAR
STARTCHAR Oacute
ENCODING 211
SWIDTH 730 0
DWIDTH 8 0
BBX 7 9 0 0
BITMAP
08
10
3C
46
82
82
82
46
3C
ENDCHAR
STARTCHAR Ocircumflex
ENCODING 212
SWIDTH 730 0
DWIDTH 8 0
BBX 7 9 0 0
BITMAP
10
28
3C
46
82
82
82
46
3C
ENDCHAR
STARTCHAR Otilde
ENCODING 213
SWIDTH 730 0
DWIDTH 8 0
BBX 7 9 0 0
BITMAP
3C
00
3C
46
82
82
82
46
3C
ENDCHAR
STARTCHAR Odieresis
ENCODING 214
SWIDTH 731 0
DWIDTH 8 0
BBX 7 9 0 0
BITMAP
28
00
38
44
82
82
82
44
38
ENDCHAR
STARTCHAR multiply
ENCODING 215
SWIDTH 586 0
DWIDTH 6 0
BBX 4 4 1 1
BITMAP
90
60
60
90
ENDCHAR
STARTCHAR Oslash
ENCODING 216
SWIDTH 730 0
DWIDTH 8 0
BBX 7 8 0 -1
BITMAP
3E
44
8A
92
A2
A6
7C
80
ENDCHAR
STARTCHAR Ugrave
ENCODING 217
SWIDTH 711 0
DWIDTH 7 0
BBX 7 9 0 0
BITMAP
20
10
EE
44
44
44
44
44
38
ENDCHAR
STARTCHAR Uacute
ENCODING 218
SWIDTH 711 0
DWIDTH 7 0
BBX 7 9 0 0
BITMAP
08
10
EE
44
44
44
44
44
38
ENDCHAR
STARTCHAR Ucircumflex
ENCODING 219
SWIDTH 711 0
DWIDTH 7 0
BBX 7 9 0 0
BITMAP
10
28
C6
44
44
44
44
44
38
ENDCHAR
STARTCHAR Udieresis
ENCODING 220
SWIDTH 711 0
DWIDTH 7 0
BBX 7 9 0 0
BITMAP
28
00
EE
44
44
44
44
44
38
ENDCHAR
STARTCHAR Yacute
ENCODING 221
SWIDTH 625 0
DWIDTH 6 0
BBX 6 9 1 0
BITMAP
30
40
CC
50
50
20
20
20
70
ENDCHAR
STARTCHAR Thorn
ENCODING 222
SWIDTH 578 0
DWIDTH 6 0
BBX 5 7 0 0
BITMAP
E0
78
48
48
48
70
E0
ENDCHAR
STARTCHAR germandbls
ENCODING 223
SWIDTH 627 0
DWIDTH 6 0
BBX 6 7 0 0
BITMAP
38
48
48
50
4C
54
FC
ENDCHAR
STARTCHAR agrave
ENCODING 224
SWIDTH 508 0
DWIDTH 5 0
BBX 5 7 0 0
BITMAP
40
20
F0
10
70
90
F8
ENDCHAR
STARTCHAR aacute
ENCODING 225
SWIDTH 508 0
DWIDTH 5 0
BBX 5 7 0 0
BITMAP
10
20
F0
10
70
90
F8
ENDCHAR
STARTCHAR acircumflex
ENCODING 226
SWIDTH 508 0
DWIDTH 5 0
BBX 5 7 0 0
BITMAP
60
90
F0
10
70
90
F8
ENDCHAR
STARTCHAR atilde
ENCODING 227
SWIDTH 508 0
DWIDTH 5 0
BBX 5 7 0 0
BITMAP
70
B0
F0
10
70
90
F8
ENDCHAR
STARTCHAR adieresis
ENCODING 228
SWIDTH 508 0
DWIDTH 5 0
BBX 5 7 0 0
BITMAP
90
00
F0
10
70
90
F8
ENDCHAR
STARTCHAR aring
ENCODING 229
SWIDTH 508 0
DWIDTH 5 0
BBX 5 8 0 0
BITMAP
70
50
70
F0
10
70
90
F8
ENDCHAR
STARTCHAR ae
ENCODING 230
SWIDTH 721 0
DWIDTH 8 0
BBX 7 5 0 0
BITMAP
FC
12
3E
D0
EE
ENDCHAR
STARTCHAR ccedilla
ENCODING 231
SWIDTH 465 0
DWIDTH 6 0
BBX 5 8 0 -3
BITMAP
78
88
80
80
78
10
10
30
ENDCHAR
STARTCHAR egrave
ENCODING 232
SWIDTH 490 0
DWIDTH 6 0
BBX 5 7 0 0
BITMAP
40
20
70
88
F8
88
70
ENDCHAR
STARTCHAR eacute
ENCODING 233
SWIDTH 490 0
DWIDTH 6 0
BBX 5 7 0 0
BITMAP
10
20
70
88
F8
88
70
ENDCHAR
STARTCHAR ecircumflex
ENCODING 234
SWIDTH 490 0
DWIDTH 6 0
BBX 5 7 0 0
BITMAP
20
50
78
88
F8
88
70
ENDCHAR
STARTCHAR edieresis
ENCODING 235
SWIDTH 490 0
DWIDTH 6 0
BBX 5 7 0 0
BITMAP
50
00
70
88
F8
88
70
ENDCHAR
STARTCHAR igrave
ENCODING 236
SWIDTH 303 0
DWIDTH 3 0
BBX 3 7 0 0
BITMAP
80
40
C0
40
40
40
E0
ENDCHAR
STARTCHAR iacute
ENCODING 237
SWIDTH 303 0
DWIDTH 3 0
BBX 3 7 0 0
BITMAP
20
40
C0
40
40
40
60
ENDCHAR
STARTCHAR icircumflex
ENCODING 238
SWIDTH 303 0
DWIDTH 3 0
BBX 3 7 0 0
BITMAP
40
A0
40
40
40
40
60
ENDCHAR
STARTCHAR idieresis
ENCODING 239
SWIDTH 303 0
DWIDTH 3 0
BBX 2 7 0 0
BITMAP
C0
00
80
80
80
80
C0
ENDCHAR
STARTCHAR eth
ENCODING 240
SWIDTH 539 0
DWIDTH 6 0
BBX 5 7 0 0
BITMAP
78
50
78
88
88
88
70
ENDCHAR
STARTCHAR ntilde
ENCODING 241
SWIDTH 577 0
DWIDTH 6 0
BBX 5 7 1 0
BITMAP
50
A0
B0
D0
90
90
F8
ENDCHAR
STARTCHAR ograve
ENCODING 242
SWIDTH 543 0
DWIDTH 6 0
BBX 5 7 0 0
BITMAP
40
20
70
88
88
88
70
ENDCHAR
STARTCHAR oacute
ENCODING 243
SWIDTH 543 0
DWIDTH 6 0
BBX 5 7 0 0
BITMAP
18
20
70
88
88
88
70
ENDCHAR
STARTCHAR ocircumflex
ENCODING 244
SWIDTH 543 0
DWIDTH 6 0
BBX 5 7 0 0
BITMAP
20
50
78
88
88
88
70
ENDCHAR
STARTCHAR otilde
ENCODING 245
SWIDTH 543 0
DWIDTH 6 0
BBX 5 7 0 0
BITMAP
68
90
70
88
88
88
70
ENDCHAR
STARTCHAR odieresis
ENCODING 246
SWIDTH 543 0
DWIDTH 6 0
BBX 5 7 0 0
BITMAP
50
00
70
88
88
88
70
ENDCHAR
STARTCHAR divide
ENCODING 247
SWIDTH 833 0
DWIDTH 8 0
BBX 6 4 1 1
BITMAP
10
00
FC
10
ENDCHAR
STARTCHAR oslash
ENCODING 248
SWIDTH 543 0
DWIDTH 6 0
BBX 5 7 0 -1
BITMAP
18
70
A8
A8
C8
70
80
ENDCHAR
STARTCHAR ugrave
ENCODING 249
SWIDTH 568 0
DWIDTH 6 0
BBX 6 7 0 0
BITMAP
60
10
D8
48
48
48
7C
ENDCHAR
STARTCHAR uacute
ENCODING 250
SWIDTH 568 0
DWIDTH 6 0
BBX 6 7 0 0
BITMAP
08
30
D8
48
48
48
7C
ENDCHAR
STARTCHAR ucircumflex
ENCODING 251
SWIDTH 568 0
DWIDTH 6 0
BBX 6 7 0 0
BITMAP
30
48
D8
48
48
48
7C
ENDCHAR
STARTCHAR udieresis
ENCODING 252
SWIDTH 568 0
DWIDTH 6 0
BBX 6 7 0 0
BITMAP
50
00
D8
48
48
48
7C
ENDCHAR
STARTCHAR yacute
ENCODING 253
SWIDTH 529 0
DWIDTH 5 0
BBX 5 9 0 -2
BITMAP
10
20
D8
50
50
30
20
20
C0
ENDCHAR
STARTCHAR thorn
ENCODING 254
SWIDTH 559 0
DWIDTH 6 0
BBX 4 9 1 -2
BITMAP
80
80
A0
D0
90
90
E0
80
C0
ENDCHAR
STARTCHAR ydieresis
ENCODING 255
SWIDTH 529 0
DWIDTH 5 0
BBX 5 9 0 -2
BITMAP
50
00
D8
90
50
60
20
40
C0
ENDCHAR
STARTCHAR dotlessi
ENCODING 305
SWIDTH 303 0
DWIDTH 3 0
BBX 2 5 1 0
BITMAP
80
80
80
80
C0
ENDCHAR
STARTCHAR OE
ENCODING 338
SWIDTH 999 0
DWIDTH 10 0
BBX 9 7 0 0
BITMAP
7F80
8C00
8500
8700
8500
8C80
7F80
ENDCHAR
STARTCHAR oe
ENCODING 339
SWIDTH 819 0
DWIDTH 9 0
BBX 8 5 0 0
BITMAP
76
89
8F
89
77
ENDCHAR
STARTCHAR Scaron
ENCODING 352
SWIDTH 520 0
DWIDTH 6 0
BBX 4 9 1 0
BITMAP
F0
20
70
90
80
60
10
90
F0
ENDCHAR
STARTCHAR scaron
ENCODING 353
SWIDTH 397 0
DWIDTH 5 0
BBX 4 7 0 0
BITMAP
90
60
E0
A0
60
90
F0
ENDCHAR
STARTCHAR Ydieresis
ENCODING 376
SWIDTH 625 0
DWIDTH 6 0
BBX 5 9 1 0
BITMAP
50
00
D8
50
50
20
20
20
70
ENDCHAR
STARTCHAR Zcaron
ENCODING 381
SWIDTH 575 0
DWIDTH 6 0
BBX 5 9 0 0
BITMAP
58
20
78
88
10
20
20
48
F8
ENDCHAR
STARTCHAR zcaron
ENCODING 382
SWIDTH 461 0
DWIDTH 5 0
BBX 4 7 0 0
BITMAP
50
20
F0
A0
20
50
F0
ENDCHAR
STARTCHAR florin
ENCODING 402
SWIDTH 428 0
DWIDTH 4 0
BBX 6 9 -1 -2
BITMAP
1C
10
38
10
10
20
20
20
C0
ENDCHAR
STARTCHAR circumflex
ENCODING 710
SWIDTH 327 0
DWIDTH 3 0
BBX 3 1 0 6
BITMAP
E0
ENDCHAR
STARTCHAR caron
ENCODING 711
SWIDTH 327 0
DWIDTH 3 0
BBX 3 1 0 6
BITMAP
E0
ENDCHAR
STARTCHAR uni02C9
ENCODING 713
SWIDTH 334 0
DWIDTH 3 0
BBX 3 1 0 6
BITMAP
E0
ENDCHAR
STARTCHAR breve
ENCODING 728
SWIDTH 297 0
DWIDTH 3 0
BBX 3 1 0 6
BITMAP
E0
ENDCHAR
STARTCHAR dotaccent
ENCODING 729
SWIDTH 111 0
DWIDTH 1 0
BBX 1 1 0 6
BITMAP
80
ENDCHAR
STARTCHAR ring
ENCODING 730
SWIDTH 237 0
DWIDTH 4 0
BBX 3 3 0 5
BITMAP
E0
A0
E0
ENDCHAR
STARTCHAR ogonek
ENCODING 731
SWIDTH 186 0
DWIDTH 2 0
BBX 2 2 0 -2
BITMAP
80
C0
ENDCHAR
STARTCHAR tilde
ENCODING 732
SWIDTH 347 0
DWIDTH 3 0
BBX 3 2 0 5
BITMAP
E0
A0
ENDCHAR
STARTCHAR hungarumlaut
ENCODING 733
SWIDTH 426 0
DWIDTH 4 0
BBX 4 2 0 5
BITMAP
50
A0
ENDCHAR
STARTCHAR gravecomb
ENCODING 768
SWIDTH 0 0
DWIDTH 0 0
BBX 2 2 -6 7
BITMAP
80
40
ENDCHAR
STARTCHAR acutecomb
ENCODING 769
SWIDTH 0 0
DWIDTH 0 0
BBX 2 2 -5 7
BITMAP
40
80
ENDCHAR
STARTCHAR uni0302
ENCODING 770
SWIDTH 0 0
DWIDTH 0 0
BBX 3 1 -6 8
BITMAP
E0
ENDCHAR
STARTCHAR tildecomb
ENCODING 771
SWIDTH 0 0
DWIDTH 0 0
BBX 3 1 -6 8
BITMAP
E0
ENDCHAR
STARTCHAR uni0304
ENCODING 772
SWIDTH 0 0
DWIDTH 0 0
BBX 3 1 -6 8
BITMAP
E0
ENDCHAR
STARTCHAR uni0307
ENCODING 775
SWIDTH 0 0
DWIDTH 0 0
BBX 1 1 -5 8
BITMAP
80
ENDCHAR
STARTCHAR uni0308
ENCODING 776
SWIDTH 0 0
DWIDTH 0 0
BBX 2 2 -5 7
BITMAP
40
80
ENDCHAR
STARTCHAR uni030B
ENCODING 779
SWIDTH 0 0
DWIDTH 0 0
BBX 4 2 -6 8
BITMAP
50
A0
ENDCHAR
STARTCHAR uni030C
ENCODING 780
SWIDTH 0 0
DWIDTH 0 0
BBX 3 1 -6 8
BITMAP
E0
ENDCHAR
STARTCHAR uni030F
ENCODING 783
SWIDTH 0 0
DWIDTH 0 0
BBX 4 2 -7 8
BITMAP
A0
50
ENDCHAR
STARTCHAR pi
ENCODING 960
SWIDTH 594 0
DWIDTH 6 0
BBX 6 5 0 0
BITMAP
FC
D0
50
D4
D8
ENDCHAR
STARTCHAR uni1200
ENCODING 4608
SWIDTH 533 0
DWIDTH 5 0
BBX 4 6 1 0
BITMAP
90
90
90
90
A0
E0
ENDCHAR
STARTCHAR uni1201
ENCODING 4609
SWIDTH 779 0
DWIDTH 8 0
BBX 6 6 1 0
BITMAP
90
90
9C
90
B0
E0
ENDCHAR
STARTCHAR uni1202
ENCODING 4610
SWIDTH 606 0
DWIDTH 6 0
BBX 4 8 1 -1
BITMAP
90
90
A0
60
60
40
D0
30
ENDCHAR
STARTCHAR uni1203
ENCODING 4611
SWIDTH 500 0
DWIDTH 5 0
BBX 3 6 1 0
BITMAP
A0
A0
C0
40
C0
C0
ENDCHAR
STARTCHAR uni1204
ENCODING 4612
SWIDTH 565 0
DWIDTH 6 0
BBX 5 6 0 0
BITMAP
D0
D0
E0
38
68
70
ENDCHAR
STARTCHAR uni1205
ENCODING 4613
SWIDTH 553 0
DWIDTH 6 0
BBX 4 6 1 0
BITMAP
10
90
D0
90
90
E0
ENDCHAR
STARTCHAR uni1206
ENCODING 4614
SWIDTH 692 0
DWIDTH 7 0
BBX 6 6 1 0
BITMAP
BC
BC
B0
B0
B0
60
ENDCHAR
STARTCHAR uni1207
ENCODING 4615
SWIDTH 883 0
DWIDTH 9 0
BBX 8 6 1 0
BITMAP
2F
2F
EC
AC
2C
18
ENDCHAR
STARTCHAR uni1208
ENCODING 4616
SWIDTH 565 0
DWIDTH 6 0
BBX 4 6 1 0
BITMAP
40
60
A0
B0
B0
90
ENDCHAR
STARTCHAR uni1209
ENCODING 4617
SWIDTH 772 0
DWIDTH 8 0
BBX 6 6 1 0
BITMAP
40
60
BC
B0
B0
90
ENDCHAR
STARTCHAR uni120A
ENCODING 4618
SWIDTH 799 0
DWIDTH 8 0
BBX 7 7 1 -1
BITMAP
40
60
B0
B0
B0
BC
06
ENDCHAR
STARTCHAR uni120B
ENCODING 4619
SWIDTH 520 0
DWIDTH 5 0
BBX 4 6 1 0
BITMAP
40
60
A0
A0
20
30
ENDCHAR
STARTCHAR uni120C
ENCODING 4620
SWIDTH 720 0
DWIDTH 7 0
BBX 6 6 1 0
BITMAP
40
60
A0
BC
A4
B8
ENDCHAR
STARTCHAR uni120D
ENCODING 4621
SWIDTH 740 0
DWIDTH 7 0
BBX 7 6 0 0
BITMAP
30
38
4C
F4
94
66
ENDCHAR
STARTCHAR uni120E
ENCODING 4622
SWIDTH 859 0
DWIDTH 9 0
BBX 7 6 1 0
BITMAP
60
6E
BA
BE
B0
B0
ENDCHAR
STARTCHAR uni120F
ENCODING 4623
SWIDTH 706 0
DWIDTH 7 0
BBX 5 8 1 -1
BITMAP
40
60
A0
A0
A0
20
D8
80
ENDCHAR
STARTCHAR uni1210
ENCODING 4624
SWIDTH 792 0
DWIDTH 8 0
BBX 7 6 0 0
BITMAP
18
10
7C
D6
96
9E
ENDCHAR
STARTCHAR uni1211
ENCODING 4625
SWIDTH 973 0
DWIDTH 10 0
BBX 8 6 1 0
BITMAP
10
10
7C
A5
A7
A6
ENDCHAR
STARTCHAR uni1212
ENCODING 4626
SWIDTH 1025 0
DWIDTH 10 0
BBX 8 7 1 -1
BITMAP
10
10
7C
AC
A4
A5
03
ENDCHAR
STARTCHAR uni1213
ENCODING 4627
SWIDTH 772 0
DWIDTH 8 0
BBX 7 6 0 0
BITMAP
10
10
7C
94
9E
06
ENDCHAR
STARTCHAR uni1214
ENCODING 4628
SWIDTH 959 0
DWIDTH 10 0
BBX 8 6 1 0
BITMAP
10
10
7C
AC
AF
AF
ENDCHAR
STARTCHAR uni1215
ENCODING 4629
SWIDTH 799 0
DWIDTH 8 0
BBX 5 6 1 0
BITMAP
40
60
40
F8
D8
D8
ENDCHAR
STARTCHAR uni1216
ENCODING 4630
SWIDTH 792 0
DWIDTH 8 0
BBX 5 6 1 0
BITMAP
20
20
38
68
A8
80
ENDCHAR
STARTCHAR uni1217
ENCODING 4631
SWIDTH 975 0
DWIDTH 10 0
BBX 8 8 1 -1
BITMAP
20
20
38
68
A8
AC
33
20
ENDCHAR
STARTCHAR uni1218
ENCODING 4632
SWIDTH 933 0
DWIDTH 9 0
BBX 8 5 1 1
BITMAP
3F
FD
B9
AE
E0
ENDCHAR
STARTCHAR uni1219
ENCODING 4633
SWIDTH 1160 0
DWIDTH 12 0
BBX 10 5 1 1
BITMAP
7F00
B940
B9C0
AE00
E000
ENDCHAR
STARTCHAR uni121A
ENCODING 4634
SWIDTH 985 0
DWIDTH 10 0
BBX 9 7 1 -1
BITMAP
7E00
AA00
E600
0200
0400
0580
0380
ENDCHAR
STARTCHAR uni121B
ENCODING 4635
SWIDTH 819 0
DWIDTH 8 0
BBX 7 6 1 0
BITMAP
7E
AA
E6
02
04
04
ENDCHAR
STARTCHAR uni121C
ENCODING 4636
SWIDTH 933 0
DWIDTH 9 0
BBX 8 6 1 0
BITMAP
7E
AA
E6
02
05
07
ENDCHAR
STARTCHAR uni121D
ENCODING 4637
SWIDTH 853 0
DWIDTH 9 0
BBX 7 6 1 0
BITMAP
7E
AA
EE
60
40
80
ENDCHAR
STARTCHAR uni121E
ENCODING 4638
SWIDTH 833 0
DWIDTH 9 0
BBX 8 6 0 0
BITMAP
7F
B5
F6
30
20
30
ENDCHAR
STARTCHAR uni121F
ENCODING 4639
SWIDTH 932 0
DWIDTH 10 0
BBX 8 7 1 -1
BITMAP
7E
D2
CE
04
0C
0F
31
ENDCHAR
STARTCHAR uni1220
ENCODING 4640
SWIDTH 766 0
DWIDTH 8 0
BBX 6 4 1 1
BITMAP
94
94
B8
E0
ENDCHAR
STARTCHAR uni1221
ENCODING 4641
SWIDTH 1000 0
DWIDTH 10 0
BBX 8 4 1 1
BITMAP
95
97
B8
E0
ENDCHAR
STARTCHAR uni1222
ENCODING 4642
SWIDTH 919 0
DWIDTH 9 0
BBX 8 6 1 0
BITMAP
24
A4
FC
08
08
0F
ENDCHAR
STARTCHAR uni1223
ENCODING 4643
SWIDTH 706 0
DWIDTH 7 0
BBX 6 6 1 0
BITMAP
A4
B4
EC
08
08
08
ENDCHAR
STARTCHAR uni1224
ENCODING 4644
SWIDTH 853 0
DWIDTH 9 0
BBX 7 6 1 0
BITMAP
24
A4
DC
1C
1E
1E
ENDCHAR
STARTCHAR uni1225
ENCODING 4645
SWIDTH 959 0
DWIDTH 10 0
BBX 8 5 1 0
BITMAP
35
27
78
C0
80
ENDCHAR
STARTCHAR uni1226
ENCODING 4646
SWIDTH 726 0
DWIDTH 7 0
BBX 6 5 1 0
BITMAP
B4
B8
40
C0
80
ENDCHAR
STARTCHAR uni1227
ENCODING 4647
SWIDTH 879 0
DWIDTH 9 0
BBX 8 8 1 -1
BITMAP
04
A4
F4
0C
0C
1C
7F
41
ENDCHAR
STARTCHAR uni1228
ENCODING 4648
SWIDTH 580 0
DWIDTH 6 0
BBX 6 6 0 0
BITMAP
08
10
20
C0
8C
FC
ENDCHAR
STARTCHAR uni1229
ENCODING 4649
SWIDTH 686 0
DWIDTH 7 0
BBX 5 6 1 0
BITMAP
20
40
80
F8
20
20
ENDCHAR
STARTCHAR uni122A
ENCODING 4650
SWIDTH 573 0
DWIDTH 6 0
BBX 4 6 1 0
BITMAP
10
20
40
90
90
E0
ENDCHAR
STARTCHAR uni122B
ENCODING 4651
SWIDTH 752 0
DWIDTH 8 0
BBX 6 6 1 0
BITMAP
20
20
40
9C
A0
C0
ENDCHAR
STARTCHAR uni122C
ENCODING 4652
SWIDTH 692 0
DWIDTH 7 0
BBX 5 6 1 0
BITMAP
10
10
60
98
A8
F8
ENDCHAR
STARTCHAR uni122D
ENCODING 4653
SWIDTH 585 0
DWIDTH 6 0
BBX 5 6 0 0
BITMAP
38
C0
80
80
98
F8
ENDCHAR
STARTCHAR uni122E
ENCODING 4654
SWIDTH 680 0
DWIDTH 7 0
BBX 5 6 1 0
BITMAP
78
A8
B0
80
90
F0
ENDCHAR
STARTCHAR uni122F
ENCODING 4655
SWIDTH 758 0
DWIDTH 8 0
BBX 6 6 1 0
BITMAP
FC
20
40
80
BC
C0
ENDCHAR
STARTCHAR uni1230
ENCODING 4656
SWIDTH 553 0
DWIDTH 6 0
BBX 3 7 1 0
BITMAP
40
60
A0
A0
A0
A0
A0
ENDCHAR
STARTCHAR uni1231
ENCODING 4657
SWIDTH 752 0
DWIDTH 8 0
BBX 5 7 1 0
BITMAP
40
60
A0
A8
B8
A0
A0
ENDCHAR
STARTCHAR uni1232
ENCODING 4658
SWIDTH 786 0
DWIDTH 8 0
BBX 6 8 1 -1
BITMAP
40
40
A0
A0
A0
A0
A8
1C
ENDCHAR
STARTCHAR uni1233
ENCODING 4659
SWIDTH 553 0
DWIDTH 6 0
BBX 3 7 1 0
BITMAP
40
60
A0
A0
A0
20
20
ENDCHAR
STARTCHAR uni1234
ENCODING 4660
SWIDTH 700 0
DWIDTH 7 0
BBX 5 7 1 0
BITMAP
40
60
A0
A0
A0
B8
B8
ENDCHAR
STARTCHAR uni1235
ENCODING 4661
SWIDTH 553 0
DWIDTH 6 0
BBX 4 7 1 0
BITMAP
80
E0
90
90
90
90
90
ENDCHAR
STARTCHAR uni1236
ENCODING 4662
SWIDTH 565 0
DWIDTH 6 0
BBX 3 7 1 0
BITMAP
40
60
A0
A0
A0
80
80
ENDCHAR
STARTCHAR uni1237
ENCODING 4663
SWIDTH 700 0
DWIDTH 7 0
BBX 5 8 1 -1
BITMAP
40
60
A0
A0
A0
20
F8
88
ENDCHAR
STARTCHAR uni1238
ENCODING 4664
SWIDTH 640 0
DWIDTH 6 0
BBX 6 7 1 0
BITMAP
F8
A8
E4
90
90
90
98
ENDCHAR
STARTCHAR uni1239
ENCODING 4665
SWIDTH 766 0
DWIDTH 8 0
BBX 7 7 1 0
BITMAP
FC
A0
50
94
9A
90
80
ENDCHAR
STARTCHAR uni123A
ENCODING 4666
SWIDTH 766 0
DWIDTH 8 0
BBX 6 8 1 -1
BITMAP
F8
A0
E0
A0
A0
A0
AC
1C
ENDCHAR
STARTCHAR uni123B
ENCODING 4667
SWIDTH 646 0
DWIDTH 6 0
BBX 6 7 0 0
BITMAP
FC
70
D0
50
50
10
10
ENDCHAR
STARTCHAR uni123C
ENCODING 4668
SWIDTH 726 0
DWIDTH 7 0
BBX 6 7 1 0
BITMAP
FC
A0
50
90
90
9C
9C
ENDCHAR
STARTCHAR uni123D
ENCODING 4669
SWIDTH 640 0
DWIDTH 7 0
BBX 6 7 0 0
BITMAP
CC
F4
2C
24
24
24
24
ENDCHAR
STARTCHAR uni123E
ENCODING 4670
SWIDTH 660 0
DWIDTH 7 0
BBX 6 7 1 0
BITMAP
FC
A0
50
90
90
80
80
ENDCHAR
STARTCHAR uni123F
ENCODING 4671
SWIDTH 738 0
DWIDTH 7 0
BBX 6 8 0 -1
BITMAP
F8
38
50
50
50
50
1C
64
ENDCHAR
STARTCHAR uni1240
ENCODING 4672
SWIDTH 660 0
DWIDTH 7 0
BBX 5 7 1 0
BITMAP
40
78
E8
B0
C0
40
40
ENDCHAR
STARTCHAR uni1241
ENCODING 4673
SWIDTH 680 0
DWIDTH 7 0
BBX 5 7 1 0
BITMAP
40
78
E8
F0
58
78
40
ENDCHAR
STARTCHAR uni1242
ENCODING 4674
SWIDTH 659 0
DWIDTH 7 0
BBX 5 8 1 -1
BITMAP
40
78
E8
A8
D0
40
58
38
ENDCHAR
STARTCHAR uni1243
ENCODING 4675
SWIDTH 792 0
DWIDTH 8 0
BBX 6 6 1 0
BITMAP
10
1C
74
78
20
C0
ENDCHAR
STARTCHAR uni1244
ENCODING 4676
SWIDTH 666 0
DWIDTH 7 0
BBX 5 7 1 0
BITMAP
40
78
E8
B0
C0
60
60
ENDCHAR
STARTCHAR uni1245
ENCODING 4677
SWIDTH 660 0
DWIDTH 7 0
BBX 5 7 1 0
BITMAP
C0
A0
78
A8
D0
40
40
ENDCHAR
STARTCHAR uni1246
ENCODING 4678
SWIDTH 652 0
DWIDTH 7 0
BBX 5 7 1 0
BITMAP
30
50
60
78
E8
D0
60
ENDCHAR
STARTCHAR uni1247
ENCODING 4679
SWIDTH 652 0
DWIDTH 7 0
BBX 5 9 1 -2
BITMAP
30
50
70
68
F8
E0
60
80
80
ENDCHAR
STARTCHAR uni1248
ENCODING 4680
SWIDTH 720 0
DWIDTH 7 0
BBX 7 7 0 0
BITMAP
20
38
FC
B4
EE
3A
2E
ENDCHAR
STARTCHAR uni124A
ENCODING 4682
SWIDTH 1046 0
DWIDTH 11 0
BBX 9 6 1 0
BITMAP
2000
7B00
AF00
F880
2000
2000
ENDCHAR
STARTCHAR uni124B
ENCODING 4683
SWIDTH 626 0
DWIDTH 6 0
BBX 5 7 1 0
BITMAP
20
78
B8
F0
20
F0
10
ENDCHAR
STARTCHAR uni124C
ENCODING 4684
SWIDTH 692 0
DWIDTH 7 0
BBX 5 8 1 -1
BITMAP
10
70
A8
F8
38
38
F8
80
ENDCHAR
STARTCHAR uni124D
ENCODING 4685
SWIDTH 986 0
DWIDTH 10 0
BBX 9 7 0 0
BITMAP
2000
2100
FD80
BA80
E000
2000
2000
ENDCHAR
STARTCHAR uni1250
ENCODING 4688
SWIDTH 679 0
DWIDTH 7 0
BBX 6 8 1 0
BITMAP
08
D8
E4
78
A8
F0
20
20
ENDCHAR
STARTCHAR uni1251
ENCODING 4689
SWIDTH 699 0
DWIDTH 7 0
BBX 6 8 1 0
BITMAP
08
F8
A4
78
B0
E8
38
20
ENDCHAR
STARTCHAR uni1252
ENCODING 4690
SWIDTH 680 0
DWIDTH 7 0
BBX 6 9 1 -1
BITMAP
08
F8
E4
78
A8
F0
20
28
18
ENDCHAR
STARTCHAR uni1253
ENCODING 4691
SWIDTH 792 0
DWIDTH 8 0
BBX 7 8 1 -1
BITMAP
5E
F6
9E
72
7C
20
C0
80
ENDCHAR
STARTCHAR uni1254
ENCODING 4692
SWIDTH 679 0
DWIDTH 8 0
BBX 6 8 1 0
BITMAP
08
F8
A0
7C
B4
E8
38
38
ENDCHAR
STARTCHAR uni1255
ENCODING 4693
SWIDTH 752 0
DWIDTH 8 0
BBX 7 10 0 -1
BITMAP
06
DC
72
08
0E
3A
5C
70
10
10
ENDCHAR
STARTCHAR uni1256
ENCODING 4694
SWIDTH 740 0
DWIDTH 7 0
BBX 7 9 1 0
BITMAP
02
06
F8
D0
60
78
A8
D0
40
ENDCHAR
STARTCHAR uni1258
ENCODING 4696
SWIDTH 720 0
DWIDTH 7 0
BBX 7 8 0 0
BITMAP
04
FE
FC
B4
B4
7E
2A
2E
ENDCHAR
STARTCHAR uni125A
ENCODING 4698
SWIDTH 1046 0
DWIDTH 11 0
BBX 9 8 1 0
BITMAP
0800
F800
F000
7B00
AF00
F880
2000
2000
ENDCHAR
STARTCHAR uni125B
ENCODING 4699
SWIDTH 645 0
DWIDTH 7 0
BBX 5 8 1 0
BITMAP
08
F8
F8
B8
F0
20
F0
10
ENDCHAR
STARTCHAR uni125C
ENCODING 4700
SWIDTH 712 0
DWIDTH 7 0
BBX 5 9 1 -1
BITMAP
08
F8
F0
A8
F8
38
38
40
80
ENDCHAR
STARTCHAR uni125D
ENCODING 4701
SWIDTH 985 0
DWIDTH 10 0
BBX 9 8 0 0
BITMAP
0400
FC00
FD00
B780
B880
7800
2000
2000
ENDCHAR
STARTCHAR uni1260
ENCODING 4704
SWIDTH 533 0
DWIDTH 5 0
BBX 3 6 1 0
BITMAP
60
A0
A0
A0
A0
A0
ENDCHAR
STARTCHAR uni1261
ENCODING 4705
SWIDTH 759 0
DWIDTH 8 0
BBX 6 6 1 0
BITMAP
60
AC
B8
A4
A0
A0
ENDCHAR
STARTCHAR uni1262
ENCODING 4706
SWIDTH 759 0
DWIDTH 8 0
BBX 6 7 1 -1
BITMAP
60
A0
A0
A0
A0
AC
1C
ENDCHAR
STARTCHAR uni1263
ENCODING 4707
SWIDTH 533 0
DWIDTH 5 0
BBX 3 6 1 0
BITMAP
60
A0
A0
A0
A0
20
ENDCHAR
STARTCHAR uni1264
ENCODING 4708
SWIDTH 726 0
DWIDTH 7 0
BBX 6 6 1 0
BITMAP
60
A0
A0
A0
BC
BC
ENDCHAR
STARTCHAR uni1265
ENCODING 4709
SWIDTH 732 0
DWIDTH 7 0
BBX 5 6 1 0
BITMAP
38
28
E8
A8
28
28
ENDCHAR
STARTCHAR uni1266
ENCODING 4710
SWIDTH 533 0
DWIDTH 5 0
BBX 3 6 1 0
BITMAP
60
A0
A0
A0
A0
80
ENDCHAR
STARTCHAR uni1267
ENCODING 4711
SWIDTH 720 0
DWIDTH 7 0
BBX 5 7 1 -1
BITMAP
60
A0
A0
A0
A0
38
C0
ENDCHAR
STARTCHAR uni1268
ENCODING 4712
SWIDTH 632 0
DWIDTH 6 0
BBX 6 7 1 0
BITMAP
FC
EC
70
90
90
90
90
ENDCHAR
STARTCHAR uni1269
ENCODING 4713
SWIDTH 799 0
DWIDTH 8 0
BBX 7 7 1 0
BITMAP
FC
EC
70
96
9E
90
90
ENDCHAR
STARTCHAR uni126A
ENCODING 4714
SWIDTH 799 0
DWIDTH 8 0
BBX 6 8 1 -1
BITMAP
F8
E8
70
90
90
90
94
0C
ENDCHAR
STARTCHAR uni126B
ENCODING 4715
SWIDTH 632 0
DWIDTH 6 0
BBX 6 7 1 0
BITMAP
FC
EC
70
90
90
90
10
ENDCHAR
STARTCHAR uni126C
ENCODING 4716
SWIDTH 753 0
DWIDTH 8 0
BBX 6 7 1 0
BITMAP
F8
E8
70
90
90
9C
9C
ENDCHAR
STARTCHAR uni126D
ENCODING 4717
SWIDTH 806 0
DWIDTH 8 0
BBX 7 7 1 0
BITMAP
7E
76
1C
64
C4
C4
44
ENDCHAR
STARTCHAR uni126E
ENCODING 4718
SWIDTH 632 0
DWIDTH 6 0
BBX 6 7 1 0
BITMAP
FC
EC
60
90
90
90
80
ENDCHAR
STARTCHAR uni126F
ENCODING 4719
SWIDTH 769 0
DWIDTH 8 0
BBX 6 8 1 -1
BITMAP
FC
EC
70
90
90
90
1C
E0
ENDCHAR
STARTCHAR uni1270
ENCODING 4720
SWIDTH 725 0
DWIDTH 8 0
BBX 6 6 1 0
BITMAP
20
20
FC
A0
20
20
ENDCHAR
STARTCHAR uni1271
ENCODING 4721
SWIDTH 725 0
DWIDTH 8 0
BBX 6 6 1 0
BITMAP
20
20
FC
B4
2C
20
ENDCHAR
STARTCHAR uni1272
ENCODING 4722
SWIDTH 725 0
DWIDTH 8 0
BBX 6 7 1 -1
BITMAP
20
20
FC
A0
20
2C
1C
ENDCHAR
STARTCHAR uni1273
ENCODING 4723
SWIDTH 826 0
DWIDTH 9 0
BBX 7 8 1 -1
BITMAP
10
10
7E
50
90
30
E0
80
ENDCHAR
STARTCHAR uni1274
ENCODING 4724
SWIDTH 725 0
DWIDTH 7 0
BBX 5 6 1 0
BITMAP
20
20
F8
A0
38
38
ENDCHAR
STARTCHAR uni1275
ENCODING 4725
SWIDTH 725 0
DWIDTH 8 0
BBX 6 7 1 0
BITMAP
40
20
20
FC
A0
20
20
ENDCHAR
STARTCHAR uni1276
ENCODING 4726
SWIDTH 707 0
DWIDTH 7 0
BBX 6 7 1 0
BITMAP
70
50
60
F8
C8
44
60
ENDCHAR
STARTCHAR uni1277
ENCODING 4727
SWIDTH 766 0
DWIDTH 8 0
BBX 6 7 1 -1
BITMAP
30
30
FC
30
20
FC
80
ENDCHAR
STARTCHAR uni1278
ENCODING 4728
SWIDTH 712 0
DWIDTH 7 0
BBX 6 7 0 0
BITMAP
DC
7C
90
FC
20
20
20
ENDCHAR
STARTCHAR uni1279
ENCODING 4729
SWIDTH 712 0
DWIDTH 7 0
BBX 6 7 0 0
BITMAP
DC
7C
90
EC
28
38
24
ENDCHAR
STARTCHAR uni127A
ENCODING 4730
SWIDTH 712 0
DWIDTH 7 0
BBX 6 8 0 -1
BITMAP
DC
7C
90
FC
20
20
2C
1C
ENDCHAR
STARTCHAR uni127B
ENCODING 4731
SWIDTH 746 0
DWIDTH 8 0
BBX 6 8 1 -1
BITMAP
DC
7C
94
FC
30
20
C0
80
ENDCHAR
STARTCHAR uni127C
ENCODING 4732
SWIDTH 712 0
DWIDTH 8 0
BBX 6 7 1 0
BITMAP
DC
7C
90
FC
30
38
38
ENDCHAR
STARTCHAR uni127D
ENCODING 4733
SWIDTH 740 0
DWIDTH 7 0
BBX 6 8 0 0
BITMAP
C8
30
10
3C
74
10
10
10
ENDCHAR
STARTCHAR uni127E
ENCODING 4734
SWIDTH 726 0
DWIDTH 8 0
BBX 6 8 1 0
BITMAP
04
D8
F0
60
BC
C4
40
60
ENDCHAR
STARTCHAR uni127F
ENCODING 4735
SWIDTH 751 0
DWIDTH 8 0
BBX 6 8 1 -1
BITMAP
C4
7C
90
FC
20
20
F8
84
ENDCHAR
STARTCHAR uni1280
ENCODING 4736
SWIDTH 625 0
DWIDTH 6 0
BBX 6 6 0 0
BITMAP
18
78
44
8C
0C
0C
ENDCHAR
STARTCHAR uni1281
ENCODING 4737
SWIDTH 859 0
DWIDTH 9 0
BBX 7 6 1 0
BITMAP
30
F0
88
0E
08
18
ENDCHAR
STARTCHAR uni1282
ENCODING 4738
SWIDTH 772 0
DWIDTH 8 0
BBX 7 7 1 -1
BITMAP
10
F0
C8
08
10
14
0E
ENDCHAR
STARTCHAR uni1283
ENCODING 4739
SWIDTH 652 0
DWIDTH 7 0
BBX 5 6 1 0
BITMAP
30
F0
88
08
70
80
ENDCHAR
STARTCHAR uni1284
ENCODING 4740
SWIDTH 806 0
DWIDTH 8 0
BBX 7 6 1 0
BITMAP
30
F0
88
08
0E
1E
ENDCHAR
STARTCHAR uni1285
ENCODING 4741
SWIDTH 565 0
DWIDTH 6 0
BBX 5 6 1 0
BITMAP
20
E0
98
10
10
10
ENDCHAR
STARTCHAR uni1286
ENCODING 4742
SWIDTH 886 0
DWIDTH 9 0
BBX 7 6 1 0
BITMAP
06
7E
B8
08
08
08
ENDCHAR
STARTCHAR uni1287
ENCODING 4743
SWIDTH 886 0
DWIDTH 9 0
BBX 7 8 1 -2
BITMAP
06
7E
B8
08
08
18
20
20
ENDCHAR
STARTCHAR uni1288
ENCODING 4744
SWIDTH 973 0
DWIDTH 10 0
BBX 9 6 0 0
BITMAP
1000
7800
8F80
1A80
1B80
1800
ENDCHAR
STARTCHAR uni128A
ENCODING 4746
SWIDTH 973 0
DWIDTH 10 0
BBX 9 6 1 0
BITMAP
2000
FE00
9C00
3400
3700
3080
ENDCHAR
STARTCHAR uni128B
ENCODING 4747
SWIDTH 640 0
DWIDTH 7 0
BBX 5 7 1 0
BITMAP
20
E0
98
10
30
C8
08
ENDCHAR
STARTCHAR uni128C
ENCODING 4748
SWIDTH 712 0
DWIDTH 8 0
BBX 6 7 1 0
BITMAP
30
E0
98
1C
14
1C
60
ENDCHAR
STARTCHAR uni128D
ENCODING 4749
SWIDTH 934 0
DWIDTH 9 0
BBX 7 6 1 0
BITMAP
20
F0
9C
32
20
20
ENDCHAR
STARTCHAR uni1290
ENCODING 4752
SWIDTH 386 0
DWIDTH 4 0
BBX 4 6 0 0
BITMAP
C0
40
B0
20
60
60
ENDCHAR
STARTCHAR uni1291
ENCODING 4753
SWIDTH 565 0
DWIDTH 6 0
BBX 4 6 1 0
BITMAP
80
80
60
50
40
C0
ENDCHAR
STARTCHAR uni1292
ENCODING 4754
SWIDTH 505 0
DWIDTH 5 0
BBX 4 7 1 -1
BITMAP
80
80
40
40
80
E0
30
ENDCHAR
STARTCHAR uni1293
ENCODING 4755
SWIDTH 573 0
DWIDTH 6 0
BBX 4 6 1 0
BITMAP
70
90
A0
E0
20
20
ENDCHAR
STARTCHAR uni1294
ENCODING 4756
SWIDTH 500 0
DWIDTH 5 0
BBX 4 6 0 0
BITMAP
C0
C0
60
40
F0
F0
ENDCHAR
STARTCHAR uni1295
ENCODING 4757
SWIDTH 545 0
DWIDTH 5 0
BBX 4 6 1 0
BITMAP
E0
A0
50
30
20
60
ENDCHAR
STARTCHAR uni1296
ENCODING 4758
SWIDTH 660 0
DWIDTH 7 0
BBX 5 7 1 0
BITMAP
18
68
B8
E0
20
20
20
ENDCHAR
STARTCHAR uni1297
ENCODING 4759
SWIDTH 600 0
DWIDTH 6 0
BBX 4 8 1 -1
BITMAP
70
80
80
E0
20
20
D0
80
ENDCHAR
STARTCHAR uni1298
ENCODING 4760
SWIDTH 666 0
DWIDTH 7 0
BBX 7 7 0 0
BITMAP
C4
3A
38
08
18
10
10
ENDCHAR
STARTCHAR uni1299
ENCODING 4761
SWIDTH 772 0
DWIDTH 8 0
BBX 7 7 0 0
BITMAP
C6
BA
10
2A
1E
18
10
ENDCHAR
STARTCHAR uni129A
ENCODING 4762
SWIDTH 692 0
DWIDTH 7 0
BBX 7 8 0 -1
BITMAP
C4
3A
30
08
18
10
14
0E
ENDCHAR
STARTCHAR uni129B
ENCODING 4763
SWIDTH 652 0
DWIDTH 6 0
BBX 6 7 0 0
BITMAP
FC
3C
C8
E0
20
20
60
ENDCHAR
STARTCHAR uni129C
ENCODING 4764
SWIDTH 679 0
DWIDTH 7 0
BBX 6 7 0 0
BITMAP
DC
F4
38
08
18
1C
3C
ENDCHAR
STARTCHAR uni129D
ENCODING 4765
SWIDTH 640 0
DWIDTH 7 0
BBX 5 8 1 0
BITMAP
88
F0
A0
B8
08
08
10
18
ENDCHAR
STARTCHAR uni129E
ENCODING 4766
SWIDTH 712 0
DWIDTH 7 0
BBX 7 8 0 0
BITMAP
D8
7E
3E
4E
40
70
10
30
ENDCHAR
STARTCHAR uni129F
ENCODING 4767
SWIDTH 631 0
DWIDTH 7 0
BBX 5 8 1 -1
BITMAP
F8
60
90
A8
E0
20
20
D8
ENDCHAR
STARTCHAR uni12A0
ENCODING 4768
SWIDTH 612 0
DWIDTH 6 0
BBX 5 7 1 0
BITMAP
80
C0
60
70
90
90
98
ENDCHAR
STARTCHAR uni12A1
ENCODING 4769
SWIDTH 853 0
DWIDTH 9 0
BBX 7 7 1 0
BITMAP
80
C0
60
70
9E
96
98
ENDCHAR
STARTCHAR uni12A2
ENCODING 4770
SWIDTH 859 0
DWIDTH 9 0
BBX 7 8 1 -1
BITMAP
80
C0
60
70
90
90
96
0E
ENDCHAR
STARTCHAR uni12A3
ENCODING 4771
SWIDTH 632 0
DWIDTH 6 0
BBX 5 7 1 0
BITMAP
80
C0
60
70
90
90
18
ENDCHAR
STARTCHAR uni12A4
ENCODING 4772
SWIDTH 720 0
DWIDTH 7 0
BBX 6 6 1 0
BITMAP
C0
40
60
B0
9C
9C
ENDCHAR
STARTCHAR uni12A5
ENCODING 4773
SWIDTH 600 0
DWIDTH 6 0
BBX 5 7 0 0
BITMAP
C0
20
60
30
58
58
48
ENDCHAR
STARTCHAR uni12A6
ENCODING 4774
SWIDTH 600 0
DWIDTH 6 0
BBX 4 6 1 0
BITMAP
C0
60
70
90
90
80
ENDCHAR
STARTCHAR uni12A7
ENCODING 4775
SWIDTH 671 0
DWIDTH 7 0
BBX 6 8 0 0
BITMAP
88
F0
20
30
28
38
48
4C
ENDCHAR
STARTCHAR uni12A8
ENCODING 4776
SWIDTH 565 0
DWIDTH 6 0
BBX 4 7 1 0
BITMAP
80
F0
90
90
90
90
90
ENDCHAR
STARTCHAR uni12A9
ENCODING 4777
SWIDTH 779 0
DWIDTH 8 0
BBX 7 7 1 0
BITMAP
80
F0
90
94
9C
92
90
ENDCHAR
STARTCHAR uni12AA
ENCODING 4778
SWIDTH 792 0
DWIDTH 8 0
BBX 7 8 1 -1
BITMAP
80
F0
90
90
90
90
94
0E
ENDCHAR
STARTCHAR uni12AB
ENCODING 4779
SWIDTH 565 0
DWIDTH 6 0
BBX 4 7 1 0
BITMAP
80
F0
90
90
90
50
10
ENDCHAR
STARTCHAR uni12AC
ENCODING 4780
SWIDTH 779 0
DWIDTH 8 0
BBX 7 7 0 0
BITMAP
C0
F8
C8
48
48
4E
4E
ENDCHAR
STARTCHAR uni12AD
ENCODING 4781
SWIDTH 600 0
DWIDTH 6 0
BBX 4 7 1 0
BITMAP
80
80
F0
90
D0
90
90
ENDCHAR
STARTCHAR uni12AE
ENCODING 4782
SWIDTH 553 0
DWIDTH 6 0
BBX 4 7 1 0
BITMAP
80
F0
90
90
90
80
80
ENDCHAR
STARTCHAR uni12AF
ENCODING 4783
SWIDTH 729 0
DWIDTH 8 0
BBX 6 7 1 0
BITMAP
40
7C
A4
44
C4
C0
40
ENDCHAR
STARTCHAR uni12B0
ENCODING 4784
SWIDTH 866 0
DWIDTH 9 0
BBX 8 7 0 0
BITMAP
C0
70
48
4F
4D
4F
48
ENDCHAR
STARTCHAR uni12B2
ENCODING 4786
SWIDTH 934 0
DWIDTH 9 0
BBX 7 7 1 0
BITMAP
80
E0
A0
A8
B8
AE
A2
ENDCHAR
STARTCHAR uni12B3
ENCODING 4787
SWIDTH 720 0
DWIDTH 7 0
BBX 5 7 1 0
BITMAP
80
F0
90
90
10
78
48
ENDCHAR
STARTCHAR uni12B4
ENCODING 4788
SWIDTH 706 0
DWIDTH 7 0
BBX 7 8 0 -1
BITMAP
C0
F8
48
48
4E
4A
3E
20
ENDCHAR
STARTCHAR uni12B5
ENCODING 4789
SWIDTH 786 0
DWIDTH 8 0
BBX 8 7 0 0
BITMAP
C4
7F
48
48
48
48
48
ENDCHAR
STARTCHAR uni12B8
ENCODING 4792
SWIDTH 712 0
DWIDTH 7 0
BBX 5 7 1 0
BITMAP
F8
B8
28
28
28
28
28
ENDCHAR
STARTCHAR uni12B9
ENCODING 4793
SWIDTH 934 0
DWIDTH 10 0
BBX 8 7 1 0
BITMAP
F8
B8
28
2F
28
28
28
ENDCHAR
STARTCHAR uni12BA
ENCODING 4794
SWIDTH 945 0
DWIDTH 9 0
BBX 8 7 1 0
BITMAP
F8
B8
28
28
28
28
2F
ENDCHAR
STARTCHAR uni12BB
ENCODING 4795
SWIDTH 712 0
DWIDTH 7 0
BBX 5 7 1 0
BITMAP
F8
B8
28
28
28
28
08
ENDCHAR
STARTCHAR uni12BC
ENCODING 4796
SWIDTH 893 0
DWIDTH 9 0
BBX 7 7 1 0
BITMAP
F8
A8
38
28
28
2E
2E
ENDCHAR
STARTCHAR uni12BD
ENCODING 4797
SWIDTH 792 0
DWIDTH 8 0
BBX 7 7 0 0
BITMAP
FC
F0
3E
12
3A
12
32
ENDCHAR
STARTCHAR uni12BE
ENCODING 4798
SWIDTH 732 0
DWIDTH 8 0
BBX 6 7 1 0
BITMAP
F8
AC
34
24
24
20
20
ENDCHAR
STARTCHAR uni12C0
ENCODING 4800
SWIDTH 1065 0
DWIDTH 11 0
BBX 10 7 0 0
BITMAP
FC00
FC00
3400
17C0
1540
15C0
1400
ENDCHAR
STARTCHAR uni12C2
ENCODING 4802
SWIDTH 1139 0
DWIDTH 11 0
BBX 10 7 0 0
BITMAP
FC00
FC00
3400
1700
1500
14C0
1400
ENDCHAR
STARTCHAR uni12C3
ENCODING 4803
SWIDTH 807 0
DWIDTH 8 0
BBX 6 9 1 -1
BITMAP
90
60
50
28
48
48
08
1C
64
ENDCHAR
STARTCHAR uni12C4
ENCODING 4804
SWIDTH 905 0
DWIDTH 9 0
BBX 8 9 0 -2
BITMAP
FC
FE
32
12
12
13
13
1C
10
ENDCHAR
STARTCHAR uni12C5
ENCODING 4805
SWIDTH 1040 0
DWIDTH 11 0
BBX 10 7 0 0
BITMAP
FC00
FF00
37C0
1440
1400
1400
1400
ENDCHAR
STARTCHAR uni12C8
ENCODING 4808
SWIDTH 700 0
DWIDTH 7 0
BBX 6 5 0 1
BITMAP
7C
B4
B4
B4
FC
ENDCHAR
STARTCHAR uni12C9
ENCODING 4809
SWIDTH 893 0
DWIDTH 8 0
BBX 8 5 0 1
BITMAP
7C
B4
B4
B7
FB
ENDCHAR
STARTCHAR uni12CA
ENCODING 4810
SWIDTH 666 0
DWIDTH 7 0
BBX 6 7 0 -1
BITMAP
FC
B4
FC
30
30
3C
0C
ENDCHAR
STARTCHAR uni12CB
ENCODING 4811
SWIDTH 652 0
DWIDTH 7 0
BBX 6 6 0 0
BITMAP
FC
B4
FC
30
30
30
ENDCHAR
STARTCHAR uni12CC
ENCODING 4812
SWIDTH 652 0
DWIDTH 7 0
BBX 5 6 1 0
BITMAP
F8
A8
F8
38
28
38
ENDCHAR
STARTCHAR uni12CD
ENCODING 4813
SWIDTH 939 0
DWIDTH 9 0
BBX 8 5 0 1
BITMAP
7C
B5
B7
B4
F8
ENDCHAR
STARTCHAR uni12CE
ENCODING 4814
SWIDTH 726 0
DWIDTH 7 0
BBX 6 7 1 0
BITMAP
7C
B4
B4
F8
40
80
80
ENDCHAR
STARTCHAR uni12CF
ENCODING 4815
SWIDTH 906 0
DWIDTH 9 0
BBX 8 7 1 0
BITMAP
1F
2D
ED
BE
10
20
20
ENDCHAR
STARTCHAR uni12D0
ENCODING 4816
SWIDTH 545 0
DWIDTH 6 0
BBX 5 6 0 0
BITMAP
38
48
88
88
98
F8
ENDCHAR
STARTCHAR uni12D1
ENCODING 4817
SWIDTH 786 0
DWIDTH 8 0
BBX 6 6 1 0
BITMAP
70
D0
9C
94
90
E0
ENDCHAR
STARTCHAR uni12D2
ENCODING 4818
SWIDTH 786 0
DWIDTH 8 0
BBX 7 7 0 -1
BITMAP
70
90
F8
08
18
1A
06
ENDCHAR
STARTCHAR uni12D3
ENCODING 4819
SWIDTH 586 0
DWIDTH 5 0
BBX 5 6 0 0
BITMAP
70
90
F0
08
18
18
ENDCHAR
STARTCHAR uni12D4
ENCODING 4820
SWIDTH 720 0
DWIDTH 7 0
BBX 6 6 1 0
BITMAP
60
A0
E0
18
1C
3C
ENDCHAR
STARTCHAR uni12D5
ENCODING 4821
SWIDTH 500 0
DWIDTH 5 0
BBX 4 6 0 0
BITMAP
20
20
D0
90
90
E0
ENDCHAR
STARTCHAR uni12D6
ENCODING 4822
SWIDTH 580 0
DWIDTH 6 0
BBX 4 6 1 0
BITMAP
30
50
60
40
80
80
ENDCHAR
STARTCHAR uni12D8
ENCODING 4824
SWIDTH 493 0
DWIDTH 5 0
BBX 3 6 1 0
BITMAP
A0
A0
E0
A0
A0
A0
ENDCHAR
STARTCHAR uni12D9
ENCODING 4825
SWIDTH 752 0
DWIDTH 8 0
BBX 7 6 0 0
BITMAP
58
58
7E
50
50
D0
ENDCHAR
STARTCHAR uni12DA
ENCODING 4826
SWIDTH 720 0
DWIDTH 7 0
BBX 5 7 1 -1
BITMAP
A0
A0
E0
A0
E0
E8
18
ENDCHAR
STARTCHAR uni12DB
ENCODING 4827
SWIDTH 473 0
DWIDTH 5 0
BBX 3 6 1 0
BITMAP
A0
A0
E0
A0
60
60
ENDCHAR
STARTCHAR uni12DC
ENCODING 4828
SWIDTH 672 0
DWIDTH 7 0
BBX 5 6 1 0
BITMAP
B0
B0
E0
A0
B8
B8
ENDCHAR
STARTCHAR uni12DD
ENCODING 4829
SWIDTH 632 0
DWIDTH 6 0
BBX 5 6 0 0
BITMAP
E8
B8
28
28
28
28
ENDCHAR
STARTCHAR uni12DE
ENCODING 4830
SWIDTH 493 0
DWIDTH 5 0
BBX 3 6 1 0
BITMAP
A0
A0
E0
A0
80
80
ENDCHAR
STARTCHAR uni12DF
ENCODING 4831
SWIDTH 686 0
DWIDTH 7 0
BBX 5 7 1 -1
BITMAP
B0
B0
F0
B0
B0
78
88
ENDCHAR
STARTCHAR uni12E0
ENCODING 4832
SWIDTH 919 0
DWIDTH 9 0
BBX 7 6 1 0
BITMAP
6E
A8
38
28
28
28
ENDCHAR
STARTCHAR uni12E1
ENCODING 4833
SWIDTH 913 0
DWIDTH 9 0
BBX 8 6 1 0
BITMAP
6F
A9
3E
2A
28
28
ENDCHAR
STARTCHAR uni12E2
ENCODING 4834
SWIDTH 919 0
DWIDTH 9 0
BBX 7 7 1 -1
BITMAP
6E
A8
38
28
28
2A
06
ENDCHAR
STARTCHAR uni12E3
ENCODING 4835
SWIDTH 919 0
DWIDTH 9 0
BBX 7 6 1 0
BITMAP
6E
A8
38
28
08
08
ENDCHAR
STARTCHAR uni12E4
ENCODING 4836
SWIDTH 919 0
DWIDTH 9 0
BBX 7 6 1 0
BITMAP
6E
A8
38
28
2E
2E
ENDCHAR
STARTCHAR uni12E5
ENCODING 4837
SWIDTH 919 0
DWIDTH 9 0
BBX 7 8 1 0
BITMAP
F0
42
6E
A8
38
28
28
28
ENDCHAR
STARTCHAR uni12E6
ENCODING 4838
SWIDTH 919 0
DWIDTH 9 0
BBX 7 6 1 0
BITMAP
0E
E8
38
28
20
20
ENDCHAR
STARTCHAR uni12E7
ENCODING 4839
SWIDTH 959 0
DWIDTH 10 0
BBX 8 7 1 -1
BITMAP
6F
AC
3C
2C
0C
0C
33
ENDCHAR
STARTCHAR uni12E8
ENCODING 4840
SWIDTH 433 0
DWIDTH 4 0
BBX 4 6 0 0
BITMAP
70
90
A0
C0
80
80
ENDCHAR
STARTCHAR uni12E9
ENCODING 4841
SWIDTH 560 0
DWIDTH 5 0
BBX 5 6 0 0
BITMAP
70
90
A0
F8
50
40
ENDCHAR
STARTCHAR uni12EA
ENCODING 4842
SWIDTH 720 0
DWIDTH 7 0
BBX 6 6 0 0
BITMAP
70
90
F0
F0
4C
40
ENDCHAR
STARTCHAR uni12EB
ENCODING 4843
SWIDTH 586 0
DWIDTH 6 0
BBX 4 7 1 -1
BITMAP
30
50
60
40
20
C0
80
ENDCHAR
STARTCHAR uni12EC
ENCODING 4844
SWIDTH 692 0
DWIDTH 7 0
BBX 6 6 1 0
BITMAP
60
A0
C0
FC
BC
80
ENDCHAR
STARTCHAR uni12ED
ENCODING 4845
SWIDTH 692 0
DWIDTH 7 0
BBX 5 7 1 -1
BITMAP
70
90
A0
C8
C8
B0
80
ENDCHAR
STARTCHAR uni12EE
ENCODING 4846
SWIDTH 632 0
DWIDTH 7 0
BBX 6 6 0 0
BITMAP
70
94
AC
C0
80
80
ENDCHAR
STARTCHAR uni12EF
ENCODING 4847
SWIDTH 843 0
DWIDTH 9 0
BBX 7 6 1 0
BITMAP
18
2A
F6
A0
20
20
ENDCHAR
STARTCHAR uni12F0
ENCODING 4848
SWIDTH 660 0
DWIDTH 6 0
BBX 5 6 0 0
BITMAP
18
28
30
20
70
C8
ENDCHAR
STARTCHAR uni12F1
ENCODING 4849
SWIDTH 839 0
DWIDTH 8 0
BBX 6 7 1 0
BITMAP
30
50
50
60
90
1C
10
ENDCHAR
STARTCHAR uni12F2
ENCODING 4850
SWIDTH 779 0
DWIDTH 8 0
BBX 6 8 1 -1
BITMAP
38
48
50
7C
88
18
14
0C
ENDCHAR
STARTCHAR uni12F3
ENCODING 4851
SWIDTH 620 0
DWIDTH 6 0
BBX 4 7 1 0
BITMAP
30
50
60
50
B0
10
10
ENDCHAR
STARTCHAR uni12F4
ENCODING 4852
SWIDTH 846 0
DWIDTH 8 0
BBX 7 7 1 -1
BITMAP
70
90
E0
C0
FE
8A
04
ENDCHAR
STARTCHAR uni12F5
ENCODING 4853
SWIDTH 819 0
DWIDTH 8 0
BBX 7 6 0 0
BITMAP
18
2E
30
40
60
D8
ENDCHAR
STARTCHAR uni12F6
ENCODING 4854
SWIDTH 740 0
DWIDTH 7 0
BBX 6 6 1 0
BITMAP
70
50
60
7C
8C
80
ENDCHAR
STARTCHAR uni12F7
ENCODING 4855
SWIDTH 933 0
DWIDTH 9 0
BBX 8 7 1 -1
BITMAP
30
50
60
60
98
BE
21
ENDCHAR
STARTCHAR uni12F8
ENCODING 4856
SWIDTH 706 0
DWIDTH 8 0
BBX 6 8 1 0
BITMAP
10
18
68
48
70
60
F8
84
ENDCHAR
STARTCHAR uni12F9
ENCODING 4857
SWIDTH 853 0
DWIDTH 8 0
BBX 6 8 1 0
BITMAP
20
20
50
50
70
C0
BC
30
ENDCHAR
STARTCHAR uni12FA
ENCODING 4858
SWIDTH 779 0
DWIDTH 8 0
BBX 6 9 1 -1
BITMAP
20
30
50
60
78
90
B0
3C
04
ENDCHAR
STARTCHAR uni12FB
ENCODING 4859
SWIDTH 600 0
DWIDTH 6 0
BBX 4 8 1 0
BITMAP
20
30
50
50
60
B0
30
20
ENDCHAR
STARTCHAR uni12FC
ENCODING 4860
SWIDTH 867 0
DWIDTH 9 0
BBX 7 8 1 0
BITMAP
20
30
D0
90
E0
E0
7E
8E
ENDCHAR
STARTCHAR uni12FD
ENCODING 4861
SWIDTH 807 0
DWIDTH 8 0
BBX 7 8 0 0
BITMAP
10
10
28
2E
30
30
30
FC
ENDCHAR
STARTCHAR uni12FE
ENCODING 4862
SWIDTH 740 0
DWIDTH 7 0
BBX 6 7 1 0
BITMAP
20
70
50
60
7C
8C
80
ENDCHAR
STARTCHAR uni12FF
ENCODING 4863
SWIDTH 933 0
DWIDTH 9 0
BBX 9 7 0 0
BITMAP
1000
2800
2800
3000
2000
5C00
9380
ENDCHAR
STARTCHAR uni1300
ENCODING 4864
SWIDTH 720 0
DWIDTH 7 0
BBX 6 8 1 -1
BITMAP
8C
F4
50
50
60
40
78
80
ENDCHAR
STARTCHAR uni1301
ENCODING 4865
SWIDTH 792 0
DWIDTH 8 0
BBX 6 8 1 -1
BITMAP
B8
EC
70
70
40
74
9C
10
ENDCHAR
STARTCHAR uni1302
ENCODING 4866
SWIDTH 746 0
DWIDTH 8 0
BBX 6 8 1 -1
BITMAP
BC
EC
70
70
78
90
1C
04
ENDCHAR
STARTCHAR uni1303
ENCODING 4867
SWIDTH 646 0
DWIDTH 6 0
BBX 6 8 0 -1
BITMAP
5C
74
78
78
60
78
C8
08
ENDCHAR
STARTCHAR uni1304
ENCODING 4868
SWIDTH 766 0
DWIDTH 8 0
BBX 7 8 0 -1
BITMAP
FC
78
48
48
70
60
FE
06
ENDCHAR
STARTCHAR uni1305
ENCODING 4869
SWIDTH 799 0
DWIDTH 8 0
BBX 6 8 1 -1
BITMAP
CC
F0
50
5C
74
40
78
80
ENDCHAR
STARTCHAR uni1306
ENCODING 4870
SWIDTH 746 0
DWIDTH 7 0
BBX 6 8 1 -1
BITMAP
4C
F4
78
48
50
78
88
80
ENDCHAR
STARTCHAR uni1307
ENCODING 4871
SWIDTH 933 0
DWIDTH 9 0
BBX 9 9 0 -1
BITMAP
7C00
5400
6800
4800
7000
7000
FC00
8C00
9F80
ENDCHAR
STARTCHAR uni1308
ENCODING 4872
SWIDTH 459 0
DWIDTH 5 0
BBX 3 6 1 0
BITMAP
E0
A0
20
20
40
60
ENDCHAR
STARTCHAR uni1309
ENCODING 4873
SWIDTH 700 0
DWIDTH 7 0
BBX 5 6 1 0
BITMAP
C0
C0
78
48
40
40
ENDCHAR
STARTCHAR uni130A
ENCODING 4874
SWIDTH 700 0
DWIDTH 7 0
BBX 5 7 1 -1
BITMAP
C0
C0
40
40
40
58
38
ENDCHAR
STARTCHAR uni130B
ENCODING 4875
SWIDTH 660 0
DWIDTH 7 0
BBX 5 7 1 -1
BITMAP
18
28
48
08
10
E0
80
ENDCHAR
STARTCHAR uni130C
ENCODING 4876
SWIDTH 592 0
DWIDTH 6 0
BBX 4 6 1 0
BITMAP
E0
A0
20
20
70
70
ENDCHAR
STARTCHAR uni130D
ENCODING 4877
SWIDTH 620 0
DWIDTH 6 0
BBX 5 6 1 0
BITMAP
38
E8
E8
08
10
10
ENDCHAR
STARTCHAR uni130E
ENCODING 4878
SWIDTH 505 0
DWIDTH 5 0
BBX 4 7 1 0
BITMAP
40
70
90
A0
20
40
40
ENDCHAR
STARTCHAR uni130F
ENCODING 4879
SWIDTH 550 0
DWIDTH 6 0
BBX 4 9 1 -2
BITMAP
60
30
D0
90
30
20
60
80
80
ENDCHAR
STARTCHAR uni1310
ENCODING 4880
SWIDTH 839 0
DWIDTH 8 0
BBX 7 6 1 0
BITMAP
C0
CE
7A
4E
40
40
ENDCHAR
STARTCHAR uni1312
ENCODING 4882
SWIDTH 886 0
DWIDTH 9 0
BBX 7 6 1 0
BITMAP
60
B8
38
2E
42
40
ENDCHAR
STARTCHAR uni1313
ENCODING 4883
SWIDTH 553 0
DWIDTH 5 0
BBX 3 6 1 0
BITMAP
60
A0
40
A0
20
20
ENDCHAR
STARTCHAR uni1314
ENCODING 4884
SWIDTH 707 0
DWIDTH 7 0
BBX 5 8 1 -1
BITMAP
30
50
90
10
28
38
C0
80
ENDCHAR
STARTCHAR uni1315
ENCODING 4885
SWIDTH 773 0
DWIDTH 8 0
BBX 6 6 1 0
BITMAP
60
B8
38
24
40
40
ENDCHAR
STARTCHAR uni1318
ENCODING 4888
SWIDTH 632 0
DWIDTH 6 0
BBX 5 8 1 0
BITMAP
08
F8
B0
50
10
10
20
30
ENDCHAR
STARTCHAR uni1319
ENCODING 4889
SWIDTH 765 0
DWIDTH 8 0
BBX 7 7 0 0
BITMAP
FC
BC
50
16
1A
10
10
ENDCHAR
STARTCHAR uni131A
ENCODING 4890
SWIDTH 779 0
DWIDTH 8 0
BBX 6 8 1 -1
BITMAP
F8
B8
50
10
20
20
2C
1C
ENDCHAR
STARTCHAR uni131B
ENCODING 4891
SWIDTH 696 0
DWIDTH 7 0
BBX 6 8 1 -1
BITMAP
F8
BC
48
08
08
10
E0
80
ENDCHAR
STARTCHAR uni131C
ENCODING 4892
SWIDTH 654 0
DWIDTH 7 0
BBX 6 8 0 0
BITMAP
04
FC
B8
48
08
18
1C
3C
ENDCHAR
STARTCHAR uni131D
ENCODING 4893
SWIDTH 649 0
DWIDTH 7 0
BBX 6 8 0 0
BITMAP
04
7C
5C
B4
E4
04
08
0C
ENDCHAR
STARTCHAR uni131E
ENCODING 4894
SWIDTH 649 0
DWIDTH 7 0
BBX 4 7 1 0
BITMAP
F0
F0
60
E0
A0
20
20
ENDCHAR
STARTCHAR uni131F
ENCODING 4895
SWIDTH 711 0
DWIDTH 7 0
BBX 6 7 1 0
BITMAP
F8
A8
70
90
10
20
DC
ENDCHAR
STARTCHAR uni1320
ENCODING 4896
SWIDTH 812 0
DWIDTH 8 0
BBX 6 5 1 0
BITMAP
7C
A4
A4
A4
A4
ENDCHAR
STARTCHAR uni1321
ENCODING 4897
SWIDTH 1025 0
DWIDTH 10 0
BBX 9 5 1 0
BITMAP
7C00
A580
A780
A400
A400
ENDCHAR
STARTCHAR uni1322
ENCODING 4898
SWIDTH 1060 0
DWIDTH 11 0
BBX 9 6 1 -1
BITMAP
7C00
A400
A400
A400
A700
0180
ENDCHAR
STARTCHAR uni1323
ENCODING 4899
SWIDTH 772 0
DWIDTH 8 0
BBX 7 6 1 0
BITMAP
3E
F2
A2
A2
04
04
ENDCHAR
STARTCHAR uni1324
ENCODING 4900
SWIDTH 945 0
DWIDTH 9 0
BBX 8 5 1 0
BITMAP
3C
D4
94
B7
B7
ENDCHAR
STARTCHAR uni1325
ENCODING 4901
SWIDTH 686 0
DWIDTH 7 0
BBX 6 6 0 0
BITMAP
7C
B4
B4
10
10
30
ENDCHAR
STARTCHAR uni1326
ENCODING 4902
SWIDTH 759 0
DWIDTH 8 0
BBX 7 6 0 0
BITMAP
1E
7A
9A
9A
98
80
ENDCHAR
STARTCHAR uni1327
ENCODING 4903
SWIDTH 999 0
DWIDTH 9 0
BBX 8 7 1 -2
BITMAP
3C
54
94
94
94
1B
20
ENDCHAR
STARTCHAR uni1328
ENCODING 4904
SWIDTH 1100 0
DWIDTH 11 0
BBX 10 5 1 0
BITMAP
7E00
9100
9100
FDC0
FDC0
ENDCHAR
STARTCHAR uni1329
ENCODING 4905
SWIDTH 1120 0
DWIDTH 12 0
BBX 10 5 1 0
BITMAP
7F00
91C0
9100
FDC0
91C0
ENDCHAR
STARTCHAR uni132A
ENCODING 4906
SWIDTH 1145 0
DWIDTH 12 0
BBX 10 6 1 -1
BITMAP
3E00
D100
9100
FD00
FDC0
0040
ENDCHAR
STARTCHAR uni132B
ENCODING 4907
SWIDTH 1013 0
DWIDTH 10 0
BBX 9 6 1 0
BITMAP
7F00
FD00
FD00
0100
0280
0380
ENDCHAR
STARTCHAR uni132C
ENCODING 4908
SWIDTH 1259 0
DWIDTH 13 0
BBX 11 5 1 0
BITMAP
3FE0
D1A0
91C0
FD80
FD80
ENDCHAR
STARTCHAR uni132D
ENCODING 4909
SWIDTH 1006 0
DWIDTH 10 0
BBX 9 6 1 0
BITMAP
7E00
EB80
EB80
1800
1C00
1C00
ENDCHAR
STARTCHAR uni132E
ENCODING 4910
SWIDTH 1112 0
DWIDTH 11 0
BBX 10 6 1 0
BITMAP
3F00
5DC0
DDC0
C000
A000
C000
ENDCHAR
STARTCHAR uni132F
ENCODING 4911
SWIDTH 1145 0
DWIDTH 11 0
BBX 9 7 1 -1
BITMAP
3C00
D200
9200
FE00
B600
FE80
0900
ENDCHAR
STARTCHAR uni1330
ENCODING 4912
SWIDTH 565 0
DWIDTH 5 0
BBX 4 7 1 0
BITMAP
40
60
A0
C0
70
B0
90
ENDCHAR
STARTCHAR uni1331
ENCODING 4913
SWIDTH 798 0
DWIDTH 8 0
BBX 6 7 1 0
BITMAP
60
70
90
60
7C
94
98
ENDCHAR
STARTCHAR uni1332
ENCODING 4914
SWIDTH 826 0
DWIDTH 8 0
BBX 7 8 1 -1
BITMAP
40
40
A0
A0
40
B0
B6
0E
ENDCHAR
STARTCHAR uni1333
ENCODING 4915
SWIDTH 565 0
DWIDTH 5 0
BBX 4 7 1 0
BITMAP
40
60
A0
C0
70
B0
30
ENDCHAR
STARTCHAR uni1334
ENCODING 4916
SWIDTH 752 0
DWIDTH 8 0
BBX 6 7 1 0
BITMAP
60
70
90
60
70
DC
9C
ENDCHAR
STARTCHAR uni1335
ENCODING 4917
SWIDTH 686 0
DWIDTH 7 0
BBX 5 7 1 0
BITMAP
40
60
B8
A0
70
90
98
ENDCHAR
STARTCHAR uni1336
ENCODING 4918
SWIDTH 545 0
DWIDTH 5 0
BBX 4 7 1 0
BITMAP
40
60
A0
C0
70
B0
80
ENDCHAR
STARTCHAR uni1337
ENCODING 4919
SWIDTH 705 0
DWIDTH 7 0
BBX 6 8 0 -1
BITMAP
40
60
90
A0
70
B0
1C
E4
ENDCHAR
STARTCHAR uni1338
ENCODING 4920
SWIDTH 565 0
DWIDTH 5 0
BBX 4 6 1 0
BITMAP
E0
A0
E0
70
90
90
ENDCHAR
STARTCHAR uni1339
ENCODING 4921
SWIDTH 786 0
DWIDTH 8 0
BBX 6 6 1 0
BITMAP
E0
A0
C0
74
BC
90
ENDCHAR
STARTCHAR uni133A
ENCODING 4922
SWIDTH 806 0
DWIDTH 8 0
BBX 6 6 1 0
BITMAP
E0
A0
60
E0
B4
BC
ENDCHAR
STARTCHAR uni133B
ENCODING 4923
SWIDTH 525 0
DWIDTH 5 0
BBX 5 6 0 0
BITMAP
70
90
F0
78
88
08
ENDCHAR
STARTCHAR uni133C
ENCODING 4924
SWIDTH 726 0
DWIDTH 7 0
BBX 6 6 1 0
BITMAP
E0
A0
40
F0
9C
9C
ENDCHAR
STARTCHAR uni133D
ENCODING 4925
SWIDTH 712 0
DWIDTH 7 0
BBX 5 6 1 0
BITMAP
E8
B8
C0
70
B0
90
ENDCHAR
STARTCHAR uni133E
ENCODING 4926
SWIDTH 540 0
DWIDTH 5 0
BBX 4 6 1 0
BITMAP
E0
A0
60
F0
90
80
ENDCHAR
STARTCHAR uni133F
ENCODING 4927
SWIDTH 787 0
DWIDTH 8 0
BBX 6 9 1 -2
BITMAP
E0
A0
40
40
E0
A0
B0
3C
C4
ENDCHAR
STARTCHAR uni1340
ENCODING 4928
SWIDTH 493 0
DWIDTH 5 0
BBX 4 6 0 0
BITMAP
70
D0
D0
B0
B0
E0
ENDCHAR
STARTCHAR uni1341
ENCODING 4929
SWIDTH 732 0
DWIDTH 8 0
BBX 6 6 1 0
BITMAP
60
A0
AC
F4
A0
E0
ENDCHAR
STARTCHAR uni1342
ENCODING 4930
SWIDTH 612 0
DWIDTH 6 0
BBX 6 7 0 -1
BITMAP
F0
90
F0
30
20
6C
1C
ENDCHAR
STARTCHAR uni1343
ENCODING 4931
SWIDTH 433 0
DWIDTH 5 0
BBX 4 6 0 0
BITMAP
F0
90
F0
20
20
60
ENDCHAR
STARTCHAR uni1344
ENCODING 4932
SWIDTH 545 0
DWIDTH 5 0
BBX 4 6 1 0
BITMAP
E0
A0
E0
60
70
70
ENDCHAR
STARTCHAR uni1345
ENCODING 4933
SWIDTH 493 0
DWIDTH 5 0
BBX 2 6 1 0
BITMAP
40
40
C0
C0
C0
C0
ENDCHAR
STARTCHAR uni1346
ENCODING 4934
SWIDTH 580 0
DWIDTH 6 0
BBX 4 6 1 0
BITMAP
30
50
60
40
80
80
ENDCHAR
STARTCHAR uni1347
ENCODING 4935
SWIDTH 648 0
DWIDTH 6 0
BBX 5 6 1 0
BITMAP
38
68
B0
20
40
C0
ENDCHAR
STARTCHAR uni1348
ENCODING 4936
SWIDTH 700 0
DWIDTH 7 0
BBX 5 6 1 0
BITMAP
20
40
40
E0
B8
C8
ENDCHAR
STARTCHAR uni1349
ENCODING 4937
SWIDTH 720 0
DWIDTH 7 0
BBX 5 7 1 0
BITMAP
20
40
80
E8
D8
80
80
ENDCHAR
STARTCHAR uni134A
ENCODING 4938
SWIDTH 700 0
DWIDTH 7 0
BBX 5 6 1 0
BITMAP
20
20
40
E8
A8
D0
ENDCHAR
STARTCHAR uni134B
ENCODING 4939
SWIDTH 706 0
DWIDTH 7 0
BBX 5 7 1 0
BITMAP
20
60
C0
A0
F8
28
20
ENDCHAR
STARTCHAR uni134C
ENCODING 4940
SWIDTH 812 0
DWIDTH 8 0
BBX 7 7 1 -1
BITMAP
20
20
40
A0
AE
D2
1E
ENDCHAR
STARTCHAR uni134D
ENCODING 4941
SWIDTH 700 0
DWIDTH 7 0
BBX 6 6 1 0
BITMAP
78
C8
E0
F8
28
24
ENDCHAR
STARTCHAR uni134E
ENCODING 4942
SWIDTH 726 0
DWIDTH 7 0
BBX 5 6 1 0
BITMAP
78
B8
80
E0
B8
C8
ENDCHAR
STARTCHAR uni134F
ENCODING 4943
SWIDTH 766 0
DWIDTH 8 0
BBX 6 9 1 -2
BITMAP
20
20
C0
A0
FC
20
20
FC
80
ENDCHAR
STARTCHAR uni1350
ENCODING 4944
SWIDTH 706 0
DWIDTH 7 0
BBX 6 6 0 0
BITMAP
FC
B4
20
20
20
60
ENDCHAR
STARTCHAR uni1351
ENCODING 4945
SWIDTH 706 0
DWIDTH 7 0
BBX 6 6 0 0
BITMAP
FC
B4
30
2C
60
60
ENDCHAR
STARTCHAR uni1352
ENCODING 4946
SWIDTH 706 0
DWIDTH 7 0
BBX 6 7 0 -1
BITMAP
FC
B4
30
30
60
64
1C
ENDCHAR
STARTCHAR uni1353
ENCODING 4947
SWIDTH 873 0
DWIDTH 9 0
BBX 7 6 1 0
BITMAP
7E
58
18
10
20
C0
ENDCHAR
STARTCHAR uni1354
ENCODING 4948
SWIDTH 706 0
DWIDTH 8 0
BBX 6 6 1 0
BITMAP
FC
F4
70
78
48
78
ENDCHAR
STARTCHAR uni1355
ENCODING 4949
SWIDTH 706 0
DWIDTH 7 0
BBX 6 6 0 0
BITMAP
FC
B4
10
10
30
30
ENDCHAR
STARTCHAR uni1356
ENCODING 4950
SWIDTH 879 0
DWIDTH 9 0
BBX 7 6 1 0
BITMAP
7E
8A
10
20
C0
80
ENDCHAR
STARTCHAR uni1357
ENCODING 4951
SWIDTH 746 0
DWIDTH 8 0
BBX 6 7 1 -1
BITMAP
FC
B4
30
20
20
78
8C
ENDCHAR
STARTCHAR uni1358
ENCODING 4952
SWIDTH 707 0
DWIDTH 7 0
BBX 6 7 0 0
BITMAP
CC
B8
30
60
90
90
E0
ENDCHAR
STARTCHAR uni1359
ENCODING 4953
SWIDTH 1005 0
DWIDTH 10 0
BBX 9 9 1 -1
BITMAP
4800
3400
7C00
AC00
A400
E400
0400
0580
0380
ENDCHAR
STARTCHAR uni135A
ENCODING 4954
SWIDTH 686 0
DWIDTH 7 0
BBX 6 7 0 0
BITMAP
FC
10
20
60
FC
94
E8
ENDCHAR
STARTCHAR uni135D
ENCODING 4957
SWIDTH 0 0
DWIDTH 0 0
BBX 7 2 -6 7
BITMAP
D2
80
ENDCHAR
STARTCHAR uni135E
ENCODING 4958
SWIDTH 0 0
DWIDTH 0 0
BBX 1 2 -3 7
BITMAP
80
80
ENDCHAR
STARTCHAR uni135F
ENCODING 4959
SWIDTH 0 0
DWIDTH 0 0
BBX 4 2 -5 7
BITMAP
90
80
ENDCHAR
STARTCHAR uni1360
ENCODING 4960
SWIDTH 686 0
DWIDTH 7 0
BBX 6 7 0 0
BITMAP
90
54
28
74
30
58
84
ENDCHAR
STARTCHAR uni1361
ENCODING 4961
SWIDTH 580 0
DWIDTH 6 0
BBX 1 4 2 1
BITMAP
80
80
80
80
ENDCHAR
STARTCHAR uni1362
ENCODING 4962
SWIDTH 571 0
DWIDTH 5 0
BBX 3 4 1 1
BITMAP
A0
A0
A0
A0
ENDCHAR
STARTCHAR uni1363
ENCODING 4963
SWIDTH 592 0
DWIDTH 6 0
BBX 3 5 1 1
BITMAP
60
C0
40
40
40
ENDCHAR
STARTCHAR uni1364
ENCODING 4964
SWIDTH 592 0
DWIDTH 6 0
BBX 3 5 1 1
BITMAP
E0
40
80
40
E0
ENDCHAR
STARTCHAR uni1365
ENCODING 4965
SWIDTH 611 0
DWIDTH 6 0
BBX 3 5 1 1
BITMAP
40
80
60
C0
40
ENDCHAR
STARTCHAR uni1366
ENCODING 4966
SWIDTH 819 0
DWIDTH 8 0
BBX 6 4 1 1
BITMAP
80
9C
80
80
ENDCHAR
STARTCHAR uni1367
ENCODING 4967
SWIDTH 560 0
DWIDTH 6 0
BBX 2 6 2 0
BITMAP
80
80
80
C0
80
80
ENDCHAR
STARTCHAR uni1368
ENCODING 4968
SWIDTH 571 0
DWIDTH 5 0
BBX 3 4 1 1
BITMAP
40
E0
A0
40
ENDCHAR
STARTCHAR uni1369
ENCODING 4969
SWIDTH 505 0
DWIDTH 5 0
BBX 5 7 0 -1
BITMAP
78
60
60
D0
90
F0
90
ENDCHAR
STARTCHAR uni136A
ENCODING 4970
SWIDTH 465 0
DWIDTH 5 0
BBX 3 7 1 -1
BITMAP
E0
60
A0
A0
E0
60
A0
ENDCHAR
STARTCHAR uni136B
ENCODING 4971
SWIDTH 486 0
DWIDTH 5 0
BBX 4 8 1 -2
BITMAP
E0
10
E0
80
80
80
00
E0
ENDCHAR
STARTCHAR uni136C
ENCODING 4972
SWIDTH 399 0
DWIDTH 4 0
BBX 4 7 0 -1
BITMAP
F0
60
D0
90
90
E0
F0
ENDCHAR
STARTCHAR uni136D
ENCODING 4973
SWIDTH 585 0
DWIDTH 5 0
BBX 4 8 1 -2
BITMAP
E0
40
50
B0
80
E0
30
C0
ENDCHAR
STARTCHAR uni136E
ENCODING 4974
SWIDTH 499 0
DWIDTH 5 0
BBX 3 7 1 -1
BITMAP
E0
E0
C0
40
E0
E0
E0
ENDCHAR
STARTCHAR uni136F
ENCODING 4975
SWIDTH 559 0
DWIDTH 5 0
BBX 4 8 1 -2
BITMAP
E0
E0
A0
60
40
50
20
E0
ENDCHAR
STARTCHAR uni1370
ENCODING 4976
SWIDTH 652 0
DWIDTH 6 0
BBX 5 7 0 -1
BITMAP
38
78
A8
20
20
D8
F0
ENDCHAR
STARTCHAR uni1371
ENCODING 4977
SWIDTH 492 0
DWIDTH 5 0
BBX 4 8 1 -2
BITMAP
E0
10
90
F0
90
E0
20
D0
ENDCHAR
STARTCHAR uni1372
ENCODING 4978
SWIDTH 445 0
DWIDTH 4 0
BBX 4 8 1 -2
BITMAP
E0
10
40
40
40
40
00
F0
ENDCHAR
STARTCHAR uni1373
ENCODING 4979
SWIDTH 639 0
DWIDTH 7 0
BBX 5 8 1 -2
BITMAP
F0
A8
60
70
90
90
10
E0
ENDCHAR
STARTCHAR uni1374
ENCODING 4980
SWIDTH 666 0
DWIDTH 7 0
BBX 5 8 1 -2
BITMAP
78
38
A8
A8
A8
C8
10
E8
ENDCHAR
STARTCHAR uni1375
ENCODING 4981
SWIDTH 632 0
DWIDTH 7 0
BBX 5 8 1 -2
BITMAP
F0
00
A8
F8
10
10
00
F0
ENDCHAR
STARTCHAR uni1376
ENCODING 4982
SWIDTH 472 0
DWIDTH 4 0
BBX 3 9 1 -2
BITMAP
40
A0
20
A0
C0
40
40
00
E0
ENDCHAR
STARTCHAR uni1377
ENCODING 4983
SWIDTH 666 0
DWIDTH 7 0
BBX 6 7 0 -1
BITMAP
38
7C
F0
10
3C
48
F8
ENDCHAR
STARTCHAR uni1378
ENCODING 4984
SWIDTH 671 0
DWIDTH 7 0
BBX 5 8 1 -1
BITMAP
20
50
18
68
90
B0
F0
90
ENDCHAR
STARTCHAR uni1379
ENCODING 4985
SWIDTH 852 0
DWIDTH 9 0
BBX 9 8 -1 -2
BITMAP
1E00
0080
7F80
9400
1400
1400
3A00
2000
ENDCHAR
STARTCHAR uni137A
ENCODING 4986
SWIDTH 479 0
DWIDTH 5 0
BBX 4 8 1 -2
BITMAP
E0
E0
A0
60
20
60
00
F0
ENDCHAR
STARTCHAR uni137B
ENCODING 4987
SWIDTH 453 0
DWIDTH 5 0
BBX 4 8 1 -2
BITMAP
E0
F0
A0
C0
80
80
60
80
ENDCHAR
STARTCHAR uni137C
ENCODING 4988
SWIDTH 687 0
DWIDTH 7 0
BBX 6 8 1 -2
BITMAP
78
CC
D4
98
F0
90
00
F0
ENDCHAR
STARTCHAR uni1380
ENCODING 4992
SWIDTH 1212 0
DWIDTH 12 0
BBX 10 5 1 1
BITMAP
3F40
F940
A9C0
AE00
E000
ENDCHAR
STARTCHAR uni1381
ENCODING 4993
SWIDTH 1145 0
DWIDTH 11 0
BBX 11 6 1 0
BITMAP
7E80
AA80
E7E0
0260
0400
0400
ENDCHAR
STARTCHAR uni1382
ENCODING 4994
SWIDTH 933 0
DWIDTH 9 0
BBX 8 8 1 -1
BITMAP
7E
D2
CE
C2
06
05
07
38
ENDCHAR
STARTCHAR uni1383
ENCODING 4995
SWIDTH 1180 0
DWIDTH 12 0
BBX 10 6 1 0
BITMAP
FFC0
AAC0
EE00
6000
4000
8000
ENDCHAR
STARTCHAR uni1384
ENCODING 4996
SWIDTH 812 0
DWIDTH 8 0
BBX 7 6 1 0
BITMAP
60
AE
BA
AE
A0
A0
ENDCHAR
STARTCHAR uni1385
ENCODING 4997
SWIDTH 873 0
DWIDTH 9 0
BBX 7 6 1 0
BITMAP
60
AC
BC
A2
A0
A0
ENDCHAR
STARTCHAR uni1386
ENCODING 4998
SWIDTH 726 0
DWIDTH 7 0
BBX 6 8 1 -2
BITMAP
70
90
90
9C
94
98
60
80
ENDCHAR
STARTCHAR uni1387
ENCODING 4999
SWIDTH 1013 0
DWIDTH 10 0
BBX 9 6 1 0
BITMAP
3800
2B80
EE80
AB80
2800
2800
ENDCHAR
STARTCHAR uni1388
ENCODING 5000
SWIDTH 746 0
DWIDTH 7 0
BBX 6 6 1 0
BITMAP
30
7C
6C
E0
B8
C8
ENDCHAR
STARTCHAR uni1389
ENCODING 5001
SWIDTH 819 0
DWIDTH 8 0
BBX 6 6 1 0
BITMAP
38
70
4C
E4
B8
C8
ENDCHAR
STARTCHAR uni138A
ENCODING 5002
SWIDTH 821 0
DWIDTH 8 0
BBX 7 7 1 0
BITMAP
20
40
80
EE
D2
9E
80
ENDCHAR
STARTCHAR uni138B
ENCODING 5003
SWIDTH 794 0
DWIDTH 8 0
BBX 7 6 1 0
BITMAP
7C
CC
DE
AE
F4
30
ENDCHAR
STARTCHAR uni138C
ENCODING 5004
SWIDTH 746 0
DWIDTH 7 0
BBX 7 6 0 0
BITMAP
FE
B4
36
3A
2E
20
ENDCHAR
STARTCHAR uni138D
ENCODING 5005
SWIDTH 778 0
DWIDTH 8 0
BBX 7 6 0 0
BITMAP
FE
B6
3C
2C
22
20
ENDCHAR
STARTCHAR uni138E
ENCODING 5006
SWIDTH 746 0
DWIDTH 8 0
BBX 6 8 1 -1
BITMAP
FC
B4
30
30
38
38
C0
80
ENDCHAR
STARTCHAR uni138F
ENCODING 5007
SWIDTH 830 0
DWIDTH 8 0
BBX 7 6 1 0
BITMAP
FC
AE
3A
2A
2E
20
ENDCHAR
STARTCHAR uni1390
ENCODING 5008
SWIDTH 224 0
DWIDTH 2 0
BBX 1 2 1 0
BITMAP
80
80
ENDCHAR
STARTCHAR uni1391
ENCODING 5009
SWIDTH 517 0
DWIDTH 6 0
BBX 5 2 0 0
BITMAP
88
F8
ENDCHAR
STARTCHAR uni1392
ENCODING 5010
SWIDTH 231 0
DWIDTH 3 0
BBX 2 6 1 0
BITMAP
80
80
80
80
C0
80
ENDCHAR
STARTCHAR uni1393
ENCODING 5011
SWIDTH 239 0
DWIDTH 3 0
BBX 1 4 1 0
BITMAP
80
80
80
80
ENDCHAR
STARTCHAR uni1394
ENCODING 5012
SWIDTH 517 0
DWIDTH 6 0
BBX 5 2 0 0
BITMAP
F8
88
ENDCHAR
STARTCHAR uni1395
ENCODING 5013
SWIDTH 987 0
DWIDTH 10 0
BBX 9 3 0 0
BITMAP
0080
0080
FF00
ENDCHAR
STARTCHAR uni1396
ENCODING 5014
SWIDTH 347 0
DWIDTH 3 0
BBX 2 3 1 0
BITMAP
40
40
80
ENDCHAR
STARTCHAR uni1397
ENCODING 5015
SWIDTH 985 0
DWIDTH 10 0
BBX 9 1 0 0
BITMAP
FF80
ENDCHAR
STARTCHAR uni1398
ENCODING 5016
SWIDTH 1019 0
DWIDTH 10 0
BBX 10 2 0 0
BITMAP
8800
FFC0
ENDCHAR
STARTCHAR uni1399
ENCODING 5017
SWIDTH 473 0
DWIDTH 5 0
BBX 3 6 1 0
BITMAP
80
80
E0
E0
80
80
ENDCHAR
STARTCHAR uni2000
ENCODING 8192
SWIDTH 480 0
DWIDTH 5 0
BBX 1 1 0 0
BITMAP
00
ENDCHAR
STARTCHAR uni2001
ENCODING 8193
SWIDTH 962 0
DWIDTH 10 0
BBX 1 1 0 0
BITMAP
00
ENDCHAR
STARTCHAR uni2002
ENCODING 8194
SWIDTH 500 0
DWIDTH 5 0
BBX 1 1 0 0
BITMAP
00
ENDCHAR
STARTCHAR uni2003
ENCODING 8195
SWIDTH 1000 0
DWIDTH 10 0
BBX 1 1 0 0
BITMAP
00
ENDCHAR
STARTCHAR uni2004
ENCODING 8196
SWIDTH 320 0
DWIDTH 3 0
BBX 1 1 0 0
BITMAP
00
ENDCHAR
STARTCHAR uni2005
ENCODING 8197
SWIDTH 240 0
DWIDTH 2 0
BBX 1 1 0 0
BITMAP
00
ENDCHAR
STARTCHAR uni2006
ENCODING 8198
SWIDTH 160 0
DWIDTH 2 0
BBX 1 1 0 0
BITMAP
00
ENDCHAR
STARTCHAR uni2007
ENCODING 8199
SWIDTH 540 0
DWIDTH 5 0
BBX 1 1 0 0
BITMAP
00
ENDCHAR
STARTCHAR uni2008
ENCODING 8200
SWIDTH 20 0
DWIDTH 0 0
BBX 1 1 0 0
BITMAP
00
ENDCHAR
STARTCHAR uni2009
ENCODING 8201
SWIDTH 318 0
DWIDTH 3 0
BBX 1 1 0 0
BITMAP
00
ENDCHAR
STARTCHAR uni200A
ENCODING 8202
SWIDTH 0 0
DWIDTH 0 0
BBX 1 1 0 0
BITMAP
00
ENDCHAR
STARTCHAR uni200B
ENCODING 8203
SWIDTH 0 0
DWIDTH 0 0
BBX 1 1 0 0
BITMAP
00
ENDCHAR
STARTCHAR uni200C
ENCODING 8204
SWIDTH 0 0
DWIDTH 0 0
BBX 1 1 0 0
BITMAP
00
ENDCHAR
STARTCHAR uni200D
ENCODING 8205
SWIDTH 0 0
DWIDTH 0 0
BBX 1 1 0 0
BITMAP
00
ENDCHAR
STARTCHAR uni200E
ENCODING 8206
SWIDTH 0 0
DWIDTH 0 0
BBX 1 1 0 0
BITMAP
00
ENDCHAR
STARTCHAR uni200F
ENCODING 8207
SWIDTH 0 0
DWIDTH 0 0
BBX 1 1 0 0
BITMAP
00
ENDCHAR
STARTCHAR uni2010
ENCODING 8208
SWIDTH 319 0
DWIDTH 4 0
BBX 2 1 1 2
BITMAP
C0
ENDCHAR
STARTCHAR uni2011
ENCODING 8209
SWIDTH 319 0
DWIDTH 4 0
BBX 2 1 1 2
BITMAP
C0
ENDCHAR
STARTCHAR figuredash
ENCODING 8210
SWIDTH 562 0
DWIDTH 6 0
BBX 5 1 0 2
BITMAP
F8
ENDCHAR
STARTCHAR endash
ENCODING 8211
SWIDTH 605 0
DWIDTH 6 0
BBX 6 1 0 2
BITMAP
FC
ENDCHAR
STARTCHAR emdash
ENCODING 8212
SWIDTH 1000 0
DWIDTH 10 0
BBX 10 1 0 2
BITMAP
FFC0
ENDCHAR
STARTCHAR uni2015
ENCODING 8213
SWIDTH 971 0
DWIDTH 10 0
BBX 10 1 0 2
BITMAP
FFC0
ENDCHAR
STARTCHAR quoteleft
ENCODING 8216
SWIDTH 353 0
DWIDTH 4 0
BBX 2 3 1 3
BITMAP
C0
80
C0
ENDCHAR
STARTCHAR quoteright
ENCODING 8217
SWIDTH 353 0
DWIDTH 4 0
BBX 2 3 1 3
BITMAP
40
C0
C0
ENDCHAR
STARTCHAR quotesinglbase
ENCODING 8218
SWIDTH 247 0
DWIDTH 2 0
BBX 2 3 0 -2
BITMAP
40
40
80
ENDCHAR
STARTCHAR quotedblleft
ENCODING 8220
SWIDTH 652 0
DWIDTH 7 0
BBX 6 3 0 3
BITMAP
CC
90
D8
ENDCHAR
STARTCHAR quotedblright
ENCODING 8221
SWIDTH 652 0
DWIDTH 7 0
BBX 5 3 1 3
BITMAP
48
D8
98
ENDCHAR
STARTCHAR quotedblbase
ENCODING 8222
SWIDTH 453 0
DWIDTH 5 0
BBX 4 3 0 -2
BITMAP
50
50
A0
ENDCHAR
STARTCHAR dagger
ENCODING 8224
SWIDTH 520 0
DWIDTH 5 0
BBX 5 8 0 -1
BITMAP
20
20
F8
20
20
20
20
20
ENDCHAR
STARTCHAR daggerdbl
ENCODING 8225
SWIDTH 520 0
DWIDTH 5 0
BBX 5 8 0 -1
BITMAP
20
20
F8
20
20
F8
20
20
ENDCHAR
STARTCHAR bullet
ENCODING 8226
SWIDTH 372 0
DWIDTH 4 0
BBX 3 3 0 2
BITMAP
60
E0
60
ENDCHAR
STARTCHAR ellipsis
ENCODING 8230
SWIDTH 1000 0
DWIDTH 9 0
BBX 7 1 1 0
BITMAP
92
ENDCHAR
STARTCHAR uni2027
ENCODING 8231
SWIDTH 187 0
DWIDTH 2 0
BBX 1 1 0 3
BITMAP
80
ENDCHAR
STARTCHAR uni2028
ENCODING 8232
SWIDTH 0 0
DWIDTH 0 0
BBX 1 1 0 0
BITMAP
00
ENDCHAR
STARTCHAR uni2029
ENCODING 8233
SWIDTH 0 0
DWIDTH 0 0
BBX 1 1 0 0
BITMAP
00
ENDCHAR
STARTCHAR uni202A
ENCODING 8234
SWIDTH 0 0
DWIDTH 0 0
BBX 1 1 0 0
BITMAP
00
ENDCHAR
STARTCHAR uni202B
ENCODING 8235
SWIDTH 0 0
DWIDTH 0 0
BBX 1 1 0 0
BITMAP
00
ENDCHAR
STARTCHAR uni202C
ENCODING 8236
SWIDTH 0 0
DWIDTH 0 0
BBX 1 1 0 0
BITMAP
00
ENDCHAR
STARTCHAR uni202D
ENCODING 8237
SWIDTH 0 0
DWIDTH 0 0
BBX 1 1 0 0
BITMAP
00
ENDCHAR
STARTCHAR uni202E
ENCODING 8238
SWIDTH 0 0
DWIDTH 0 0
BBX 1 1 0 0
BITMAP
00
ENDCHAR
STARTCHAR uni202F
ENCODING 8239
SWIDTH 240 0
DWIDTH 2 0
BBX 1 1 0 0
BITMAP
00
ENDCHAR
STARTCHAR perthousand
ENCODING 8240
SWIDTH 1134 0
DWIDTH 11 0
BBX 11 7 0 0
BITMAP
6400
9800
9800
9660
69A0
29A0
4660
ENDCHAR
STARTCHAR guilsinglleft
ENCODING 8249
SWIDTH 399 0
DWIDTH 4 0
BBX 3 5 1 1
BITMAP
60
40
80
C0
40
ENDCHAR
STARTCHAR guilsinglright
ENCODING 8250
SWIDTH 399 0
DWIDTH 4 0
BBX 3 5 0 1
BITMAP
40
60
20
40
C0
ENDCHAR
STARTCHAR uni203B
ENCODING 8251
SWIDTH 686 0
DWIDTH 7 0
BBX 6 7 0 0
BITMAP
90
54
28
74
30
58
84
ENDCHAR
STARTCHAR fraction
ENCODING 8260
SWIDTH 490 0
DWIDTH 5 0
BBX 5 8 0 -1
BITMAP
08
10
10
20
20
40
40
80
ENDCHAR
STARTCHAR uni2060
ENCODING 8288
SWIDTH 0 0
DWIDTH 0 0
BBX 1 1 0 0
BITMAP
00
ENDCHAR
STARTCHAR zerosuperior
ENCODING 8304
SWIDTH 404 0
DWIDTH 5 0
BBX 4 4 0 3
BITMAP
70
90
90
70
ENDCHAR
STARTCHAR foursuperior
ENCODING 8308
SWIDTH 404 0
DWIDTH 4 0
BBX 4 4 0 3
BITMAP
60
A0
F0
20
ENDCHAR
STARTCHAR fivesuperior
ENCODING 8309
SWIDTH 404 0
DWIDTH 4 0
BBX 3 4 1 3
BITMAP
E0
E0
A0
E0
ENDCHAR
STARTCHAR sixsuperior
ENCODING 8310
SWIDTH 404 0
DWIDTH 5 0
BBX 4 4 0 3
BITMAP
60
F0
90
F0
ENDCHAR
STARTCHAR sevensuperior
ENCODING 8311
SWIDTH 404 0
DWIDTH 4 0
BBX 3 4 0 3
BITMAP
E0
20
20
40
ENDCHAR
STARTCHAR eightsuperior
ENCODING 8312
SWIDTH 404 0
DWIDTH 5 0
BBX 4 4 0 3
BITMAP
F0
60
90
70
ENDCHAR
STARTCHAR ninesuperior
ENCODING 8313
SWIDTH 404 0
DWIDTH 5 0
BBX 4 4 0 3
BITMAP
F0
90
F0
70
ENDCHAR
STARTCHAR Euro
ENCODING 8364
SWIDTH 502 0
DWIDTH 5 0
BBX 5 6 0 0
BITMAP
38
40
F0
F0
40
38
ENDCHAR
STARTCHAR uni2122
ENCODING 8482
SWIDTH 666 0
DWIDTH 7 0
BBX 5 3 1 4
BITMAP
A8
B8
B8
ENDCHAR
STARTCHAR Omega
ENCODING 8486
SWIDTH 764 0
DWIDTH 8 0
BBX 7 7 0 0
BITMAP
7C
C6
82
82
44
BA
FE
ENDCHAR
STARTCHAR partialdiff
ENCODING 8706
SWIDTH 516 0
DWIDTH 6 0
BBX 5 8 0 -1
BITMAP
70
08
78
98
98
98
90
70
ENDCHAR
STARTCHAR emptyset
ENCODING 8709
SWIDTH 1000 0
DWIDTH 10 0
BBX 8 7 1 0
BITMAP
3E
46
89
91
91
A3
FC
ENDCHAR
STARTCHAR Delta
ENCODING 8710
SWIDTH 639 0
DWIDTH 6 0
BBX 6 7 0 0
BITMAP
10
10
70
48
48
84
FC
ENDCHAR
STARTCHAR product
ENCODING 8719
SWIDTH 745 0
DWIDTH 7 0
BBX 7 7 0 0
BITMAP
FE
44
44
44
44
44
EE
ENDCHAR
STARTCHAR summation
ENCODING 8721
SWIDTH 613 0
DWIDTH 6 0
BBX 6 7 0 0
BITMAP
FC
44
24
10
20
44
FC
ENDCHAR
STARTCHAR minus
ENCODING 8722
SWIDTH 1000 0
DWIDTH 10 0
BBX 6 1 2 3
BITMAP
FC
ENDCHAR
STARTCHAR uni2219
ENCODING 8729
SWIDTH 187 0
DWIDTH 2 0
BBX 1 1 0 3
BITMAP
80
ENDCHAR
STARTCHAR radical
ENCODING 8730
SWIDTH 575 0
DWIDTH 6 0
BBX 6 7 0 0
BITMAP
0C
08
48
D0
30
30
10
ENDCHAR
STARTCHAR infinity
ENCODING 8734
SWIDTH 1000 0
DWIDTH 11 0
BBX 7 4 2 1
BITMAP
6E
92
92
6E
ENDCHAR
STARTCHAR integral
ENCODING 8747
SWIDTH 471 0
DWIDTH 5 0
BBX 4 9 0 -2
BITMAP
30
20
20
20
20
20
20
20
C0
ENDCHAR
STARTCHAR approxequal
ENCODING 8776
SWIDTH 1000 0
DWIDTH 10 0
BBX 6 4 2 1
BITMAP
E4
9C
E4
9C
ENDCHAR
STARTCHAR notequal
ENCODING 8800
SWIDTH 1000 0
DWIDTH 10 0
BBX 6 4 2 1
BITMAP
08
FC
FC
40
ENDCHAR
STARTCHAR lessequal
ENCODING 8804
SWIDTH 1000 0
DWIDTH 10 0
BBX 6 6 2 0
BITMAP
04
38
C0
70
0C
FC
ENDCHAR
STARTCHAR greaterequal
ENCODING 8805
SWIDTH 1000 0
DWIDTH 10 0
BBX 6 6 2 0
BITMAP
80
70
0C
38
C0
FC
ENDCHAR
STARTCHAR uni25CC
ENCODING 9676
SWIDTH 799 0
DWIDTH 8 0
BBX 6 5 1 1
BITMAP
70
00
84
00
AC
ENDCHAR
STARTCHAR uni2713
ENCODING 10003
SWIDTH 942 0
DWIDTH 9 0
BBX 9 7 0 0
BITMAP
0100
0380
0600
8C00
D800
7000
2000
ENDCHAR
STARTCHAR uni2D80
ENCODING 11648
SWIDTH 1055 0
DWIDTH 11 0
BBX 9 6 1 0
BITMAP
1000
1B80
2E80
2F80
EC00
2C00
ENDCHAR
STARTCHAR uni2D81
ENCODING 11649
SWIDTH 862 0
DWIDTH 9 0
BBX 7 6 1 0
BITMAP
7E
BA
EC
20
E0
A0
ENDCHAR
STARTCHAR uni2D82
ENCODING 11650
SWIDTH 881 0
DWIDTH 9 0
BBX 7 6 1 0
BITMAP
1E
2A
2C
E0
A4
3C
ENDCHAR
STARTCHAR uni2D83
ENCODING 11651
SWIDTH 766 0
DWIDTH 8 0
BBX 5 7 1 0
BITMAP
10
18
28
28
E8
A0
20
ENDCHAR
STARTCHAR uni2D84
ENCODING 11652
SWIDTH 840 0
DWIDTH 9 0
BBX 8 7 1 0
BITMAP
3F
28
74
24
64
A0
20
ENDCHAR
STARTCHAR uni2D85
ENCODING 11653
SWIDTH 734 0
DWIDTH 8 0
BBX 6 6 1 0
BITMAP
18
24
24
64
A4
20
ENDCHAR
STARTCHAR uni2D86
ENCODING 11654
SWIDTH 707 0
DWIDTH 7 0
BBX 7 9 0 -2
BITMAP
38
28
30
7C
74
B2
30
40
40
ENDCHAR
STARTCHAR uni2D87
ENCODING 11655
SWIDTH 726 0
DWIDTH 8 0
BBX 6 10 1 -2
BITMAP
04
58
70
60
BC
A4
20
60
80
80
ENDCHAR
STARTCHAR uni2D88
ENCODING 11656
SWIDTH 660 0
DWIDTH 7 0
BBX 5 9 1 -2
BITMAP
18
68
B8
E0
20
20
20
C0
80
ENDCHAR
STARTCHAR uni2D89
ENCODING 11657
SWIDTH 712 0
DWIDTH 8 0
BBX 6 10 1 -2
BITMAP
B0
FC
7C
9C
80
E0
20
20
C0
80
ENDCHAR
STARTCHAR uni2D8A
ENCODING 11658
SWIDTH 779 0
DWIDTH 8 0
BBX 6 6 1 0
BITMAP
20
30
18
28
EC
E0
ENDCHAR
STARTCHAR uni2D8B
ENCODING 11659
SWIDTH 678 0
DWIDTH 7 0
BBX 5 6 1 0
BITMAP
28
28
38
E8
E0
60
ENDCHAR
STARTCHAR uni2D8C
ENCODING 11660
SWIDTH 823 0
DWIDTH 8 0
BBX 7 6 1 0
BITMAP
38
68
F0
CE
86
80
ENDCHAR
STARTCHAR uni2D8D
ENCODING 11661
SWIDTH 833 0
DWIDTH 8 0
BBX 7 8 1 0
BITMAP
10
10
38
28
F0
FE
C4
80
ENDCHAR
STARTCHAR uni2D8E
ENCODING 11662
SWIDTH 770 0
DWIDTH 8 0
BBX 7 8 1 -1
BITMAP
4C
76
38
28
F8
7C
84
82
ENDCHAR
STARTCHAR uni2D8F
ENCODING 11663
SWIDTH 957 0
DWIDTH 10 0
BBX 8 6 1 0
BITMAP
0E
1D
2D
2D
EC
A0
ENDCHAR
STARTCHAR uni2D90
ENCODING 11664
SWIDTH 1312 0
DWIDTH 13 0
BBX 12 6 1 0
BITMAP
0FC0
1370
3770
3000
E800
B000
ENDCHAR
STARTCHAR uni2D91
ENCODING 11665
SWIDTH 712 0
DWIDTH 8 0
BBX 6 7 1 0
BITMAP
20
78
C8
D0
3C
64
40
ENDCHAR
STARTCHAR uni2D92
ENCODING 11666
SWIDTH 1070 0
DWIDTH 11 0
BBX 9 6 1 0
BITMAP
1F80
2200
0400
0800
F000
A000
ENDCHAR
STARTCHAR uni2D93
ENCODING 11667
SWIDTH 931 0
DWIDTH 9 0
BBX 8 7 1 0
BITMAP
F8
AC
70
9F
17
20
20
ENDCHAR
STARTCHAR uni2D94
ENCODING 11668
SWIDTH 985 0
DWIDTH 10 0
BBX 8 7 1 0
BITMAP
F8
B8
74
9C
17
21
20
ENDCHAR
STARTCHAR uni2D95
ENCODING 11669
SWIDTH 755 0
DWIDTH 8 0
BBX 6 8 1 -1
BITMAP
F8
AC
30
D0
1C
1C
60
40
ENDCHAR
STARTCHAR uni2D96
ENCODING 11670
SWIDTH 872 0
DWIDTH 9 0
BBX 7 7 1 0
BITMAP
F8
B8
74
9C
12
20
20
ENDCHAR
STARTCHAR uni2DA0
ENCODING 11680
SWIDTH 817 0
DWIDTH 8 0
BBX 7 7 1 0
BITMAP
7E
70
28
28
E8
A8
28
ENDCHAR
STARTCHAR uni2DA1
ENCODING 11681
SWIDTH 918 0
DWIDTH 9 0
BBX 8 7 1 0
BITMAP
7E
70
28
2A
ED
A8
28
ENDCHAR
STARTCHAR uni2DA2
ENCODING 11682
SWIDTH 926 0
DWIDTH 9 0
BBX 8 8 1 -1
BITMAP
7E
70
28
48
C8
C8
4B
07
ENDCHAR
STARTCHAR uni2DA3
ENCODING 11683
SWIDTH 846 0
DWIDTH 8 0
BBX 7 7 1 0
BITMAP
7E
70
28
28
E8
A8
08
ENDCHAR
STARTCHAR uni2DA4
ENCODING 11684
SWIDTH 873 0
DWIDTH 9 0
BBX 7 7 1 0
BITMAP
7E
70
28
48
C8
CE
4E
ENDCHAR
STARTCHAR uni2DA5
ENCODING 11685
SWIDTH 705 0
DWIDTH 7 0
BBX 5 7 1 0
BITMAP
88
F8
28
28
E8
A8
28
ENDCHAR
STARTCHAR uni2DA6
ENCODING 11686
SWIDTH 826 0
DWIDTH 8 0
BBX 7 7 1 0
BITMAP
7E
70
28
48
C8
C0
40
ENDCHAR
STARTCHAR uni2DA8
ENCODING 11688
SWIDTH 746 0
DWIDTH 7 0
BBX 7 7 0 0
BITMAP
6E
7A
18
7E
58
70
D0
ENDCHAR
STARTCHAR uni2DA9
ENCODING 11689
SWIDTH 746 0
DWIDTH 7 0
BBX 7 7 0 0
BITMAP
6E
7A
18
7E
16
7E
90
ENDCHAR
STARTCHAR uni2DAA
ENCODING 11690
SWIDTH 758 0
DWIDTH 8 0
BBX 6 8 1 -1
BITMAP
DC
7C
90
FC
A0
E0
AC
5C
ENDCHAR
STARTCHAR uni2DAB
ENCODING 11691
SWIDTH 766 0
DWIDTH 8 0
BBX 6 8 1 -1
BITMAP
DC
7C
F4
DC
70
A0
C0
80
ENDCHAR
STARTCHAR uni2DAC
ENCODING 11692
SWIDTH 758 0
DWIDTH 8 0
BBX 6 7 1 0
BITMAP
DC
7C
B0
FC
30
E8
38
ENDCHAR
STARTCHAR uni2DAD
ENCODING 11693
SWIDTH 786 0
DWIDTH 8 0
BBX 7 8 0 0
BITMAP
0C
F4
F8
1E
72
10
70
10
ENDCHAR
STARTCHAR uni2DAE
ENCODING 11694
SWIDTH 758 0
DWIDTH 8 0
BBX 6 8 1 0
BITMAP
04
F8
A8
30
EC
A4
E0
B0
ENDCHAR
STARTCHAR uni2DB0
ENCODING 11696
SWIDTH 946 0
DWIDTH 10 0
BBX 8 6 1 0
BITMAP
E7
AC
3C
EC
AC
2C
ENDCHAR
STARTCHAR uni2DB1
ENCODING 11697
SWIDTH 946 0
DWIDTH 10 0
BBX 9 6 1 0
BITMAP
E700
AC00
3F80
ED00
AC80
2C00
ENDCHAR
STARTCHAR uni2DB2
ENCODING 11698
SWIDTH 932 0
DWIDTH 10 0
BBX 8 7 1 -1
BITMAP
67
AC
3C
EC
AC
2D
03
ENDCHAR
STARTCHAR uni2DB3
ENCODING 11699
SWIDTH 932 0
DWIDTH 10 0
BBX 8 6 1 0
BITMAP
67
AC
3C
EC
0C
0C
ENDCHAR
STARTCHAR uni2DB4
ENCODING 11700
SWIDTH 932 0
DWIDTH 9 0
BBX 7 6 1 0
BITMAP
6E
A8
38
E8
AE
2E
ENDCHAR
STARTCHAR uni2DB5
ENCODING 11701
SWIDTH 932 0
DWIDTH 10 0
BBX 8 8 1 0
BITMAP
F0
49
67
AC
FC
AC
2C
2C
ENDCHAR
STARTCHAR uni2DB6
ENCODING 11702
SWIDTH 932 0
DWIDTH 10 0
BBX 8 6 1 0
BITMAP
67
AC
3C
EC
E8
60
ENDCHAR
STARTCHAR uni2DB8
ENCODING 11704
SWIDTH 1294 0
DWIDTH 13 0
BBX 12 5 1 0
BITMAP
0FC0
7440
4440
F770
7770
ENDCHAR
STARTCHAR uni2DB9
ENCODING 11705
SWIDTH 1326 0
DWIDTH 14 0
BBX 13 5 1 0
BITMAP
0FC0
7470
4450
F778
7770
ENDCHAR
STARTCHAR uni2DBA
ENCODING 11706
SWIDTH 1332 0
DWIDTH 14 0
BBX 12 6 1 -1
BITMAP
0F80
7440
4440
F740
7770
0010
ENDCHAR
STARTCHAR uni2DBB
ENCODING 11707
SWIDTH 1219 0
DWIDTH 12 0
BBX 11 6 1 0
BITMAP
1FC0
3B40
FF40
8040
00A0
00E0
ENDCHAR
STARTCHAR uni2DBC
ENCODING 11708
SWIDTH 1444 0
DWIDTH 14 0
BBX 13 5 1 0
BITMAP
0FF8
34E8
64B0
B7E0
37E0
ENDCHAR
STARTCHAR uni2DBD
ENCODING 11709
SWIDTH 1206 0
DWIDTH 12 0
BBX 11 6 1 0
BITMAP
1F80
3AE0
3AE0
C200
0300
0700
ENDCHAR
STARTCHAR uni2DBE
ENCODING 11710
SWIDTH 1312 0
DWIDTH 13 0
BBX 12 6 1 0
BITMAP
0FC0
1370
2550
F330
A800
3000
ENDCHAR
STARTCHAR uni2DC0
ENCODING 11712
SWIDTH 686 0
DWIDTH 7 0
BBX 5 8 1 0
BITMAP
58
20
38
68
A8
F0
20
20
ENDCHAR
STARTCHAR uni2DC1
ENCODING 11713
SWIDTH 672 0
DWIDTH 7 0
BBX 5 8 1 0
BITMAP
58
60
78
E8
F0
58
78
40
ENDCHAR
STARTCHAR uni2DC2
ENCODING 11714
SWIDTH 686 0
DWIDTH 7 0
BBX 5 9 1 -1
BITMAP
58
20
38
68
A8
F0
20
28
18
ENDCHAR
STARTCHAR uni2DC3
ENCODING 11715
SWIDTH 792 0
DWIDTH 8 0
BBX 6 8 1 0
BITMAP
6C
10
10
3C
54
78
20
C0
ENDCHAR
STARTCHAR uni2DC4
ENCODING 11716
SWIDTH 672 0
DWIDTH 7 0
BBX 6 8 1 0
BITMAP
CC
30
1C
74
B8
E0
38
38
ENDCHAR
STARTCHAR uni2DC5
ENCODING 11717
SWIDTH 692 0
DWIDTH 7 0
BBX 6 9 0 -1
BITMAP
D0
20
60
5C
34
58
70
10
10
ENDCHAR
STARTCHAR uni2DC6
ENCODING 11718
SWIDTH 660 0
DWIDTH 7 0
BBX 5 8 1 0
BITMAP
48
30
50
60
78
E8
D0
60
ENDCHAR
STARTCHAR uni2DC8
ENCODING 11720
SWIDTH 660 0
DWIDTH 7 0
BBX 7 7 0 0
BITMAP
D6
F4
C8
48
48
48
48
ENDCHAR
STARTCHAR uni2DC9
ENCODING 11721
SWIDTH 759 0
DWIDTH 8 0
BBX 8 7 0 0
BITMAP
D6
F8
C8
4A
4E
49
48
ENDCHAR
STARTCHAR uni2DCA
ENCODING 11722
SWIDTH 792 0
DWIDTH 8 0
BBX 7 8 1 -1
BITMAP
A4
F8
90
90
90
90
96
0E
ENDCHAR
STARTCHAR uni2DCB
ENCODING 11723
SWIDTH 660 0
DWIDTH 7 0
BBX 7 7 0 0
BITMAP
D6
F8
C8
48
48
08
08
ENDCHAR
STARTCHAR uni2DCC
ENCODING 11724
SWIDTH 766 0
DWIDTH 8 0
BBX 7 7 0 0
BITMAP
D6
F8
C8
48
48
4E
4E
ENDCHAR
STARTCHAR uni2DCD
ENCODING 11725
SWIDTH 687 0
DWIDTH 7 0
BBX 6 7 1 0
BITMAP
AC
B0
F0
D0
F0
D0
D0
ENDCHAR
STARTCHAR uni2DCE
ENCODING 11726
SWIDTH 645 0
DWIDTH 6 0
BBX 7 7 0 0
BITMAP
D6
78
48
48
48
40
40
ENDCHAR
STARTCHAR uni2DD0
ENCODING 11728
SWIDTH 720 0
DWIDTH 8 0
BBX 7 9 0 0
BITMAP
48
28
FC
5E
9A
12
12
12
12
ENDCHAR
STARTCHAR uni2DD1
ENCODING 11729
SWIDTH 945 0
DWIDTH 9 0
BBX 9 8 0 0
BITMAP
6800
EC00
5E00
9A00
1280
1380
1200
1200
ENDCHAR
STARTCHAR uni2DD2
ENCODING 11730
SWIDTH 945 0
DWIDTH 9 0
BBX 9 9 0 -1
BITMAP
6800
EC00
5E00
9A00
1200
1200
1200
1280
0180
ENDCHAR
STARTCHAR uni2DD3
ENCODING 11731
SWIDTH 720 0
DWIDTH 8 0
BBX 7 8 0 0
BITMAP
48
EC
5E
9A
12
12
22
02
ENDCHAR
STARTCHAR uni2DD4
ENCODING 11732
SWIDTH 898 0
DWIDTH 9 0
BBX 8 8 0 0
BITMAP
68
EC
5E
9A
12
12
13
13
ENDCHAR
STARTCHAR uni2DD5
ENCODING 11733
SWIDTH 792 0
DWIDTH 8 0
BBX 7 8 0 0
BITMAP
68
F4
50
9E
12
1A
12
12
ENDCHAR
STARTCHAR uni2DD6
ENCODING 11734
SWIDTH 726 0
DWIDTH 8 0
BBX 7 8 0 0
BITMAP
68
F4
5E
9A
12
12
10
10
ENDCHAR
STARTCHAR uni2DD8
ENCODING 11736
SWIDTH 486 0
DWIDTH 6 0
BBX 5 7 0 0
BITMAP
C8
38
48
08
10
10
10
ENDCHAR
STARTCHAR uni2DD9
ENCODING 11737
SWIDTH 707 0
DWIDTH 7 0
BBX 5 7 1 0
BITMAP
B0
60
A0
38
28
40
40
ENDCHAR
STARTCHAR uni2DDA
ENCODING 11738
SWIDTH 731 0
DWIDTH 7 0
BBX 8 8 -1 -1
BITMAP
D8
78
38
08
08
08
0B
07
ENDCHAR
STARTCHAR uni2DDB
ENCODING 11739
SWIDTH 660 0
DWIDTH 7 0
BBX 5 8 1 -1
BITMAP
58
38
28
48
08
18
F0
80
ENDCHAR
STARTCHAR uni2DDC
ENCODING 11740
SWIDTH 600 0
DWIDTH 6 0
BBX 5 7 0 0
BITMAP
D0
30
50
10
10
38
38
ENDCHAR
STARTCHAR uni2DDD
ENCODING 11741
SWIDTH 632 0
DWIDTH 7 0
BBX 6 7 1 0
BITMAP
4C
38
E8
C8
08
10
10
ENDCHAR
STARTCHAR uni2DDE
ENCODING 11742
SWIDTH 505 0
DWIDTH 5 0
BBX 4 8 0 0
BITMAP
D0
20
20
30
50
10
20
20
ENDCHAR
STARTCHAR uniAB01
ENCODING 43777
SWIDTH 752 0
DWIDTH 8 0
BBX 5 7 1 0
BITMAP
40
40
A0
B8
E8
A0
A0
ENDCHAR
STARTCHAR uniAB02
ENCODING 43778
SWIDTH 786 0
DWIDTH 8 0
BBX 6 8 1 -1
BITMAP
40
40
A0
A0
E0
A0
A8
1C
ENDCHAR
STARTCHAR uniAB03
ENCODING 43779
SWIDTH 553 0
DWIDTH 6 0
BBX 3 7 1 0
BITMAP
40
40
A0
E0
A0
20
20
ENDCHAR
STARTCHAR uniAB04
ENCODING 43780
SWIDTH 700 0
DWIDTH 7 0
BBX 5 7 1 0
BITMAP
40
60
A0
A0
E0
B8
B8
ENDCHAR
STARTCHAR uniAB05
ENCODING 43781
SWIDTH 553 0
DWIDTH 6 0
BBX 4 7 1 0
BITMAP
40
30
D0
90
F0
90
90
ENDCHAR
STARTCHAR uniAB06
ENCODING 43782
SWIDTH 565 0
DWIDTH 6 0
BBX 3 7 1 0
BITMAP
40
40
A0
A0
E0
A0
80
ENDCHAR
STARTCHAR uniAB09
ENCODING 43785
SWIDTH 853 0
DWIDTH 8 0
BBX 6 7 1 0
BITMAP
20
50
70
50
B0
1C
10
ENDCHAR
STARTCHAR uniAB0A
ENCODING 43786
SWIDTH 779 0
DWIDTH 8 0
BBX 6 9 1 -1
BITMAP
20
38
48
70
7C
98
98
14
0C
ENDCHAR
STARTCHAR uniAB0B
ENCODING 43787
SWIDTH 600 0
DWIDTH 6 0
BBX 4 8 1 0
BITMAP
20
30
50
60
40
B0
30
30
ENDCHAR
STARTCHAR uniAB0C
ENCODING 43788
SWIDTH 867 0
DWIDTH 9 0
BBX 7 8 1 0
BITMAP
20
30
70
60
40
60
7E
8E
ENDCHAR
STARTCHAR uniAB0D
ENCODING 43789
SWIDTH 807 0
DWIDTH 8 0
BBX 7 8 0 0
BITMAP
10
10
38
7E
60
30
30
FC
ENDCHAR
STARTCHAR uniAB0E
ENCODING 43790
SWIDTH 740 0
DWIDTH 7 0
BBX 6 7 1 0
BITMAP
20
70
50
60
7C
8C
80
ENDCHAR
STARTCHAR uniAB11
ENCODING 43793
SWIDTH 784 0
DWIDTH 8 0
BBX 7 8 0 0
BITMAP
08
F8
40
D6
7E
50
70
70
ENDCHAR
STARTCHAR uniAB12
ENCODING 43794
SWIDTH 751 0
DWIDTH 8 0
BBX 6 9 1 -1
BITMAP
10
F0
88
90
F0
A0
A0
A8
1C
ENDCHAR
STARTCHAR uniAB13
ENCODING 43795
SWIDTH 561 0
DWIDTH 6 0
BBX 5 8 1 0
BITMAP
10
F0
90
B8
F0
B0
F0
30
ENDCHAR
STARTCHAR uniAB14
ENCODING 43796
SWIDTH 701 0
DWIDTH 7 0
BBX 6 8 0 0
BITMAP
08
F8
40
C4
7C
6C
4C
6C
ENDCHAR
STARTCHAR uniAB15
ENCODING 43797
SWIDTH 646 0
DWIDTH 6 0
BBX 6 8 0 0
BITMAP
04
FC
E8
BC
34
24
24
24
ENDCHAR
STARTCHAR uniAB16
ENCODING 43798
SWIDTH 564 0
DWIDTH 6 0
BBX 4 8 1 0
BITMAP
10
F0
80
90
F0
D0
D0
C0
ENDCHAR
STARTCHAR uniAB20
ENCODING 43808
SWIDTH 1100 0
DWIDTH 11 0
BBX 10 7 1 0
BITMAP
7E00
7200
5F00
9100
9100
FDC0
FDC0
ENDCHAR
STARTCHAR uniAB21
ENCODING 43809
SWIDTH 1120 0
DWIDTH 12 0
BBX 10 7 1 0
BITMAP
7E00
7200
5F00
91C0
9100
FDC0
91C0
ENDCHAR
STARTCHAR uniAB22
ENCODING 43810
SWIDTH 1145 0
DWIDTH 12 0
BBX 10 8 1 -1
BITMAP
7E00
7200
3E00
D100
9100
FD00
FDC0
0040
ENDCHAR
STARTCHAR uniAB23
ENCODING 43811
SWIDTH 1013 0
DWIDTH 10 0
BBX 9 8 1 0
BITMAP
7E00
3A00
7F00
FD00
FD00
0100
0280
0380
ENDCHAR
STARTCHAR uniAB24
ENCODING 43812
SWIDTH 1259 0
DWIDTH 13 0
BBX 11 7 1 0
BITMAP
7E00
7200
5FE0
91A0
91C0
FD80
FD80
ENDCHAR
STARTCHAR uniAB25
ENCODING 43813
SWIDTH 1006 0
DWIDTH 10 0
BBX 9 9 1 0
BITMAP
0600
7E00
4000
7E00
EB80
EB80
1800
1C00
1C00
ENDCHAR
STARTCHAR uniAB26
ENCODING 43814
SWIDTH 1112 0
DWIDTH 11 0
BBX 10 9 1 0
BITMAP
0200
7F00
2000
7F00
5DC0
DDC0
C000
A000
C000
ENDCHAR
STARTCHAR uniAB28
ENCODING 43816
SWIDTH 632 0
DWIDTH 6 0
BBX 6 7 0 0
BITMAP
FC
FC
48
68
3C
44
44
ENDCHAR
STARTCHAR uniAB29
ENCODING 43817
SWIDTH 848 0
DWIDTH 8 0
BBX 9 8 0 0
BITMAP
0400
FC00
F800
4800
6800
3D00
4700
4480
ENDCHAR
STARTCHAR uniAB2A
ENCODING 43818
SWIDTH 868 0
DWIDTH 9 0
BBX 7 8 0 0
BITMAP
04
FC
D0
50
30
70
5A
5E
ENDCHAR
STARTCHAR uniAB2B
ENCODING 43819
SWIDTH 637 0
DWIDTH 6 0
BBX 6 8 0 0
BITMAP
04
FC
F8
28
38
1C
24
04
ENDCHAR
STARTCHAR uniAB2C
ENCODING 43820
SWIDTH 788 0
DWIDTH 8 0
BBX 7 8 0 0
BITMAP
04
FC
E8
48
38
78
4E
4E
ENDCHAR
STARTCHAR uniAB2D
ENCODING 43821
SWIDTH 775 0
DWIDTH 8 0
BBX 7 7 0 0
BITMAP
FC
F4
4E
78
2C
4C
44
ENDCHAR
STARTCHAR uniAB2E
ENCODING 43822
SWIDTH 632 0
DWIDTH 6 0
BBX 6 8 0 0
BITMAP
04
FC
E8
48
38
7C
44
60
ENDCHAR
STARTCHAR uni1383.sebLes
ENCODING 57377
SWIDTH 1305 0
DWIDTH 13 0
BBX 11 5 1 1
BITMAP
7F40
B940
A9E0
AF00
E000
ENDCHAR
STARTCHAR uni1387.sebLes
ENCODING 57385
SWIDTH 866 0
DWIDTH 9 0
BBX 7 6 1 0
BITMAP
60
A4
BE
A2
A0
A0
ENDCHAR
STARTCHAR uni138B.sebLes
ENCODING 57393
SWIDTH 827 0
DWIDTH 8 0
BBX 7 6 1 0
BITMAP
28
7C
46
E0
B8
C8
ENDCHAR
STARTCHAR uni138F.sebLes
ENCODING 57401
SWIDTH 833 0
DWIDTH 8 0
BBX 7 6 1 0
BITMAP
7C
E4
68
7C
42
40
ENDCHAR
STARTCHAR uni124D.seb2
ENCODING 57408
SWIDTH 767 0
DWIDTH 7 0
BBX 5 7 1 0
BITMAP
C0
A0
78
A8
F8
78
58
ENDCHAR
STARTCHAR uni12B5.seb2
ENCODING 57409
SWIDTH 937 0
DWIDTH 9 0
BBX 8 6 1 0
BITMAP
80
F0
DF
5D
97
90
ENDCHAR
STARTCHAR uni12C5.seb2
ENCODING 57410
SWIDTH 1155 0
DWIDTH 12 0
BBX 11 7 0 0
BITMAP
FC00
F000
3E00
12E0
3BA0
12E0
3200
ENDCHAR
STARTCHAR uni1315.seb2
ENCODING 57411
SWIDTH 990 0
DWIDTH 10 0
BBX 8 6 1 0
BITMAP
38
EB
CD
17
10
10
ENDCHAR
STARTCHAR uniE068
ENCODING 57448
SWIDTH 732 0
DWIDTH 7 0
BBX 7 9 0 0
BITMAP
04
FC
E0
30
18
1C
24
24
26
ENDCHAR
STARTCHAR uniE069
ENCODING 57449
SWIDTH 958 0
DWIDTH 10 0
BBX 9 9 0 0
BITMAP
0400
FC00
E000
2000
1800
1C00
2780
2580
2600
ENDCHAR
STARTCHAR uniE06A
ENCODING 57450
SWIDTH 972 0
DWIDTH 10 0
BBX 9 10 0 -1
BITMAP
0400
FC00
E000
2000
1800
1C00
2400
2400
2580
0380
ENDCHAR
STARTCHAR uniE06B
ENCODING 57451
SWIDTH 751 0
DWIDTH 8 0
BBX 7 9 0 0
BITMAP
04
FC
C0
20
38
10
2C
24
06
ENDCHAR
STARTCHAR uniE06C
ENCODING 57452
SWIDTH 852 0
DWIDTH 9 0
BBX 8 9 0 0
BITMAP
04
FC
F0
10
28
1C
24
27
27
ENDCHAR
STARTCHAR uniE06D
ENCODING 57453
SWIDTH 738 0
DWIDTH 7 0
BBX 6 9 0 0
BITMAP
FC
FC
60
10
70
18
2C
2C
24
ENDCHAR
STARTCHAR uniE06E
ENCODING 57454
SWIDTH 700 0
DWIDTH 7 0
BBX 6 9 0 0
BITMAP
04
FC
C0
30
18
1C
24
24
20
ENDCHAR
STARTCHAR uniE070
ENCODING 57456
SWIDTH 889 0
DWIDTH 9 0
BBX 8 8 0 -1
BITMAP
60
60
30
70
C8
88
3F
63
ENDCHAR
STARTCHAR uniE071
ENCODING 57457
SWIDTH 703 0
DWIDTH 7 0
BBX 6 7 0 -1
BITMAP
7C
54
7C
10
10
EC
80
ENDCHAR
STARTCHAR uniE072
ENCODING 57458
SWIDTH 735 0
DWIDTH 7 0
BBX 6 6 1 0
BITMAP
60
A0
F0
10
20
DC
ENDCHAR
STARTCHAR uni1288.handwriting
ENCODING 57856
SWIDTH 883 0
DWIDTH 9 0
BBX 8 6 1 0
BITMAP
90
90
9F
9D
B7
60
ENDCHAR
STARTCHAR uni128A.handwriting
ENCODING 57858
SWIDTH 953 0
DWIDTH 10 0
BBX 8 6 1 0
BITMAP
90
94
9D
93
A0
60
ENDCHAR
STARTCHAR uni128B.handwriting
ENCODING 57859
SWIDTH 791 0
DWIDTH 8 0
BBX 6 7 1 -1
BITMAP
78
58
70
30
20
68
9C
ENDCHAR
STARTCHAR uni128C.handwriting
ENCODING 57860
SWIDTH 772 0
DWIDTH 8 0
BBX 5 7 1 -1
BITMAP
98
90
F0
78
48
70
80
ENDCHAR
STARTCHAR uni128D.handwriting
ENCODING 57861
SWIDTH 879 0
DWIDTH 9 0
BBX 7 6 1 0
BITMAP
9C
9E
92
B0
A0
40
ENDCHAR
STARTCHAR uniE217
ENCODING 57879
SWIDTH 992 0
DWIDTH 10 0
BBX 8 6 1 0
BITMAP
0C
08
1E
2A
EB
A0
ENDCHAR
STARTCHAR uniE227
ENCODING 57895
SWIDTH 922 0
DWIDTH 9 0
BBX 8 5 1 0
BITMAP
2D
EE
90
30
20
ENDCHAR
STARTCHAR uniE230
ENCODING 57904
SWIDTH 553 0
DWIDTH 6 0
BBX 3 7 1 0
BITMAP
40
40
A0
A0
E0
A0
A0
ENDCHAR
STARTCHAR uniE24F
ENCODING 57935
SWIDTH 686 0
DWIDTH 7 0
BBX 5 9 1 -1
BITMAP
10
F0
90
90
F0
B0
B0
78
88
ENDCHAR
STARTCHAR uniE257
ENCODING 57943
SWIDTH 740 0
DWIDTH 7 0
BBX 8 11 0 -2
BITMAP
01
83
7C
28
30
3C
54
68
20
C0
C0
ENDCHAR
STARTCHAR uniE25F
ENCODING 57951
SWIDTH 933 0
DWIDTH 9 0
BBX 9 8 0 -1
BITMAP
1000
3800
3800
7800
2000
7C00
C400
1B80
ENDCHAR
STARTCHAR uniE26F
ENCODING 57967
SWIDTH 793 0
DWIDTH 8 0
BBX 7 7 1 0
BITMAP
7E
76
38
44
C4
C4
40
ENDCHAR
STARTCHAR uni1298.gumuz
ENCODING 58000
SWIDTH 629 0
DWIDTH 6 0
BBX 6 8 0 0
BITMAP
04
FC
D0
30
0C
08
18
18
ENDCHAR
STARTCHAR uni1299.gumuz
ENCODING 58001
SWIDTH 762 0
DWIDTH 8 0
BBX 7 8 0 0
BITMAP
04
FC
52
90
0C
0A
08
18
ENDCHAR
STARTCHAR uni129A.gumuz
ENCODING 58002
SWIDTH 670 0
DWIDTH 7 0
BBX 7 9 0 -1
BITMAP
04
FC
E0
20
10
10
20
3C
06
ENDCHAR
STARTCHAR uni129B.gumuz
ENCODING 58003
SWIDTH 631 0
DWIDTH 6 0
BBX 6 9 1 0
BITMAP
0C
FC
80
70
90
80
E0
20
20
ENDCHAR
STARTCHAR uni129C.gumuz
ENCODING 58004
SWIDTH 675 0
DWIDTH 7 0
BBX 6 8 0 0
BITMAP
0C
FC
B0
20
18
10
3C
3C
ENDCHAR
STARTCHAR uni129D.gumuz
ENCODING 58005
SWIDTH 656 0
DWIDTH 6 0
BBX 6 9 0 0
BITMAP
04
FC
C0
38
28
14
0C
08
18
ENDCHAR
STARTCHAR uni129E.gumuz
ENCODING 58006
SWIDTH 660 0
DWIDTH 7 0
BBX 6 9 1 0
BITMAP
08
F8
9C
68
B8
E0
20
20
20
ENDCHAR
STARTCHAR uniE2A8
ENCODING 58024
SWIDTH 565 0
DWIDTH 6 0
BBX 4 7 1 0
BITMAP
F0
F0
90
90
90
90
90
ENDCHAR
STARTCHAR uniE2A9
ENCODING 58025
SWIDTH 779 0
DWIDTH 8 0
BBX 7 7 1 0
BITMAP
F0
F0
90
94
9C
92
98
ENDCHAR
STARTCHAR uniE2AA
ENCODING 58026
SWIDTH 792 0
DWIDTH 8 0
BBX 7 8 1 -1
BITMAP
F0
F0
90
90
90
90
94
0E
ENDCHAR
STARTCHAR uniE2AB
ENCODING 58027
SWIDTH 565 0
DWIDTH 6 0
BBX 4 7 1 0
BITMAP
F0
F0
90
90
90
50
10
ENDCHAR
STARTCHAR uniE2AC
ENCODING 58028
SWIDTH 779 0
DWIDTH 8 0
BBX 6 7 1 0
BITMAP
F8
F0
D0
90
90
9C
9C
ENDCHAR
STARTCHAR uniE2AD
ENCODING 58029
SWIDTH 600 0
DWIDTH 6 0
BBX 5 7 1 0
BITMAP
F8
80
F0
90
D0
90
90
ENDCHAR
STARTCHAR uniE2AE
ENCODING 58030
SWIDTH 553 0
DWIDTH 6 0
BBX 4 7 1 0
BITMAP
F0
F0
90
90
90
80
80
ENDCHAR
STARTCHAR uniE2B7
ENCODING 58039
SWIDTH 700 0
DWIDTH 7 0
BBX 6 9 1 -2
BITMAP
60
60
B0
B0
F0
B0
20
7C
84
ENDCHAR
STARTCHAR uniE2BF
ENCODING 58047
SWIDTH 747 0
DWIDTH 8 0
BBX 6 7 1 0
BITMAP
F8
AC
34
24
64
A0
20
ENDCHAR
STARTCHAR uniE2D7
ENCODING 58071
SWIDTH 650 0
DWIDTH 7 0
BBX 5 6 1 0
BITMAP
18
28
F0
60
C0
C0
ENDCHAR
STARTCHAR uniE2D8
ENCODING 58072
SWIDTH 564 0
DWIDTH 6 0
BBX 5 8 1 0
BITMAP
10
F0
88
90
F0
B0
B0
B0
ENDCHAR
STARTCHAR uniE2E7
ENCODING 58087
SWIDTH 919 0
DWIDTH 9 0
BBX 8 6 0 0
BITMAP
07
74
1C
F4
70
B0
ENDCHAR
STARTCHAR uniE2F8
ENCODING 58104
SWIDTH 706 0
DWIDTH 7 0
BBX 6 7 1 0
BITMAP
20
50
70
70
60
F8
84
ENDCHAR
STARTCHAR uni1313.seb0
ENCODING 58131
SWIDTH 573 0
DWIDTH 6 0
BBX 4 7 1 -1
BITMAP
70
90
10
10
20
D0
90
ENDCHAR
STARTCHAR uni1318.alt1
ENCODING 58136
SWIDTH 632 0
DWIDTH 6 0
BBX 6 8 0 0
BITMAP
04
FC
F8
28
08
08
10
18
ENDCHAR
STARTCHAR uni1319.alt1
ENCODING 58137
SWIDTH 765 0
DWIDTH 8 0
BBX 7 7 0 0
BITMAP
FC
F4
50
1E
10
10
10
ENDCHAR
STARTCHAR uni131A.alt1
ENCODING 58138
SWIDTH 779 0
DWIDTH 8 0
BBX 7 8 0 -1
BITMAP
FC
FC
28
08
08
10
16
0E
ENDCHAR
STARTCHAR uni131B.alt1
ENCODING 58139
SWIDTH 696 0
DWIDTH 7 0
BBX 6 8 1 -1
BITMAP
F8
EC
58
48
08
10
E0
80
ENDCHAR
STARTCHAR uni131C.alt1
ENCODING 58140
SWIDTH 654 0
DWIDTH 7 0
BBX 6 8 0 0
BITMAP
04
FC
F8
48
08
18
1C
3C
ENDCHAR
STARTCHAR uni131D.alt1
ENCODING 58141
SWIDTH 649 0
DWIDTH 7 0
BBX 6 7 0 0
BITMAP
04
FC
5C
F4
04
08
0C
ENDCHAR
STARTCHAR uni131E.alt1
ENCODING 58142
SWIDTH 649 0
DWIDTH 6 0
BBX 5 7 1 0
BITMAP
F8
A8
70
90
10
10
20
ENDCHAR
STARTCHAR uni1287.alt3
ENCODING 58143
SWIDTH 649 0
DWIDTH 6 0
BBX 5 9 1 -2
BITMAP
F8
A8
70
90
10
10
20
D0
80
ENDCHAR
STARTCHAR uniE33F
ENCODING 58175
SWIDTH 731 0
DWIDTH 7 0
BBX 6 6 1 0
BITMAP
38
E8
98
3C
24
20
ENDCHAR
STARTCHAR uni133F.oldstyle
ENCODING 58179
SWIDTH 708 0
DWIDTH 7 0
BBX 5 7 1 -1
BITMAP
F0
F0
F0
20
20
F8
88
ENDCHAR
STARTCHAR uniE34F
ENCODING 58191
SWIDTH 928 0
DWIDTH 9 0
BBX 7 6 1 0
BITMAP
1E
26
20
78
AE
32
ENDCHAR
STARTCHAR uniE370
ENCODING 58224
SWIDTH 370 0
DWIDTH 4 0
BBX 4 3 -1 2
BITMAP
F0
50
70
ENDCHAR
STARTCHAR uniE371
ENCODING 58225
SWIDTH 340 0
DWIDTH 4 0
BBX 5 3 -2 1
BITMAP
F8
28
38
ENDCHAR
STARTCHAR uniE372
ENCODING 58226
SWIDTH 427 0
DWIDTH 4 0
BBX 4 4 -1 1
BITMAP
60
E0
40
30
ENDCHAR
STARTCHAR uniE373
ENCODING 58227
SWIDTH 427 0
DWIDTH 4 0
BBX 4 4 -1 0
BITMAP
60
E0
40
30
ENDCHAR
STARTCHAR uniE374
ENCODING 58228
SWIDTH 153 0
DWIDTH 2 0
BBX 5 4 -4 -2
BITMAP
38
38
C0
80
ENDCHAR
STARTCHAR uniE375
ENCODING 58229
SWIDTH 338 0
DWIDTH 3 0
BBX 4 3 -1 2
BITMAP
20
E0
10
ENDCHAR
STARTCHAR uniE376
ENCODING 58230
SWIDTH 338 0
DWIDTH 4 0
BBX 4 3 -1 1
BITMAP
20
E0
10
ENDCHAR
STARTCHAR uniE37A
ENCODING 58234
SWIDTH 37 0
DWIDTH 0 0
BBX 1 1 -6 6
BITMAP
80
ENDCHAR
STARTCHAR uniE37B
ENCODING 58235
SWIDTH 37 0
DWIDTH 0 0
BBX 1 2 -4 5
BITMAP
80
80
ENDCHAR
STARTCHAR uniE37C
ENCODING 58236
SWIDTH 37 0
DWIDTH 0 0
BBX 1 1 -3 6
BITMAP
80
ENDCHAR
STARTCHAR uniE37D
ENCODING 58237
SWIDTH 224 0
DWIDTH 3 0
BBX 2 2 1 1
BITMAP
C0
80
ENDCHAR
STARTCHAR uniE37E
ENCODING 58238
SWIDTH 224 0
DWIDTH 2 0
BBX 3 2 2 -1
BITMAP
E0
80
ENDCHAR
STARTCHAR uniE37F
ENCODING 58239
SWIDTH 224 0
DWIDTH 2 0
BBX 3 2 -2 -1
BITMAP
E0
80
ENDCHAR
STARTCHAR uni12F8.oromo
ENCODING 58240
SWIDTH 679 0
DWIDTH 7 0
BBX 6 6 1 0
BITMAP
70
70
70
40
78
8C
ENDCHAR
STARTCHAR uni12F9.oromo
ENCODING 58241
SWIDTH 853 0
DWIDTH 8 0
BBX 6 7 1 0
BITMAP
30
50
70
60
90
1C
10
ENDCHAR
STARTCHAR uni12FA.oromo
ENCODING 58242
SWIDTH 779 0
DWIDTH 8 0
BBX 6 8 1 -1
BITMAP
38
48
70
68
9C
98
14
0C
ENDCHAR
STARTCHAR uni12FB.oromo
ENCODING 58243
SWIDTH 600 0
DWIDTH 6 0
BBX 4 6 1 0
BITMAP
30
70
60
90
10
10
ENDCHAR
STARTCHAR uni12FC.oromo
ENCODING 58244
SWIDTH 866 0
DWIDTH 9 0
BBX 7 7 1 -1
BITMAP
70
50
60
60
7E
8A
04
ENDCHAR
STARTCHAR uni12FD.oromo
ENCODING 58245
SWIDTH 806 0
DWIDTH 8 0
BBX 7 6 0 0
BITMAP
38
7E
70
60
30
FC
ENDCHAR
STARTCHAR uni12FE.oromo
ENCODING 58246
SWIDTH 740 0
DWIDTH 7 0
BBX 7 6 0 0
BITMAP
38
68
70
7E
86
80
ENDCHAR
STARTCHAR uni1297.oldstyle
ENCODING 58368
SWIDTH 706 0
DWIDTH 7 0
BBX 5 7 1 -1
BITMAP
C0
80
E0
20
20
38
C8
ENDCHAR
STARTCHAR uni1313.oldstyle
ENCODING 58369
SWIDTH 706 0
DWIDTH 7 0
BBX 5 6 1 0
BITMAP
70
90
10
20
20
D8
ENDCHAR
STARTCHAR uni12C3.oldstyle
ENCODING 58371
SWIDTH 873 0
DWIDTH 9 0
BBX 9 9 0 -2
BITMAP
FC00
FC00
3E00
1200
1200
1200
1300
1D00
1080
ENDCHAR
STARTCHAR uni131F.type
ENCODING 58372
SWIDTH 642 0
DWIDTH 6 0
BBX 6 8 0 0
BITMAP
FC
FC
18
28
30
68
08
08
ENDCHAR
STARTCHAR uni138A.trad
ENCODING 58373
SWIDTH 766 0
DWIDTH 7 0
BBX 5 9 1 -2
BITMAP
20
20
40
A0
F8
38
28
D0
80
ENDCHAR
STARTCHAR uniE406
ENCODING 58374
SWIDTH 812 0
DWIDTH 8 0
BBX 7 8 1 -1
BITMAP
20
20
40
60
A0
BE
DE
80
ENDCHAR
STARTCHAR uni1362.alt2
ENCODING 58376
SWIDTH 571 0
DWIDTH 6 0
BBX 5 6 0 0
BITMAP
20
50
68
D0
50
20
ENDCHAR
STARTCHAR uni1381.seb3
ENCODING 58384
SWIDTH 1097 0
DWIDTH 11 0
BBX 9 7 1 -1
BITMAP
7E00
AA00
E600
0300
0500
0480
0080
ENDCHAR
STARTCHAR uni124A.seb3
ENCODING 58385
SWIDTH 916 0
DWIDTH 9 0
BBX 7 6 1 0
BITMAP
20
78
B8
EC
3C
2E
ENDCHAR
STARTCHAR uni1385.seb3
ENCODING 58386
SWIDTH 892 0
DWIDTH 9 0
BBX 7 6 1 0
BITMAP
60
A0
A0
AC
BE
AA
ENDCHAR
STARTCHAR uni12B2.seb3
ENCODING 58387
SWIDTH 937 0
DWIDTH 9 0
BBX 7 6 1 0
BITMAP
80
E0
A0
A8
B8
AE
ENDCHAR
STARTCHAR uni1312.seb3
ENCODING 58388
SWIDTH 854 0
DWIDTH 9 0
BBX 7 7 1 -1
BITMAP
60
A0
20
58
78
4E
12
ENDCHAR
STARTCHAR uni138D.seb3
ENCODING 58389
SWIDTH 772 0
DWIDTH 8 0
BBX 7 6 0 0
BITMAP
FE
D2
1C
1C
34
3A
ENDCHAR
STARTCHAR uni12C2.seb3
ENCODING 58390
SWIDTH 1142 0
DWIDTH 11 0
BBX 10 7 0 0
BITMAP
FC00
FC00
3400
1400
1500
1700
14C0
ENDCHAR
STARTCHAR uni134F.cohen4
ENCODING 58391
SWIDTH 768 0
DWIDTH 8 0
BBX 7 7 1 -1
BITMAP
7C
C4
F0
FC
34
32
CC
ENDCHAR
STARTCHAR uni129F.cohen8
ENCODING 58392
SWIDTH 666 0
DWIDTH 7 0
BBX 6 8 1 -1
BITMAP
88
74
20
10
10
20
78
88
ENDCHAR
STARTCHAR uni121F.cohen2
ENCODING 58393
SWIDTH 833 0
DWIDTH 9 0
BBX 8 7 0 -1
BITMAP
7F
BD
BF
E4
20
28
DC
ENDCHAR
STARTCHAR uni121F.cohen1
ENCODING 58394
SWIDTH 1005 0
DWIDTH 10 0
BBX 7 8 1 0
BITMAP
84
78
12
FE
AE
E2
04
04
ENDCHAR
STARTCHAR uni122F.cohen3
ENCODING 58395
SWIDTH 686 0
DWIDTH 7 0
BBX 6 7 0 -1
BITMAP
10
60
80
FC
10
1C
E4
ENDCHAR
STARTCHAR uni134F.oldstyle
ENCODING 58512
SWIDTH 726 0
DWIDTH 7 0
BBX 6 8 0 0
BITMAP
04
CC
B0
20
50
7C
14
10
ENDCHAR
STARTCHAR uniE491
ENCODING 58513
SWIDTH 1042 0
DWIDTH 10 0
BBX 9 8 1 0
BITMAP
5800
2000
3E00
6E00
A900
F080
2000
2000
ENDCHAR
STARTCHAR uni129F.gumuz
ENCODING 58514
SWIDTH 657 0
DWIDTH 6 0
BBX 6 9 0 -1
BITMAP
04
FC
78
C0
70
10
10
68
80
ENDCHAR
STARTCHAR uniE493
ENCODING 58515
SWIDTH 663 0
DWIDTH 7 0
BBX 6 8 1 0
BITMAP
88
F4
50
50
60
40
40
40
ENDCHAR
STARTCHAR uniE494
ENCODING 58516
SWIDTH 632 0
DWIDTH 6 0
BBX 6 9 0 -2
BITMAP
3C
0C
54
54
58
50
D0
08
70
ENDCHAR
STARTCHAR uniE496
ENCODING 58518
SWIDTH 846 0
DWIDTH 8 0
BBX 8 8 0 -1
BITMAP
3C
42
9F
BF
B1
A1
62
3C
ENDCHAR
STARTCHAR uni1381.sebLes
ENCODING 58520
SWIDTH 1240 0
DWIDTH 12 0
BBX 11 5 1 1
BITMAP
7F00
B9C0
A9C0
AF20
E000
ENDCHAR
STARTCHAR uni1383.seb4
ENCODING 58521
SWIDTH 1235 0
DWIDTH 12 0
BBX 10 6 1 0
BITMAP
7E80
ABC0
EE40
6000
4000
8000
ENDCHAR
STARTCHAR uniE49A
ENCODING 58522
SWIDTH 1228 0
DWIDTH 12 0
BBX 10 6 1 0
BITMAP
7F80
ABC0
EC40
6000
4000
8000
ENDCHAR
STARTCHAR uniE49C
ENCODING 58524
SWIDTH 0 0
DWIDTH 0 0
BBX 1 1 -1 7
BITMAP
00
ENDCHAR
STARTCHAR uniE49D
ENCODING 58525
SWIDTH 0 0
DWIDTH 0 0
BBX 4 1 -5 8
BITMAP
D0
ENDCHAR
STARTCHAR uniE49E
ENCODING 58526
SWIDTH 0 0
DWIDTH 0 0
BBX 4 1 -8 6
BITMAP
D0
ENDCHAR
STARTCHAR uniE500
ENCODING 58624
SWIDTH 0 0
DWIDTH 0 0
BBX 1 1 -2 7
BITMAP
00
ENDCHAR
STARTCHAR uniE501
ENCODING 58625
SWIDTH 0 0
DWIDTH 0 0
BBX 3 1 -5 8
BITMAP
A0
ENDCHAR
STARTCHAR uniE502
ENCODING 58626
SWIDTH 0 0
DWIDTH 0 0
BBX 2 1 -7 6
BITMAP
C0
ENDCHAR
STARTCHAR uniE508
ENCODING 58632
SWIDTH 0 0
DWIDTH 0 0
BBX 1 1 -3 6
BITMAP
80
ENDCHAR
STARTCHAR uniE509
ENCODING 58633
SWIDTH 0 0
DWIDTH 0 0
BBX 1 1 -4 8
BITMAP
80
ENDCHAR
STARTCHAR uniE50A
ENCODING 58634
SWIDTH 0 0
DWIDTH 0 0
BBX 1 1 -7 6
BITMAP
80
ENDCHAR
STARTCHAR uniE50F
ENCODING 58639
SWIDTH 0 0
DWIDTH 0 0
BBX 4 1 -6 8
BITMAP
D0
ENDCHAR
STARTCHAR uniE510
ENCODING 58640
SWIDTH 0 0
DWIDTH 0 0
BBX 6 3 -9 5
BITMAP
0C
FC
80
ENDCHAR
STARTCHAR uniE511
ENCODING 58641
SWIDTH 0 0
DWIDTH 0 0
BBX 6 3 -8 5
BITMAP
04
FC
C0
ENDCHAR
STARTCHAR uniE512
ENCODING 58642
SWIDTH 0 0
DWIDTH 0 0
BBX 6 3 -7 5
BITMAP
04
FC
C0
ENDCHAR
STARTCHAR uniE513
ENCODING 58643
SWIDTH 0 0
DWIDTH 0 0
BBX 7 3 -7 5
BITMAP
04
FC
C2
ENDCHAR
STARTCHAR uniE514
ENCODING 58644
SWIDTH 0 0
DWIDTH 0 0
BBX 7 3 -6 5
BITMAP
04
FC
C2
ENDCHAR
STARTCHAR uniE515
ENCODING 58645
SWIDTH 0 0
DWIDTH 0 0
BBX 6 3 -9 6
BITMAP
0C
FC
80
ENDCHAR
STARTCHAR uniE516
ENCODING 58646
SWIDTH 0 0
DWIDTH 0 0
BBX 6 3 -8 6
BITMAP
04
FC
C0
ENDCHAR
STARTCHAR uniE517
ENCODING 58647
SWIDTH 0 0
DWIDTH 0 0
BBX 6 3 -7 6
BITMAP
04
FC
C0
ENDCHAR
STARTCHAR uniE518
ENCODING 58648
SWIDTH 0 0
DWIDTH 0 0
BBX 7 3 -7 6
BITMAP
04
FC
C2
ENDCHAR
STARTCHAR uniE519
ENCODING 58649
SWIDTH 0 0
DWIDTH 0 0
BBX 7 3 -6 6
BITMAP
04
FC
C2
ENDCHAR
STARTCHAR uniE51A
ENCODING 58650
SWIDTH 0 0
DWIDTH 0 0
BBX 6 2 -9 7
BITMAP
FC
FC
ENDCHAR
STARTCHAR uniE51B
ENCODING 58651
SWIDTH 0 0
DWIDTH 0 0
BBX 6 2 -8 7
BITMAP
FC
F4
ENDCHAR
STARTCHAR uniE51C
ENCODING 58652
SWIDTH 0 0
DWIDTH 0 0
BBX 6 2 -7 7
BITMAP
FC
FC
ENDCHAR
STARTCHAR uniE51D
ENCODING 58653
SWIDTH 0 0
DWIDTH 0 0
BBX 7 2 -7 7
BITMAP
FC
FE
ENDCHAR
STARTCHAR uniE51E
ENCODING 58654
SWIDTH 0 0
DWIDTH 0 0
BBX 7 2 -6 7
BITMAP
FC
F6
ENDCHAR
STARTCHAR uniE51F
ENCODING 58655
SWIDTH 0 0
DWIDTH 0 0
BBX 6 2 -7 7
BITMAP
FC
FC
ENDCHAR
STARTCHAR uniE520
ENCODING 58656
SWIDTH 152 0
DWIDTH 2 0
BBX 3 3 -2 5
BITMAP
E0
A0
C0
ENDCHAR
STARTCHAR uniE521
ENCODING 58657
SWIDTH 152 0
DWIDTH 2 0
BBX 3 3 -2 3
BITMAP
E0
A0
C0
ENDCHAR
STARTCHAR uniE522
ENCODING 58658
SWIDTH 152 0
DWIDTH 2 0
BBX 3 3 -2 2
BITMAP
E0
A0
C0
ENDCHAR
STARTCHAR uniE528
ENCODING 58664
SWIDTH 6 0
DWIDTH 0 0
BBX 5 2 -6 -2
BITMAP
F8
88
ENDCHAR
STARTCHAR uniE529
ENCODING 58665
SWIDTH 5 0
DWIDTH -1 0
BBX 5 2 -5 -2
BITMAP
F8
88
ENDCHAR
STARTCHAR fi
ENCODING 64257
SWIDTH 628 0
DWIDTH 6 0
BBX 6 7 0 0
BITMAP
70
48
78
C8
48
48
FC
ENDCHAR
STARTCHAR fl
ENCODING 64258
SWIDTH 623 0
DWIDTH 6 0
BBX 6 7 0 0
BITMAP
78
48
68
C8
48
48
FC
ENDCHAR
STARTCHAR uniFE00
ENCODING 65024
SWIDTH 0 0
DWIDTH 0 0
BBX 1 1 0 0
BITMAP
00
ENDCHAR
STARTCHAR uniFE01
ENCODING 65025
SWIDTH 0 0
DWIDTH 0 0
BBX 1 1 0 0
BITMAP
00
ENDCHAR
STARTCHAR uniFE02
ENCODING 65026
SWIDTH 0 0
DWIDTH 0 0
BBX 1 1 0 0
BITMAP
00
ENDCHAR
STARTCHAR uniFE03
ENCODING 65027
SWIDTH 0 0
DWIDTH 0 0
BBX 1 1 0 0
BITMAP
00
ENDCHAR
STARTCHAR uniFE04
ENCODING 65028
SWIDTH 0 0
DWIDTH 0 0
BBX 1 1 0 0
BITMAP
00
ENDCHAR
STARTCHAR uniFE05
ENCODING 65029
SWIDTH 0 0
DWIDTH 0 0
BBX 1 1 0 0
BITMAP
00
ENDCHAR
STARTCHAR uniFE06
ENCODING 65030
SWIDTH 0 0
DWIDTH 0 0
BBX 1 1 0 0
BITMAP
00
ENDCHAR
STARTCHAR uniFE07
ENCODING 65031
SWIDTH 0 0
DWIDTH 0 0
BBX 1 1 0 0
BITMAP
00
ENDCHAR
STARTCHAR uniFE08
ENCODING 65032
SWIDTH 0 0
DWIDTH 0 0
BBX 1 1 0 0
BITMAP
00
ENDCHAR
STARTCHAR uniFE09
ENCODING 65033
SWIDTH 0 0
DWIDTH 0 0
BBX 1 1 0 0
BITMAP
00
ENDCHAR
STARTCHAR uniFE0A
ENCODING 65034
SWIDTH 0 0
DWIDTH 0 0
BBX 1 1 0 0
BITMAP
00
ENDCHAR
STARTCHAR uniFE0B
ENCODING 65035
SWIDTH 0 0
DWIDTH 0 0
BBX 1 1 0 0
BITMAP
00
ENDCHAR
STARTCHAR uniFE0C
ENCODING 65036
SWIDTH 0 0
DWIDTH 0 0
BBX 1 1 0 0
BITMAP
00
ENDCHAR
STARTCHAR uniFE0D
ENCODING 65037
SWIDTH 0 0
DWIDTH 0 0
BBX 1 1 0 0
BITMAP
00
ENDCHAR
STARTCHAR uniFE0E
ENCODING 65038
SWIDTH 0 0
DWIDTH 0 0
BBX 1 1 0 0
BITMAP
00
ENDCHAR
STARTCHAR uniFE0F
ENCODING 65039
SWIDTH 0 0
DWIDTH 0 0
BBX 1 1 0 0
BITMAP
00
ENDCHAR
STARTCHAR uniFEFF
ENCODING 65279
SWIDTH 0 0
DWIDTH 0 0
BBX 1 1 0 0
BITMAP
00
ENDCHAR
STARTCHAR uniFFFC
ENCODING 65532
SWIDTH 0 0
DWIDTH 0 0
BBX 1 1 0 0
BITMAP
00
ENDCHAR
STARTCHAR uniFFFD
ENCODING 65533
SWIDTH 962 0
DWIDTH 10 0
BBX 10 9 0 -1
BITMAP
0800
3400
2E00
7D80
FDC0
7B80
3600
1C00
0800
ENDCHAR
STARTCHAR .notdef
ENCODING -1
SWIDTH 1000 0
DWIDTH 10 0
BBX 8 9 1 -2
BITMAP
FF
81
81
81
81
81
81
81
FF
ENDCHAR
STARTCHAR .null
ENCODING -1
SWIDTH 0 0
DWIDTH 0 0
BBX 1 1 0 0
BITMAP
00
ENDCHAR
STARTCHAR glyph2
ENCODING -1
SWIDTH 0 0
DWIDTH 0 0
BBX 1 1 0 0
BITMAP
00
ENDCHAR
STARTCHAR exclam.punct
ENCODING -1
SWIDTH 337 0
DWIDTH 3 0
BBX 1 7 1 0
BITMAP
80
80
80
80
80
00
80
ENDCHAR
STARTCHAR dollar.punct
ENCODING -1
SWIDTH 562 0
DWIDTH 6 0
BBX 5 8 0 -1
BITMAP
70
B0
A0
70
28
A8
F0
20
ENDCHAR
STARTCHAR percent.punct
ENCODING -1
SWIDTH 859 0
DWIDTH 9 0
BBX 8 7 0 0
BITMAP
64
94
98
93
75
25
23
ENDCHAR
STARTCHAR asterisk.punct
ENCODING -1
SWIDTH 500 0
DWIDTH 5 0
BBX 3 4 1 3
BITMAP
40
E0
C0
A0
ENDCHAR
STARTCHAR plus.punct
ENCODING -1
SWIDTH 1000 0
DWIDTH 10 0
BBX 7 6 2 0
BITMAP
10
10
FE
10
10
10
ENDCHAR
STARTCHAR slash.punct
ENCODING -1
SWIDTH 490 0
DWIDTH 5 0
BBX 5 8 0 -1
BITMAP
08
10
10
20
20
40
80
80
ENDCHAR
STARTCHAR zero.punct
ENCODING -1
SWIDTH 562 0
DWIDTH 6 0
BBX 5 7 0 0
BITMAP
70
88
88
88
88
88
70
ENDCHAR
STARTCHAR one.punct
ENCODING -1
SWIDTH 562 0
DWIDTH 6 0
BBX 4 7 0 0
BITMAP
60
A0
20
20
20
20
70
ENDCHAR
STARTCHAR two.punct
ENCODING -1
SWIDTH 562 0
DWIDTH 6 0
BBX 4 7 1 0
BITMAP
70
90
10
10
20
D0
F0
ENDCHAR
STARTCHAR three.punct
ENCODING -1
SWIDTH 562 0
DWIDTH 6 0
BBX 5 7 0 0
BITMAP
38
48
08
38
08
88
70
ENDCHAR
STARTCHAR four.punct
ENCODING -1
SWIDTH 562 0
DWIDTH 5 0
BBX 5 7 0 0
BITMAP
10
30
50
90
F8
10
10
ENDCHAR
STARTCHAR five.punct
ENCODING -1
SWIDTH 562 0
DWIDTH 6 0
BBX 4 7 1 0
BITMAP
F0
80
80
F0
10
90
E0
ENDCHAR
STARTCHAR six.punct
ENCODING -1
SWIDTH 562 0
DWIDTH 6 0
BBX 5 7 0 0
BITMAP
30
40
F0
88
88
88
70
ENDCHAR
STARTCHAR seven.punct
ENCODING -1
SWIDTH 562 0
DWIDTH 6 0
BBX 5 7 0 0
BITMAP
F8
88
10
10
20
20
40
ENDCHAR
STARTCHAR eight.punct
ENCODING -1
SWIDTH 562 0
DWIDTH 6 0
BBX 5 7 0 0
BITMAP
F0
88
88
F0
88
88
70
ENDCHAR
STARTCHAR nine.punct
ENCODING -1
SWIDTH 562 0
DWIDTH 6 0
BBX 5 7 0 0
BITMAP
70
88
88
88
78
10
60
ENDCHAR
STARTCHAR equal.punct
ENCODING -1
SWIDTH 1000 0
DWIDTH 10 0
BBX 6 2 2 2
BITMAP
FC
FC
ENDCHAR
STARTCHAR question.punct
ENCODING -1
SWIDTH 485 0
DWIDTH 5 0
BBX 3 7 1 0
BITMAP
C0
A0
20
20
40
40
40
ENDCHAR
STARTCHAR Euro.punct
ENCODING -1
SWIDTH 562 0
DWIDTH 6 0
BBX 5 7 0 0
BITMAP
38
48
40
F0
F0
48
38
ENDCHAR
STARTCHAR guilsinglleft.punct
ENCODING -1
SWIDTH 244 0
DWIDTH 2 0
BBX 2 3 0 1
BITMAP
40
80
40
ENDCHAR
STARTCHAR quoteleft.punct
ENCODING -1
SWIDTH 247 0
DWIDTH 2 0
BBX 2 3 0 4
BITMAP
C0
80
80
ENDCHAR
STARTCHAR quoteright.punct
ENCODING -1
SWIDTH 247 0
DWIDTH 2 0
BBX 2 3 0 4
BITMAP
40
40
80
ENDCHAR
STARTCHAR quotedblleft.punct
ENCODING -1
SWIDTH 453 0
DWIDTH 5 0
BBX 4 3 0 4
BITMAP
B0
A0
A0
ENDCHAR
STARTCHAR quotedblright.punct
ENCODING -1
SWIDTH 453 0
DWIDTH 5 0
BBX 4 3 0 4
BITMAP
50
50
A0
ENDCHAR
STARTCHAR guilsinglright.punct
ENCODING -1
SWIDTH 244 0
DWIDTH 2 0
BBX 2 3 0 1
BITMAP
80
40
80
ENDCHAR
STARTCHAR exclamdown.punct
ENCODING -1
SWIDTH 337 0
DWIDTH 3 0
BBX 1 7 1 -2
BITMAP
80
00
80
80
80
80
80
ENDCHAR
STARTCHAR copyright.punct
ENCODING -1
SWIDTH 836 0
DWIDTH 8 0
BBX 8 8 0 -1
BITMAP
3C
5E
A5
A1
A5
9D
42
3C
ENDCHAR
STARTCHAR guillemotleft.punct
ENCODING -1
SWIDTH 441 0
DWIDTH 4 0
BBX 4 3 0 1
BITMAP
50
A0
50
ENDCHAR
STARTCHAR twosuperior.punct
ENCODING -1
SWIDTH 366 0
DWIDTH 5 0
BBX 4 4 0 4
BITMAP
F0
10
20
F0
ENDCHAR
STARTCHAR threesuperior.punct
ENCODING -1
SWIDTH 366 0
DWIDTH 4 0
BBX 3 4 0 4
BITMAP
E0
20
60
E0
ENDCHAR
STARTCHAR onesuperior.punct
ENCODING -1
SWIDTH 366 0
DWIDTH 4 0
BBX 3 5 0 3
BITMAP
C0
40
40
40
E0
ENDCHAR
STARTCHAR guillemotright.punct
ENCODING -1
SWIDTH 441 0
DWIDTH 4 0
BBX 4 3 0 1
BITMAP
A0
50
A0
ENDCHAR
STARTCHAR multiply.punct
ENCODING -1
SWIDTH 1000 0
DWIDTH 10 0
BBX 6 6 2 0
BITMAP
84
48
30
30
48
84
ENDCHAR
STARTCHAR zerosuperior.punct
ENCODING -1
SWIDTH 366 0
DWIDTH 5 0
BBX 4 5 0 3
BITMAP
70
90
90
90
70
ENDCHAR
STARTCHAR foursuperior.punct
ENCODING -1
SWIDTH 366 0
DWIDTH 4 0
BBX 4 4 0 4
BITMAP
20
E0
F0
20
ENDCHAR
STARTCHAR fivesuperior.punct
ENCODING -1
SWIDTH 366 0
DWIDTH 5 0
BBX 3 4 1 4
BITMAP
E0
80
E0
E0
ENDCHAR
STARTCHAR sixsuperior.punct
ENCODING -1
SWIDTH 366 0
DWIDTH 5 0
BBX 4 5 0 3
BITMAP
60
C0
F0
90
70
ENDCHAR
STARTCHAR sevensuperior.punct
ENCODING -1
SWIDTH 366 0
DWIDTH 4 0
BBX 3 4 0 4
BITMAP
E0
A0
40
80
ENDCHAR
STARTCHAR eightsuperior.punct
ENCODING -1
SWIDTH 366 0
DWIDTH 4 0
BBX 3 5 0 3
BITMAP
E0
A0
E0
A0
E0
ENDCHAR
STARTCHAR ninesuperior.punct
ENCODING -1
SWIDTH 366 0
DWIDTH 5 0
BBX 4 5 0 3
BITMAP
60
90
F0
30
60
ENDCHAR
STARTCHAR nonmarkingreturn
ENCODING -1
SWIDTH 450 0
DWIDTH 5 0
BBX 1 1 0 0
BITMAP
00
ENDCHAR
STARTCHAR uni1359.ala2
ENCODING -1
SWIDTH 1005 0
DWIDTH 10 0
BBX 7 8 1 0
BITMAP
84
78
12
FE
AE
E2
04
04
ENDCHAR
STARTCHAR uni1381.seb5
ENCODING -1
SWIDTH 1097 0
DWIDTH 11 0
BBX 9 7 1 -1
BITMAP
7E00
AA00
E600
0300
0500
0480
0080
ENDCHAR
STARTCHAR uni1381.sebLes1
ENCODING -1
SWIDTH 1240 0
DWIDTH 12 0
BBX 11 5 1 1
BITMAP
7F00
B9C0
A9C0
AF20
E000
ENDCHAR
STARTCHAR uni1383.sebLes4
ENCODING -1
SWIDTH 1305 0
DWIDTH 13 0
BBX 11 5 1 1
BITMAP
7F40
B940
A9E0
AF00
E000
ENDCHAR
STARTCHAR uni1358.ala1
ENCODING -1
SWIDTH 758 0
DWIDTH 8 0
BBX 6 6 1 0
BITMAP
FC
20
40
80
BC
C0
ENDCHAR
STARTCHAR uni1387.sebLes2
ENCODING -1
SWIDTH 866 0
DWIDTH 9 0
BBX 7 6 1 0
BITMAP
60
A4
BE
A2
A0
A0
ENDCHAR
STARTCHAR uni1297.cohen0
ENCODING -1
SWIDTH 706 0
DWIDTH 7 0
BBX 5 7 1 -1
BITMAP
C0
80
E0
20
20
38
C8
ENDCHAR
STARTCHAR uni129F.gumuz1
ENCODING -1
SWIDTH 657 0
DWIDTH 6 0
BBX 6 9 0 -1
BITMAP
04
FC
78
C0
70
10
10
68
80
ENDCHAR
STARTCHAR uni12C3.cohen7
ENCODING -1
SWIDTH 873 0
DWIDTH 9 0
BBX 9 9 0 -2
BITMAP
FC00
FC00
3E00
1200
1200
1200
1300
1D00
1080
ENDCHAR
STARTCHAR uni12E0.cohen6
ENCODING -1
SWIDTH 919 0
DWIDTH 9 0
BBX 7 6 1 0
BITMAP
6E
A8
38
28
28
28
ENDCHAR
STARTCHAR uni12E1.cohen6
ENCODING -1
SWIDTH 913 0
DWIDTH 9 0
BBX 8 6 1 0
BITMAP
6F
A9
3E
2A
28
28
ENDCHAR
STARTCHAR uni12E3.cohen6
ENCODING -1
SWIDTH 919 0
DWIDTH 9 0
BBX 7 6 1 0
BITMAP
6E
A8
38
28
08
08
ENDCHAR
STARTCHAR uni12E4.cohen6
ENCODING -1
SWIDTH 919 0
DWIDTH 9 0
BBX 7 6 1 0
BITMAP
6E
A8
38
28
2E
2E
ENDCHAR
STARTCHAR uni12E5.cohen6
ENCODING -1
SWIDTH 965 0
DWIDTH 10 0
BBX 9 6 0 0
BITMAP
3380
5600
1E00
1600
F600
C600
ENDCHAR
STARTCHAR uni12E6.cohen6
ENCODING -1
SWIDTH 919 0
DWIDTH 9 0
BBX 7 6 1 0
BITMAP
0E
E8
38
28
20
20
ENDCHAR
STARTCHAR uni12E0.chaine
ENCODING -1
SWIDTH 919 0
DWIDTH 9 0
BBX 7 8 1 -2
BITMAP
6E
A8
38
28
28
2E
C6
80
ENDCHAR
STARTCHAR uni12E1.chaine
ENCODING -1
SWIDTH 913 0
DWIDTH 9 0
BBX 8 8 1 -2
BITMAP
66
AC
3F
2A
29
2E
C2
80
ENDCHAR
STARTCHAR uni12E3.chaine
ENCODING -1
SWIDTH 919 0
DWIDTH 9 0
BBX 7 7 1 -1
BITMAP
6E
A8
38
28
C8
0E
02
ENDCHAR
STARTCHAR uni12E4.chaine
ENCODING -1
SWIDTH 919 0
DWIDTH 9 0
BBX 7 8 1 -2
BITMAP
6E
A8
38
28
2E
2E
C0
80
ENDCHAR
STARTCHAR uni12E5.chaine
ENCODING -1
SWIDTH 919 0
DWIDTH 9 0
BBX 7 8 1 -2
BITMAP
6C
A8
38
28
28
2E
C2
80
ENDCHAR
STARTCHAR uni12E5.oldstyle
ENCODING -1
SWIDTH 965 0
DWIDTH 10 0
BBX 9 6 0 0
BITMAP
3380
5600
1E00
1600
F600
C600
ENDCHAR
STARTCHAR uni12E6.chaine
ENCODING -1
SWIDTH 919 0
DWIDTH 9 0
BBX 7 8 1 -2
BITMAP
0E
E8
38
28
36
22
C0
80
ENDCHAR
STARTCHAR uni1313.alonestokes
ENCODING -1
SWIDTH 706 0
DWIDTH 7 0
BBX 5 6 1 0
BITMAP
70
90
10
20
20
D8
ENDCHAR
STARTCHAR uni2D93.blin
ENCODING -1
SWIDTH 931 0
DWIDTH 10 0
BBX 8 7 1 0
BITMAP
F8
FC
E0
AF
37
20
20
ENDCHAR
STARTCHAR uni2D94.blin
ENCODING -1
SWIDTH 985 0
DWIDTH 10 0
BBX 9 7 0 0
BITMAP
FC00
FC00
3600
5E00
1780
1080
1000
ENDCHAR
STARTCHAR uni2D95.blin
ENCODING -1
SWIDTH 755 0
DWIDTH 8 0
BBX 6 8 1 -1
BITMAP
F8
FC
30
50
1C
1C
60
40
ENDCHAR
STARTCHAR uni2D96.blin
ENCODING -1
SWIDTH 872 0
DWIDTH 9 0
BBX 8 7 0 0
BITMAP
FC
FC
36
5E
11
11
10
ENDCHAR
STARTCHAR uni1335.praetorius
ENCODING -1
SWIDTH 574 0
DWIDTH 5 0
BBX 4 8 1 0
BITMAP
80
40
E0
A0
C0
70
B0
90
ENDCHAR
STARTCHAR uni133F.alt4
ENCODING -1
SWIDTH 708 0
DWIDTH 7 0
BBX 5 7 1 -1
BITMAP
F0
F0
F0
20
20
F8
88
ENDCHAR
STARTCHAR uni134F.cohen5
ENCODING -1
SWIDTH 726 0
DWIDTH 7 0
BBX 6 8 0 0
BITMAP
04
CC
B0
20
50
7C
14
10
ENDCHAR
STARTCHAR uni138B.sebLes3
ENCODING -1
SWIDTH 827 0
DWIDTH 8 0
BBX 7 6 1 0
BITMAP
28
7C
46
E0
B8
C8
ENDCHAR
STARTCHAR uni138F.sebLes5
ENCODING -1
SWIDTH 833 0
DWIDTH 8 0
BBX 7 6 1 0
BITMAP
7C
E4
68
7C
42
40
ENDCHAR
ENDFONT
